%TF.GenerationSoftware,KiCad,Pcbnew,7.0.10*%
%TF.CreationDate,2024-01-11T05:44:04-06:00*%
%TF.ProjectId,hitbox no passthrough,68697462-6f78-4206-9e6f-207061737374,rev?*%
%TF.SameCoordinates,Original*%
%TF.FileFunction,Profile,NP*%
%FSLAX46Y46*%
G04 Gerber Fmt 4.6, Leading zero omitted, Abs format (unit mm)*
G04 Created by KiCad (PCBNEW 7.0.10) date 2024-01-11 05:44:04*
%MOMM*%
%LPD*%
G01*
G04 APERTURE LIST*
%TA.AperFunction,Profile*%
%ADD10C,0.100000*%
%TD*%
%ADD11C,0.180000*%
%TA.AperFunction,Profile*%
%ADD12C,0.180000*%
%TD*%
G04 APERTURE END LIST*
D10*
X151900000Y-156340000D02*
G75*
G03*
X144400000Y-156340000I-3750000J0D01*
G01*
X144400000Y-156340000D02*
G75*
G03*
X151900000Y-156340000I3750000J0D01*
G01*
X182430000Y-40560000D02*
G75*
G03*
X174930000Y-40560000I-3750000J0D01*
G01*
X174930000Y-40560000D02*
G75*
G03*
X182430000Y-40560000I3750000J0D01*
G01*
X121820000Y-40540000D02*
G75*
G03*
X114320000Y-40540000I-3750000J0D01*
G01*
X114320000Y-40540000D02*
G75*
G03*
X121820000Y-40540000I3750000J0D01*
G01*
D11*
X292809003Y-55413081D02*
X292768094Y-53795182D01*
X292646685Y-52198505D01*
X292446751Y-50625025D01*
X292170268Y-49076720D01*
X291819210Y-47555565D01*
X291395553Y-46063538D01*
X290901273Y-44602615D01*
X290338344Y-43174773D01*
X289708743Y-41781988D01*
X289014443Y-40426238D01*
X288257422Y-39109498D01*
X287439654Y-37833745D01*
X286563114Y-36600956D01*
X285629777Y-35413107D01*
X284641620Y-34272176D01*
X283600618Y-33180138D01*
X282508745Y-32138970D01*
X281367977Y-31150650D01*
X280180289Y-30217153D01*
X278947657Y-29340456D01*
X277672057Y-28522536D01*
X276355463Y-27765369D01*
X274999850Y-27070932D01*
X273607195Y-26441202D01*
X272179472Y-25878156D01*
X270718657Y-25383769D01*
X269226725Y-24960018D01*
X267705651Y-24608881D01*
X266157412Y-24332334D01*
X264583981Y-24132352D01*
X262987335Y-24010914D01*
X261369449Y-23969996D01*
D12*
X292809003Y-141628447D02*
X292809003Y-55413081D01*
D11*
X261369449Y-173071510D02*
X262987335Y-173030591D01*
X264583981Y-172909153D01*
X266157412Y-172709171D01*
X267705651Y-172432624D01*
X269226725Y-172081487D01*
X270718657Y-171657736D01*
X272179472Y-171163350D01*
X273607195Y-170600303D01*
X274999850Y-169970573D01*
X276355463Y-169276137D01*
X277672057Y-168518970D01*
X278947657Y-167701050D01*
X280180289Y-166824354D01*
X281367977Y-165890857D01*
X282508745Y-164902537D01*
X283600618Y-163861370D01*
X284641620Y-162769333D01*
X285629777Y-161628402D01*
X286563114Y-160440554D01*
X287439654Y-159207766D01*
X288257422Y-157932014D01*
X289014443Y-156615274D01*
X289708743Y-155259525D01*
X290338344Y-153866741D01*
X290901273Y-152438900D01*
X291395553Y-150977979D01*
X291819210Y-149485953D01*
X292170268Y-147964800D01*
X292446751Y-146416496D01*
X292646685Y-144843018D01*
X292768094Y-143246343D01*
X292809003Y-141628447D01*
D12*
X35450551Y-173071510D02*
X261369449Y-173071510D01*
D11*
X4010997Y-141628447D02*
X4051905Y-143246343D01*
X4173314Y-144843018D01*
X4373248Y-146416496D01*
X4649731Y-147964800D01*
X5000789Y-149485953D01*
X5424446Y-150977979D01*
X5918726Y-152438900D01*
X6481655Y-153866741D01*
X7111256Y-155259525D01*
X7805556Y-156615274D01*
X8562577Y-157932014D01*
X9380345Y-159207766D01*
X10256885Y-160440554D01*
X11190222Y-161628402D01*
X12178379Y-162769333D01*
X13219382Y-163861370D01*
X14311254Y-164902537D01*
X15452022Y-165890857D01*
X16639710Y-166824354D01*
X17872342Y-167701050D01*
X19147942Y-168518970D01*
X20464536Y-169276137D01*
X21820149Y-169970573D01*
X23212804Y-170600303D01*
X24640527Y-171163350D01*
X26101342Y-171657736D01*
X27593274Y-172081487D01*
X29114348Y-172432624D01*
X30662587Y-172709171D01*
X32236018Y-172909153D01*
X33832664Y-173030591D01*
X35450551Y-173071510D01*
D12*
X4010997Y-55413081D02*
X4010997Y-141628447D01*
D11*
X35450551Y-23969996D02*
X33832664Y-24010914D01*
X32236018Y-24132352D01*
X30662587Y-24332334D01*
X29114348Y-24608881D01*
X27593274Y-24960018D01*
X26101342Y-25383769D01*
X24640527Y-25878156D01*
X23212804Y-26441202D01*
X21820149Y-27070932D01*
X20464536Y-27765369D01*
X19147942Y-28522536D01*
X17872342Y-29340456D01*
X16639710Y-30217153D01*
X15452022Y-31150650D01*
X14311254Y-32138970D01*
X13219382Y-33180138D01*
X12178379Y-34272176D01*
X11190222Y-35413107D01*
X10256885Y-36600956D01*
X9380345Y-37833745D01*
X8562577Y-39109498D01*
X7805556Y-40426238D01*
X7111256Y-41781988D01*
X6481655Y-43174773D01*
X5918726Y-44602615D01*
X5424446Y-46063538D01*
X5000789Y-47555565D01*
X4649731Y-49076720D01*
X4373248Y-50625025D01*
X4173314Y-52198505D01*
X4051905Y-53795182D01*
X4010997Y-55413081D01*
D12*
X134464727Y-23969996D02*
X35450551Y-23969996D01*
X142410000Y-16024723D02*
X134464727Y-23969996D01*
X142410000Y-12970000D02*
X142410000Y-16024723D01*
X143410004Y-12970000D02*
X142410000Y-12970000D01*
X153409996Y-12970000D02*
X143410004Y-12970000D01*
X154410000Y-12970000D02*
X153409996Y-12970000D01*
X154410000Y-16024723D02*
X154410000Y-12970000D01*
X162355273Y-23969996D02*
X154410000Y-16024723D01*
X261369449Y-23969996D02*
X162355273Y-23969996D01*
M02*
