%TF.GenerationSoftware,KiCad,Pcbnew,8.0.8*%
%TF.CreationDate,2025-05-05T15:36:01+02:00*%
%TF.ProjectId,PCB,5043422e-6b69-4636-9164-5f7063625858,rev?*%
%TF.SameCoordinates,Original*%
%TF.FileFunction,Profile,NP*%
%FSLAX46Y46*%
G04 Gerber Fmt 4.6, Leading zero omitted, Abs format (unit mm)*
G04 Created by KiCad (PCBNEW 8.0.8) date 2025-05-05 15:36:01*
%MOMM*%
%LPD*%
G01*
G04 APERTURE LIST*
%TA.AperFunction,Profile*%
%ADD10C,0.180000*%
%TD*%
%ADD11C,0.090000*%
G04 APERTURE END LIST*
D10*
X351357019Y-199977802D02*
X352497705Y-198989398D01*
X79369300Y-193294696D02*
X80245900Y-194527499D01*
X94629500Y-59965099D02*
X93201799Y-60528098D01*
X354630609Y-196856204D02*
X355618799Y-195715305D01*
X340707696Y-205744602D02*
X342168512Y-205250202D01*
X337694604Y-58695798D02*
X336146417Y-58419198D01*
X77794600Y-190702197D02*
X78551600Y-192018909D01*
X105439501Y-58056897D02*
X103821699Y-58097799D01*
X358246393Y-73196399D02*
X357428613Y-71920597D01*
X339215722Y-206168399D02*
X340707696Y-205744602D01*
X356552118Y-194527499D02*
X357428613Y-193294696D01*
X82167400Y-196856204D02*
X83208401Y-197948306D01*
X334573022Y-206996006D02*
X336146417Y-206796100D01*
X90453501Y-203362995D02*
X91809101Y-204057498D01*
X96090300Y-205744602D02*
X97582300Y-206168399D01*
X359697717Y-75868900D02*
X359003412Y-74513099D01*
X360327295Y-187953601D02*
X360890314Y-186525805D01*
X362635706Y-86285400D02*
X362435816Y-84711899D01*
X75413400Y-185064898D02*
X75907700Y-186525805D01*
X77794600Y-74513099D02*
X77100300Y-75868900D01*
X350169305Y-64304098D02*
X348936700Y-63427398D01*
X348936700Y-201787906D02*
X350169305Y-200911197D01*
X86628700Y-64304098D02*
X85441000Y-65237499D01*
X339215722Y-59046897D02*
X337694604Y-58695798D01*
X358246393Y-192018909D02*
X359003412Y-190702197D01*
X105439501Y-207158405D02*
X331358392Y-207158405D01*
X99103300Y-206519504D02*
X100651600Y-206796100D01*
X347661096Y-62609397D02*
X346344507Y-61852298D01*
X85441000Y-199977802D02*
X86628700Y-200911197D01*
X362435816Y-180503405D02*
X362635706Y-178929904D01*
X331358392Y-207158405D02*
X332976312Y-207117496D01*
X77100300Y-189346408D02*
X77794600Y-190702197D01*
X334573022Y-58219197D02*
X332976312Y-58097799D01*
X91809101Y-61157798D02*
X90453501Y-61852298D01*
X360890314Y-78689499D02*
X360327295Y-77261699D01*
X87861299Y-201787906D02*
X89136900Y-202605899D01*
X78551600Y-73196399D02*
X77794600Y-74513099D01*
X361384607Y-80150398D02*
X360890314Y-78689499D01*
X90453501Y-61852298D02*
X89136900Y-62609397D01*
X103821699Y-58097799D02*
X102225001Y-58219197D01*
X346344507Y-61852298D02*
X344988794Y-61157798D01*
X97582300Y-206168399D02*
X99103300Y-206519504D01*
X83208401Y-67266998D02*
X82167400Y-68359100D01*
X348936700Y-63427398D02*
X347661096Y-62609397D01*
X362159296Y-182051699D02*
X362435816Y-180503405D01*
D11*
X221888998Y-190426898D02*
X221884118Y-190233922D01*
X221869637Y-190043481D01*
X221845789Y-189855808D01*
X221812811Y-189671140D01*
X221770938Y-189489712D01*
X221720406Y-189311760D01*
X221661449Y-189137519D01*
X221594305Y-188967225D01*
X221519208Y-188801114D01*
X221436394Y-188639422D01*
X221346099Y-188482383D01*
X221248558Y-188330234D01*
X221144007Y-188183210D01*
X221032682Y-188041546D01*
X220914818Y-187905479D01*
X220790651Y-187775244D01*
X220660416Y-187651077D01*
X220524349Y-187533213D01*
X220382685Y-187421888D01*
X220235661Y-187317337D01*
X220083512Y-187219796D01*
X219926473Y-187129501D01*
X219764781Y-187046687D01*
X219598670Y-186971590D01*
X219428376Y-186904446D01*
X219254135Y-186845489D01*
X219076183Y-186794957D01*
X218894755Y-186753084D01*
X218710087Y-186720106D01*
X218522414Y-186696258D01*
X218331973Y-186681777D01*
X218138998Y-186676898D01*
D10*
X213399007Y-47056898D02*
X212399007Y-47056898D01*
X332976312Y-207117496D02*
X334573022Y-206996006D01*
X74040900Y-177333209D02*
X74162300Y-178929904D01*
X94629500Y-205250202D02*
X96090300Y-205744602D01*
X80245900Y-194527499D02*
X81179200Y-195715305D01*
X362797998Y-89500000D02*
X362757105Y-87882099D01*
X353589593Y-197948306D02*
X354630609Y-196856204D01*
X362797998Y-175715304D02*
X362797998Y-89500000D01*
X84300200Y-66225898D02*
X83208401Y-67266998D01*
X76470700Y-77261699D02*
X75907700Y-78689499D01*
X212399007Y-47056898D02*
X212399007Y-50111598D01*
X75907700Y-186525805D02*
X76470700Y-187953601D01*
D11*
X244918997Y-74646900D02*
X244923876Y-74839874D01*
X244938357Y-75030315D01*
X244962205Y-75217988D01*
X244995183Y-75402655D01*
X245037056Y-75584083D01*
X245087588Y-75762035D01*
X245146545Y-75936275D01*
X245213689Y-76106569D01*
X245288786Y-76272680D01*
X245371600Y-76434372D01*
X245461895Y-76591411D01*
X245559436Y-76743560D01*
X245663987Y-76890584D01*
X245775312Y-77032248D01*
X245893176Y-77168315D01*
X246017343Y-77298550D01*
X246147578Y-77422718D01*
X246283645Y-77540582D01*
X246425309Y-77651907D01*
X246572333Y-77756458D01*
X246724482Y-77853999D01*
X246881521Y-77944295D01*
X247043213Y-78027109D01*
X247209324Y-78102206D01*
X247379618Y-78169351D01*
X247553859Y-78228307D01*
X247731811Y-78278840D01*
X247913239Y-78320713D01*
X248097907Y-78353691D01*
X248285580Y-78377539D01*
X248476021Y-78392020D01*
X248668997Y-78396900D01*
D10*
X360327295Y-77261699D02*
X359697717Y-75868900D01*
X352497705Y-198989398D02*
X353589593Y-197948306D01*
X74362200Y-84711899D02*
X74162300Y-86285400D01*
X346344507Y-203362995D02*
X347661096Y-202605899D01*
X74989800Y-183572894D02*
X75413400Y-185064898D01*
D11*
X191809003Y-74626899D02*
X191804123Y-74433924D01*
X191789642Y-74243483D01*
X191765794Y-74055811D01*
X191732816Y-73871143D01*
X191690943Y-73689715D01*
X191640410Y-73511764D01*
X191581454Y-73337523D01*
X191514309Y-73167230D01*
X191439212Y-73001119D01*
X191356398Y-72839426D01*
X191266102Y-72682387D01*
X191168561Y-72530238D01*
X191064010Y-72383214D01*
X190952685Y-72241551D01*
X190834821Y-72105484D01*
X190710653Y-71975248D01*
X190580418Y-71851081D01*
X190444351Y-71733216D01*
X190302687Y-71621891D01*
X190155663Y-71517340D01*
X190003514Y-71419799D01*
X189846475Y-71329503D01*
X189684783Y-71246689D01*
X189518672Y-71171592D01*
X189348378Y-71104448D01*
X189174138Y-71045491D01*
X188996186Y-70994958D01*
X188814758Y-70953085D01*
X188630091Y-70920107D01*
X188442418Y-70896259D01*
X188251977Y-70881778D01*
X188059003Y-70876899D01*
D10*
X87861299Y-63427398D02*
X86628700Y-64304098D01*
X76470700Y-187953601D02*
X77100300Y-189346408D01*
X102225001Y-58219197D02*
X100651600Y-58419198D01*
X74162300Y-86285400D02*
X74040900Y-87882099D01*
X232344305Y-58056897D02*
X224399008Y-50111598D01*
X99103300Y-58695798D02*
X97582300Y-59046897D01*
X91809101Y-204057498D02*
X93201799Y-204687198D01*
X351357019Y-65237499D02*
X350169305Y-64304098D01*
X331358392Y-58056897D02*
X232344305Y-58056897D01*
X362159296Y-83163597D02*
X361808222Y-81642498D01*
D11*
X218138998Y-194176898D02*
X218331973Y-194172018D01*
X218522414Y-194157537D01*
X218710087Y-194133689D01*
X218894755Y-194100711D01*
X219076183Y-194058838D01*
X219254135Y-194008306D01*
X219428376Y-193949349D01*
X219598670Y-193882205D01*
X219764781Y-193807108D01*
X219926473Y-193724294D01*
X220083512Y-193633999D01*
X220235661Y-193536459D01*
X220382685Y-193431908D01*
X220524349Y-193320582D01*
X220660416Y-193202718D01*
X220790651Y-193078551D01*
X220914818Y-192948316D01*
X221032682Y-192812249D01*
X221144007Y-192670586D01*
X221248558Y-192523562D01*
X221346099Y-192371413D01*
X221436394Y-192214374D01*
X221519208Y-192052681D01*
X221594305Y-191886570D01*
X221661449Y-191716277D01*
X221720406Y-191542036D01*
X221770938Y-191364084D01*
X221812811Y-191182656D01*
X221845789Y-190997987D01*
X221869637Y-190810315D01*
X221884118Y-190619873D01*
X221888998Y-190426898D01*
D10*
X355618799Y-69500000D02*
X354630609Y-68359100D01*
X93201799Y-60528098D02*
X91809101Y-61157798D01*
X103821699Y-207117496D02*
X105439501Y-207158405D01*
D11*
X248668997Y-78396900D02*
X248861972Y-78392020D01*
X249052414Y-78377539D01*
X249240086Y-78353691D01*
X249424755Y-78320713D01*
X249606183Y-78278840D01*
X249784135Y-78228307D01*
X249958376Y-78169351D01*
X250128669Y-78102206D01*
X250294780Y-78027109D01*
X250456473Y-77944295D01*
X250613512Y-77853999D01*
X250765661Y-77756458D01*
X250912685Y-77651907D01*
X251054348Y-77540582D01*
X251190415Y-77422718D01*
X251320650Y-77298550D01*
X251444817Y-77168315D01*
X251562681Y-77032248D01*
X251674007Y-76890584D01*
X251778558Y-76743560D01*
X251876098Y-76591411D01*
X251966393Y-76434372D01*
X252049207Y-76272680D01*
X252124304Y-76106569D01*
X252191448Y-75936275D01*
X252250405Y-75762035D01*
X252300937Y-75584083D01*
X252342810Y-75402655D01*
X252375788Y-75217988D01*
X252399636Y-75030315D01*
X252414117Y-74839874D01*
X252418997Y-74646900D01*
D10*
X102225001Y-206996006D02*
X103821699Y-207117496D01*
X342168512Y-59965099D02*
X340707696Y-59470699D01*
X362757105Y-87882099D02*
X362635706Y-86285400D01*
X74989800Y-81642498D02*
X74638700Y-83163597D01*
X332976312Y-58097799D02*
X331358392Y-58056897D01*
D11*
X184309003Y-74626899D02*
X184313882Y-74819873D01*
X184328363Y-75010314D01*
X184352211Y-75197987D01*
X184385189Y-75382654D01*
X184427062Y-75564082D01*
X184477595Y-75742034D01*
X184536551Y-75916274D01*
X184603696Y-76086568D01*
X184678793Y-76252679D01*
X184761607Y-76414371D01*
X184851903Y-76571410D01*
X184949444Y-76723560D01*
X185053995Y-76870584D01*
X185165320Y-77012247D01*
X185283184Y-77148314D01*
X185407352Y-77278550D01*
X185537587Y-77402717D01*
X185673654Y-77520581D01*
X185815318Y-77631907D01*
X185962342Y-77736458D01*
X186114491Y-77833999D01*
X186271530Y-77924295D01*
X186433222Y-78007109D01*
X186599333Y-78082206D01*
X186769627Y-78149350D01*
X186943867Y-78208307D01*
X187121819Y-78258840D01*
X187303247Y-78300713D01*
X187487914Y-78333691D01*
X187675587Y-78357539D01*
X187866028Y-78372020D01*
X188059003Y-78376900D01*
D10*
X361808222Y-81642498D02*
X361384607Y-80150398D01*
X336146417Y-58419198D02*
X334573022Y-58219197D01*
X359003412Y-190702197D02*
X359697717Y-189346408D01*
X89136900Y-202605899D02*
X90453501Y-203362995D01*
X337694604Y-206519504D02*
X339215722Y-206168399D01*
X361808222Y-183572894D02*
X362159296Y-182051699D01*
X82167400Y-68359100D02*
X81179200Y-69500000D01*
X223399008Y-47056898D02*
X213399007Y-47056898D01*
X357428613Y-193294696D02*
X358246393Y-192018909D01*
X100651600Y-58419198D02*
X99103300Y-58695798D01*
X354630609Y-68359100D02*
X353589593Y-67266998D01*
D11*
X188059003Y-78376900D02*
X188251977Y-78372020D01*
X188442418Y-78357539D01*
X188630091Y-78333691D01*
X188814758Y-78300713D01*
X188996186Y-78258840D01*
X189174138Y-78208307D01*
X189348378Y-78149350D01*
X189518672Y-78082206D01*
X189684783Y-78007109D01*
X189846475Y-77924295D01*
X190003514Y-77833999D01*
X190155663Y-77736458D01*
X190302687Y-77631907D01*
X190444351Y-77520581D01*
X190580418Y-77402717D01*
X190710653Y-77278550D01*
X190834821Y-77148314D01*
X190952685Y-77012247D01*
X191064010Y-76870584D01*
X191168561Y-76723560D01*
X191266102Y-76571410D01*
X191356398Y-76414371D01*
X191439212Y-76252679D01*
X191514309Y-76086568D01*
X191581454Y-75916274D01*
X191640410Y-75742034D01*
X191690943Y-75564082D01*
X191732816Y-75382654D01*
X191765794Y-75197987D01*
X191789642Y-75010314D01*
X191804123Y-74819873D01*
X191809003Y-74626899D01*
D10*
X93201799Y-204687198D02*
X94629500Y-205250202D01*
X350169305Y-200911197D02*
X351357019Y-199977802D01*
X74362200Y-180503405D02*
X74638700Y-182051699D01*
X359697717Y-189346408D02*
X360327295Y-187953601D01*
X343596216Y-204687198D02*
X344988794Y-204057498D01*
X357428613Y-71920597D02*
X356552118Y-70687900D01*
X224399008Y-50111598D02*
X224399008Y-47056898D01*
D11*
X252418997Y-74646900D02*
X252414117Y-74453925D01*
X252399636Y-74263484D01*
X252375788Y-74075811D01*
X252342810Y-73891144D01*
X252300937Y-73709716D01*
X252250405Y-73531764D01*
X252191448Y-73357524D01*
X252124304Y-73187230D01*
X252049207Y-73021119D01*
X251966393Y-72859427D01*
X251876098Y-72702388D01*
X251778558Y-72550239D01*
X251674007Y-72403215D01*
X251562681Y-72261551D01*
X251444817Y-72125484D01*
X251320650Y-71995249D01*
X251190415Y-71871081D01*
X251054348Y-71753217D01*
X250912685Y-71641892D01*
X250765661Y-71537341D01*
X250613512Y-71439800D01*
X250456473Y-71349504D01*
X250294780Y-71266690D01*
X250128669Y-71191593D01*
X249958376Y-71124448D01*
X249784135Y-71065492D01*
X249606183Y-71014959D01*
X249424755Y-70973086D01*
X249240086Y-70940108D01*
X249052414Y-70916260D01*
X248861972Y-70901779D01*
X248668997Y-70896900D01*
D10*
X80245900Y-70687900D02*
X79369300Y-71920597D01*
X343596216Y-60528098D02*
X342168512Y-59965099D01*
X352497705Y-66225898D02*
X351357019Y-65237499D01*
D11*
X218138998Y-186676898D02*
X217946022Y-186681777D01*
X217755580Y-186696258D01*
X217567908Y-186720106D01*
X217383239Y-186753084D01*
X217201811Y-186794957D01*
X217023859Y-186845489D01*
X216849618Y-186904446D01*
X216679325Y-186971590D01*
X216513214Y-187046687D01*
X216351521Y-187129501D01*
X216194482Y-187219796D01*
X216042333Y-187317337D01*
X215895309Y-187421888D01*
X215753646Y-187533213D01*
X215617579Y-187651077D01*
X215487344Y-187775244D01*
X215363177Y-187905479D01*
X215245313Y-188041546D01*
X215133987Y-188183210D01*
X215029436Y-188330234D01*
X214931896Y-188482383D01*
X214841601Y-188639422D01*
X214758787Y-188801114D01*
X214683690Y-188967225D01*
X214616546Y-189137519D01*
X214557589Y-189311760D01*
X214507057Y-189489712D01*
X214465184Y-189671140D01*
X214432206Y-189855808D01*
X214408358Y-190043481D01*
X214393877Y-190233922D01*
X214388998Y-190426898D01*
D10*
X74638700Y-182051699D02*
X74989800Y-183572894D01*
X100651600Y-206796100D02*
X102225001Y-206996006D01*
D11*
X188059003Y-70876899D02*
X187866028Y-70881778D01*
X187675587Y-70896259D01*
X187487914Y-70920107D01*
X187303247Y-70953085D01*
X187121819Y-70994958D01*
X186943867Y-71045491D01*
X186769627Y-71104448D01*
X186599333Y-71171592D01*
X186433222Y-71246689D01*
X186271530Y-71329503D01*
X186114491Y-71419799D01*
X185962342Y-71517340D01*
X185815318Y-71621891D01*
X185673654Y-71733216D01*
X185537587Y-71851081D01*
X185407352Y-71975248D01*
X185283184Y-72105484D01*
X185165320Y-72241551D01*
X185053995Y-72383214D01*
X184949444Y-72530238D01*
X184851903Y-72682387D01*
X184761607Y-72839426D01*
X184678793Y-73001119D01*
X184603696Y-73167230D01*
X184536551Y-73337523D01*
X184477595Y-73511764D01*
X184427062Y-73689715D01*
X184385189Y-73871143D01*
X184352211Y-74055811D01*
X184328363Y-74243483D01*
X184313882Y-74433924D01*
X184309003Y-74626899D01*
D10*
X84300200Y-198989398D02*
X85441000Y-199977802D01*
X85441000Y-65237499D02*
X84300200Y-66225898D01*
X355618799Y-195715305D02*
X356552118Y-194527499D01*
X74000000Y-89500000D02*
X74000000Y-175715304D01*
X97582300Y-59046897D02*
X96090300Y-59470699D01*
X83208401Y-197948306D02*
X84300200Y-198989398D01*
X359003412Y-74513099D02*
X358246393Y-73196399D01*
X344988794Y-204057498D02*
X346344507Y-203362995D01*
X362757105Y-177333209D02*
X362797998Y-175715304D01*
X75413400Y-80150398D02*
X74989800Y-81642498D01*
X74040900Y-87882099D02*
X74000000Y-89500000D01*
D11*
X248668997Y-70896900D02*
X248476021Y-70901779D01*
X248285580Y-70916260D01*
X248097907Y-70940108D01*
X247913239Y-70973086D01*
X247731811Y-71014959D01*
X247553859Y-71065492D01*
X247379618Y-71124448D01*
X247209324Y-71191593D01*
X247043213Y-71266690D01*
X246881521Y-71349504D01*
X246724482Y-71439800D01*
X246572333Y-71537341D01*
X246425309Y-71641892D01*
X246283645Y-71753217D01*
X246147578Y-71871081D01*
X246017343Y-71995249D01*
X245893176Y-72125484D01*
X245775312Y-72261551D01*
X245663987Y-72403215D01*
X245559436Y-72550239D01*
X245461895Y-72702388D01*
X245371600Y-72859427D01*
X245288786Y-73021119D01*
X245213689Y-73187230D01*
X245146545Y-73357524D01*
X245087588Y-73531764D01*
X245037056Y-73709716D01*
X244995183Y-73891144D01*
X244962205Y-74075811D01*
X244938357Y-74263484D01*
X244923876Y-74453925D01*
X244918997Y-74646900D01*
D10*
X74638700Y-83163597D02*
X74362200Y-84711899D01*
X86628700Y-200911197D02*
X87861299Y-201787906D01*
X361384607Y-185064898D02*
X361808222Y-183572894D01*
X78551600Y-192018909D02*
X79369300Y-193294696D01*
D11*
X214388998Y-190426898D02*
X214393877Y-190619873D01*
X214408358Y-190810315D01*
X214432206Y-190997987D01*
X214465184Y-191182656D01*
X214507057Y-191364084D01*
X214557589Y-191542036D01*
X214616546Y-191716277D01*
X214683690Y-191886570D01*
X214758787Y-192052681D01*
X214841601Y-192214374D01*
X214931896Y-192371413D01*
X215029436Y-192523562D01*
X215133987Y-192670586D01*
X215245313Y-192812249D01*
X215363177Y-192948316D01*
X215487344Y-193078551D01*
X215617579Y-193202718D01*
X215753646Y-193320582D01*
X215895309Y-193431908D01*
X216042333Y-193536459D01*
X216194482Y-193633999D01*
X216351521Y-193724294D01*
X216513214Y-193807108D01*
X216679325Y-193882205D01*
X216849618Y-193949349D01*
X217023859Y-194008306D01*
X217201811Y-194058838D01*
X217383239Y-194100711D01*
X217567908Y-194133689D01*
X217755580Y-194157537D01*
X217946022Y-194172018D01*
X218138998Y-194176898D01*
D10*
X212399007Y-50111598D02*
X204453710Y-58056897D01*
X81179200Y-195715305D02*
X82167400Y-196856204D01*
X96090300Y-59470699D02*
X94629500Y-59965099D01*
X342168512Y-205250202D02*
X343596216Y-204687198D01*
X77100300Y-75868900D02*
X76470700Y-77261699D01*
X81179200Y-69500000D02*
X80245900Y-70687900D01*
X362635706Y-178929904D02*
X362757105Y-177333209D01*
X356552118Y-70687900D02*
X355618799Y-69500000D01*
X89136900Y-62609397D02*
X87861299Y-63427398D01*
X340707696Y-59470699D02*
X339215722Y-59046897D01*
X347661096Y-202605899D02*
X348936700Y-201787906D01*
X204453710Y-58056897D02*
X105439501Y-58056897D01*
X360890314Y-186525805D02*
X361384607Y-185064898D01*
X336146417Y-206796100D02*
X337694604Y-206519504D01*
X344988794Y-61157798D02*
X343596216Y-60528098D01*
X74000000Y-175715304D02*
X74040900Y-177333209D01*
X79369300Y-71920597D02*
X78551600Y-73196399D01*
X74162300Y-178929904D02*
X74362200Y-180503405D01*
X224399008Y-47056898D02*
X223399008Y-47056898D01*
X353589593Y-67266998D02*
X352497705Y-66225898D01*
X362435816Y-84711899D02*
X362159296Y-83163597D01*
X75907700Y-78689499D02*
X75413400Y-80150398D01*
M02*
