0
SECTION
2
HEADER
9
$INSUNITS
70
4
9
$ACADVER
1
AC1014
9
$HANDSEED
5
FFFF
0
ENDSEC
0
SECTION
2
TABLES
0
TABLE
2
VPORT
5
8
100
AcDbSymbolTable
0
ENDTAB
0
TABLE
2
LTYPE
5
5
100
AcDbSymbolTable
0
LTYPE
5
14
100
AcDbSymbolTableRecord
100
AcDbLinetypeTableRecord
2
BYBLOCK
70
0
0
LTYPE
5
15
100
AcDbSymbolTableRecord
100
AcDbLinetypeTableRecord
2
BYLAYER
70
0
0
ENDTAB
0
TABLE
2
LAYER
5
2
100
AcDbSymbolTable
70
2
0
LAYER
5
50
100
AcDbSymbolTableRecord
100
AcDbLayerTableRecord
2
0
70
0
6
CONTINUOUS
0
ENDTAB
0
TABLE
2
STYLE
5
3
100
AcDbSymbolTable
70
1
0
STYLE
5
11
100
AcDbSymbolTableRecord
100
AcDbTextStyleTableRecord
2
STANDARD
70
0
0
ENDTAB
0
TABLE
2
VIEW
5
6
100
AcDbSymbolTable
70
0
0
ENDTAB
0
TABLE
2
UCS
5
7
100
AcDbSymbolTable
70
0
0
ENDTAB
0
TABLE
2
APPID
5
9
100
AcDbSymbolTable
70
2
0
APPID
5
12
100
AcDbSymbolTableRecord
100
AcDbRegAppTableRecord
2
ACAD
70
0
0
ENDTAB
0
TABLE
2
DIMSTYLE
5
A
100
AcDbSymbolTable
70
1
0
ENDTAB
0
TABLE
2
BLOCK_RECORD
5
1
100
AcDbSymbolTable
70
1
0
BLOCK_RECORD
5
1F
100
AcDbSymbolTableRecord
100
AcDbBlockTableRecord
2
*MODEL_SPACE
0
BLOCK_RECORD
5
1B
100
AcDbSymbolTableRecord
100
AcDbBlockTableRecord
2
*PAPER_SPACE
0
ENDTAB
0
ENDSEC
0
SECTION
2
BLOCKS
0
BLOCK
5
20
100
AcDbEntity
100
AcDbBlockBegin
2
*MODEL_SPACE
0
ENDBLK
5
21
100
AcDbEntity
100
AcDbBlockEnd
0
BLOCK
5
1C
100
AcDbEntity
100
AcDbBlockBegin
2
*PAPER_SPACE
0
ENDBLK
5
1D
100
AcDbEntity
100
AcDbBlockEnd
0
ENDSEC
0
SECTION
2
ENTITIES
0
LWPOLYLINE
5
100
100
AcDbEntity
8
0
100
AcDbPolyline
90
24
70
1
43
0.0
10
68.061722026266523
20
201.38
42
0.41421356237309503
10
65.561722026266523
20
198.88
10
65.561722026266565
20
195.3330443044635
42
-0.41531660235808443
10
60.261703670975677
20
190.01303614247635
10
56.689999999999898
20
190.01303614247638
42
0.41421356237309503
10
54.189999999999898
20
187.51303614247638
10
54.189999999999898
20
60.12370133870693
42
0.41421356237309398
10
56.689999999999898
20
57.623701338706937
10
60.261904493405325
20
57.623701338706937
42
-0.41421356237309503
10
65.561999438523927
20
52.323606393588342
10
65.561999438523927
20
48.780000000000001
42
0.41421356237309503
10
68.061999438523927
20
46.280000000000001
10
335.14910075079422
20
46.280000000000001
42
0.41421356237309503
10
337.64910075079422
20
48.780000000000001
10
337.64910075079422
20
52.324627883006585
42
-0.41421356237309503
10
342.94932577529732
20
57.624852907509734
10
346.48999999999995
20
57.624852907509734
42
0.41421356237309503
10
348.98999999999995
20
60.124852907509734
10
348.98999999999995
20
187.51312847249795
42
0.41421356237309503
10
346.48999999999995
20
190.01312847249795
10
342.94845443648489
20
190.01312847249795
42
-0.41421356237309503
10
337.64865003557361
20
195.31293287340927
10
337.64865003557361
20
198.88
42
0.41421356237309503
10
335.14865003557361
20
201.38
0
CIRCLE
5
101
100
AcDbEntity
8
0
100
AcDbCircle
10
-231.90293493805211
20
65.848174597248729
30
0
40
5.3000008658978714
210
0
220
0
230
-1
0
CIRCLE
5
102
100
AcDbEntity
8
0
100
AcDbCircle
10
-171.30859392200085
20
65.848175143024946
30
0
40
5.3000003635797555
210
0
220
0
230
-1
0
CIRCLE
5
103
100
AcDbEntity
8
0
100
AcDbCircle
10
-201.38858201589449
20
181.62487586398487
30
0
40
5.2999999720822188
210
0
220
0
230
-1
0
SPLINE
5
104
100
AcDbEntity
8
0
100
AcDbSpline
70
4
71
3
72
8
73
4
74
0
42
0.000000001
43
0.0000000001
44
0.0000000001
40
0
40
0
40
0
40
0
40
1
40
1
40
1
40
1
41
1
41
1
41
1
41
1
10
257.59175562236021
20
132.24033582364135
30
0
10
254.72546602944612
20
133.9527619112805
30
0
10
251.39125976583969
20
134.81019919263866
30
0
10
247.59158904474793
20
134.81019919263866
30
0
0
SPLINE
5
105
100
AcDbEntity
8
0
100
AcDbSpline
70
4
71
3
72
8
73
4
74
0
42
0.000000001
43
0.0000000001
44
0.0000000001
40
0
40
0
40
0
40
0
40
1
40
1
40
1
40
1
41
1
41
1
41
1
41
1
10
247.59158904474793
20
134.81019919263866
30
0
10
244.18143519619213
20
134.81019919263866
30
0
10
241.15835722135489
20
134.11445098148778
30
0
10
238.52970428359748
20
132.72540303426319
30
0
0
SPLINE
5
106
100
AcDbEntity
8
0
100
AcDbSpline
70
4
71
3
72
8
73
4
74
0
42
0.000000001
43
0.0000000001
44
0.0000000001
40
0
40
0
40
0
40
0
40
1
40
1
40
1
40
1
41
1
41
1
41
1
41
1
10
238.52970428359748
20
132.72540303426319
30
0
10
235.89859913263308
20
131.33635508703858
30
0
10
233.83094977605722
20
129.3519987406435
30
0
10
232.32675621386994
20
126.77233773320782
30
0
0
SPLINE
5
107
100
AcDbEntity
8
0
100
AcDbSpline
70
4
71
3
72
8
73
4
74
0
42
0.000000001
43
0.0000000001
44
0.0000000001
40
0
40
0
40
0
40
0
40
1
40
1
40
1
40
1
41
1
41
1
41
1
41
1
10
232.32675621386994
20
126.77233773320782
30
0
10
230.82256265168269
20
124.19512520084929
30
0
10
230.07047334684884
20
121.14019835936004
30
0
10
230.07047334684884
20
117.60755720874009
30
0
0
LINE
5
108
100
AcDbEntity
8
0
100
AcDbLine
10
230.07047334684884
20
117.60755720874009
30
0
11
230.07047334684884
21
112.65401924424353
31
0
0
LINE
5
109
100
AcDbEntity
8
0
100
AcDbLine
10
230.07047334684884
20
112.65401924424353
30
0
11
246.80765087326208
21
112.65401924424353
31
0
0
LINE
5
110
100
AcDbEntity
8
0
100
AcDbLine
10
246.80765087326208
20
112.65401924424353
30
0
11
246.80765087326208
21
118.49439114354323
31
0
0
LINE
5
111
100
AcDbEntity
8
0
100
AcDbLine
10
246.80765087326208
20
118.49439114354323
30
0
11
237.30479388165725
21
118.49439114354324
31
0
0
SPLINE
5
112
100
AcDbEntity
8
0
100
AcDbSpline
70
4
71
3
72
8
73
4
74
0
42
0.000000001
43
0.0000000001
44
0.0000000001
40
0
40
0
40
0
40
0
40
1
40
1
40
1
40
1
41
1
41
1
41
1
41
1
10
237.30479388165725
20
118.49439114354324
30
0
10
237.33909496151628
20
120.3856531031893
30
0
10
237.7531077992131
20
122.03928214580856
30
0
10
238.55175177368125
20
123.46017895968517
30
0
0
SPLINE
5
113
100
AcDbEntity
8
0
100
AcDbSpline
70
4
71
3
72
8
73
4
74
0
42
0.000000001
43
0.0000000001
44
0.0000000001
40
0
40
0
40
0
40
0
40
1
40
1
40
1
40
1
41
1
41
1
41
1
41
1
10
238.55175177368125
20
123.46017895968517
30
0
10
239.38468935174859
20
124.94476976873591
30
0
10
240.57040172367556
20
126.08883563557245
30
0
10
242.10644415251483
20
126.89482877340185
30
0
0
SPLINE
5
114
100
AcDbEntity
8
0
100
AcDbSpline
70
4
71
3
72
8
73
4
74
0
42
0.000000001
43
0.0000000001
44
0.0000000001
40
0
40
0
40
0
40
0
40
1
40
1
40
1
40
1
41
1
41
1
41
1
41
1
10
242.10644415251483
20
126.89482877340185
30
0
10
243.6449313183013
20
127.70081817310135
30
0
10
245.46024943112786
20
128.10504084861955
30
0
10
247.55484322794172
20
128.10504084861955
30
0
0
SPLINE
5
115
100
AcDbEntity
8
0
100
AcDbSpline
70
4
71
3
72
8
73
4
74
0
42
0.000000001
43
0.0000000001
44
0.0000000001
40
0
40
0
40
0
40
0
40
1
40
1
40
1
40
1
41
1
41
1
41
1
41
1
10
247.55484322794172
20
128.10504084861955
30
0
10
249.86502245169856
20
128.10504084861955
30
0
10
251.89102530318399
20
127.54403352930809
30
0
10
253.63774873255232
20
126.42446362763241
30
0
0
SPLINE
5
116
100
AcDbEntity
8
0
100
AcDbSpline
70
4
71
3
72
8
73
4
74
0
42
0.000000001
43
0.0000000001
44
0.0000000001
40
0
40
0
40
0
40
0
40
1
40
1
40
1
40
1
41
1
41
1
41
1
41
1
10
253.63774873255232
20
126.42446362763241
30
0
10
255.38201994871358
20
125.3048937259567
30
0
10
256.74657193077729
20
123.66106605990569
30
0
10
257.72650025232952
20
121.50032231658085
30
0
0
SPLINE
5
117
100
AcDbEntity
8
0
100
AcDbSpline
70
4
71
3
72
8
73
4
74
0
42
0.000000001
43
0.0000000001
44
0.0000000001
40
0
40
0
40
0
40
0
40
1
40
1
40
1
40
1
41
1
41
1
41
1
41
1
10
257.72650025232952
20
121.50032231658085
30
0
10
258.70642857388162
20
119.33957857325598
30
0
10
259.19639273465771
20
116.69867391478824
30
0
10
259.19639273465771
20
113.58495189734406
30
0
0
SPLINE
5
118
100
AcDbEntity
8
0
100
AcDbSpline
70
4
71
3
72
8
73
4
74
0
42
0.000000001
43
0.0000000001
44
0.0000000001
40
0
40
0
40
0
40
0
40
1
40
1
40
1
40
1
41
1
41
1
41
1
41
1
10
259.19639273465771
20
113.58495189734406
30
0
10
259.19639273465771
20
110.47122987989987
30
0
10
258.70398009880449
20
107.87442020159965
30
0
10
257.71670261389113
20
105.71857714655891
30
0
0
SPLINE
5
119
100
AcDbEntity
8
0
100
AcDbSpline
70
4
71
3
72
8
73
4
74
0
42
0.000000001
43
0.0000000001
44
0.0000000001
40
0
40
0
40
0
40
0
40
1
40
1
40
1
40
1
41
1
41
1
41
1
41
1
10
257.71670261389113
20
105.71857714655891
30
0
10
256.72942512897771
20
103.56273409151818
30
0
10
255.36977383519809
20
101.92870406390554
30
0
10
253.63775247068219
20
100.81403578504646
30
0
0
SPLINE
5
120
100
AcDbEntity
8
0
100
AcDbSpline
70
4
71
3
72
8
73
4
74
0
42
0.000000001
43
0.0000000001
44
0.0000000001
40
0
40
0
40
0
40
0
40
1
40
1
40
1
40
1
41
1
41
1
41
1
41
1
10
253.63775247068219
20
100.81403578504646
30
0
10
251.90572736803642
20
99.699367506187357
30
0
10
249.93117239820958
20
99.143258071562613
30
0
10
247.71653229814893
20
99.143258071562613
30
0
0
SPLINE
5
121
100
AcDbEntity
8
0
100
AcDbSpline
70
4
71
3
72
8
73
4
74
0
42
0.000000001
43
0.0000000001
44
0.0000000001
40
0
40
0
40
0
40
0
40
1
40
1
40
1
40
1
41
1
41
1
41
1
41
1
10
247.71653229814893
20
99.143258071562613
30
0
10
246.48182051964051
20
99.143258071562613
30
0
10
245.34020312788107
20
99.300046453485763
30
0
10
244.29413233607767
20
99.616073561474124
30
0
0
SPLINE
5
122
100
AcDbEntity
8
0
100
AcDbSpline
70
4
71
3
72
8
73
4
74
0
42
0.000000001
43
0.0000000001
44
0.0000000001
40
0
40
0
40
0
40
0
40
1
40
1
40
1
40
1
41
1
41
1
41
1
41
1
10
244.29413233607767
20
99.616073561474124
30
0
10
243.24806154427424
20
99.9321006694625
30
0
10
242.31712515304383
20
100.39756606148029
30
0
10
241.5037828518532
20
101.01492101620207
30
0
0
SPLINE
5
123
100
AcDbEntity
8
0
100
AcDbSpline
70
4
71
3
72
8
73
4
74
0
42
0.000000001
43
0.0000000001
44
0.0000000001
40
0
40
0
40
0
40
0
40
1
40
1
40
1
40
1
41
1
41
1
41
1
41
1
10
241.5037828518532
20
101.01492101620207
30
0
10
240.69289276386957
20
101.6322759709238
30
0
10
239.99469233951172
20
102.37457137544919
30
0
10
239.40918905503935
20
103.24180816431064
30
0
0
SPLINE
5
124
100
AcDbEntity
8
0
100
AcDbSpline
70
4
71
3
72
8
73
4
74
0
42
0.000000001
43
0.0000000001
44
0.0000000001
40
0
40
0
40
0
40
0
40
1
40
1
40
1
40
1
41
1
41
1
41
1
41
1
10
239.40918905503935
20
103.24180816431064
30
0
10
238.82368577056701
20
104.10904495317209
30
0
10
238.36556300018319
20
105.08407258644012
30
0
10
238.02993874625315
20
106.17179362146379
30
0
0
LINE
5
125
100
AcDbEntity
8
0
100
AcDbLine
10
238.02993874625318
20
106.17179362146379
30
0
11
230.41589897734718
21
106.17179362146379
31
0
0
SPLINE
5
126
100
AcDbEntity
8
0
100
AcDbSpline
70
4
71
3
72
8
73
4
74
0
42
0.000000001
43
0.0000000001
44
0.0000000001
40
0
40
0
40
0
40
0
40
1
40
1
40
1
40
1
41
1
41
1
41
1
41
1
10
230.41589897734718
20
106.17179362146379
30
0
10
230.72457879103922
20
104.14579263904328
30
0
10
231.37623202202258
20
102.29127649620347
30
0
10
232.36840645709023
20
100.61314961935838
30
0
0
SPLINE
5
127
100
AcDbEntity
8
0
100
AcDbSpline
70
4
71
3
72
8
73
4
74
0
42
0.000000001
43
0.0000000001
44
0.0000000001
40
0
40
0
40
0
40
0
40
1
40
1
40
1
40
1
41
1
41
1
41
1
41
1
10
232.36840645709023
20
100.61314961935838
30
0
10
233.36058089215788
20
98.935022742513311
30
0
10
234.62714153731835
20
97.484728340659217
30
0
10
236.16562870310486
20
96.262267348328621
30
0
0
SPLINE
5
128
100
AcDbEntity
8
0
100
AcDbSpline
70
4
71
3
72
8
73
4
74
0
42
0.000000001
43
0.0000000001
44
0.0000000001
40
0
40
0
40
0
40
0
40
1
40
1
40
1
40
1
41
1
41
1
41
1
41
1
10
236.16562870310486
20
96.262267348328621
30
0
10
237.70411586889136
20
95.03980635599801
30
0
10
239.45818846162086
20
94.09662572031705
30
0
10
241.4327434314477
20
93.43272450675326
30
0
0
SPLINE
5
129
100
AcDbEntity
8
0
100
AcDbSpline
70
4
71
3
72
8
73
4
74
0
42
0.000000001
43
0.0000000001
44
0.0000000001
40
0
40
0
40
0
40
0
40
1
40
1
40
1
40
1
41
1
41
1
41
1
41
1
10
241.4327434314477
20
93.43272450675326
30
0
10
243.40729840127452
20
92.768823293189456
30
0
10
245.53619327794738
20
92.435647514336523
30
0
10
247.81697584825923
20
92.435647514336523
30
0
0
SPLINE
5
130
100
AcDbEntity
8
0
100
AcDbSpline
70
4
71
3
72
8
73
4
74
0
42
0.000000001
43
0.0000000001
44
0.0000000001
40
0
40
0
40
0
40
0
40
1
40
1
40
1
40
1
41
1
41
1
41
1
41
1
10
247.81697584825923
20
92.435647514336523
30
0
10
250.51667942081181
20
92.435647514336523
30
0
10
253.01304367993683
20
92.915812167609289
30
0
10
255.30852831510111
20
93.876142408687286
30
0
0
SPLINE
5
131
100
AcDbEntity
8
0
100
AcDbSpline
70
4
71
3
72
8
73
4
74
0
42
0.000000001
43
0.0000000001
44
0.0000000001
40
0
40
0
40
0
40
0
40
1
40
1
40
1
40
1
41
1
41
1
41
1
41
1
10
255.30852831510111
20
93.876142408687286
30
0
10
257.60400921213545
20
94.836471715232818
30
0
10
259.60551236033018
20
96.23286976035115
30
0
10
261.31058928460806
20
98.065335609509788
30
0
0
SPLINE
5
132
100
AcDbEntity
8
0
100
AcDbSpline
70
4
71
3
72
8
73
4
74
0
42
0.000000001
43
0.0000000001
44
0.0000000001
40
0
40
0
40
0
40
0
40
1
40
1
40
1
40
1
41
1
41
1
41
1
41
1
10
261.31058928460806
20
98.065335609509788
30
0
10
263.01566620888599
20
99.897801458668425
30
0
10
264.34101642280655
20
102.12468860677701
30
0
10
265.28664740262957
20
104.74354764422593
30
0
0
SPLINE
5
133
100
AcDbEntity
8
0
100
AcDbSpline
70
4
71
3
72
8
73
4
74
0
42
0.000000001
43
0.0000000001
44
0.0000000001
40
0
40
0
40
0
40
0
40
1
40
1
40
1
40
1
41
1
41
1
41
1
41
1
10
265.28664740262957
20
104.74354764422593
30
0
10
266.23227838245259
20
107.36240668167486
30
0
10
266.70754421650622
20
110.33648898806047
30
0
10
266.70754421650622
20
113.66579456338275
30
0
0
SPLINE
5
134
100
AcDbEntity
8
0
100
AcDbSpline
70
4
71
3
72
8
73
4
74
0
42
0.000000001
43
0.0000000001
44
0.0000000001
40
0
40
0
40
0
40
0
40
1
40
1
40
1
40
1
41
1
41
1
41
1
41
1
10
266.70754421650622
20
113.66579456338275
30
0
10
266.70754421650622
20
118.01667683441252
30
0
10
265.90645176696091
20
121.77225257533676
30
0
10
264.3018221309232
20
124.93496839216763
30
0
0
SPLINE
5
135
100
AcDbEntity
8
0
100
AcDbSpline
70
4
71
3
72
8
73
4
74
0
42
0.000000001
43
0.0000000001
44
0.0000000001
40
0
40
0
40
0
40
0
40
1
40
1
40
1
40
1
41
1
41
1
41
1
41
1
10
264.3018221309232
20
124.93496839216763
30
0
10
262.69719249488548
20
128.09768420899854
30
0
10
260.46295337981815
20
130.53525889936344
30
0
10
257.59421157369707
20
132.24523277379558
30
0
0
LINE
5
136
100
AcDbEntity
8
0
100
AcDbLine
10
257.59421157369707
20
132.24523277379558
30
0
11
257.59175562236021
21
132.24033582364135
31
0
0
LINE
5
137
100
AcDbEntity
8
0
100
AcDbLine
10
215.36419188394544
20
119.13869521116536
30
0
11
207.75994601534794
21
119.13869521116536
31
0
0
LINE
5
138
100
AcDbEntity
8
0
100
AcDbLine
10
207.75994601534794
20
119.13869521116536
30
0
11
199.65348987245889
21
134.24429118504307
31
0
0
LINE
5
139
100
AcDbEntity
8
0
100
AcDbLine
10
199.65348987245889
20
134.24429118504307
30
0
11
191.31429776269727
21
134.24429118504307
31
0
0
LINE
5
140
100
AcDbEntity
8
0
100
AcDbLine
10
191.31429776269727
20
134.24429118504307
30
0
11
200.2389931569312
21
117.90643564586391
31
0
0
SPLINE
5
141
100
AcDbEntity
8
0
100
AcDbSpline
70
4
71
3
72
8
73
4
74
0
42
0.000000001
43
0.0000000001
44
0.0000000001
40
0
40
0
40
0
40
0
40
1
40
1
40
1
40
1
41
1
41
1
41
1
41
1
10
200.2389931569312
20
117.90643564586389
30
0
10
199.9695113732524
20
117.79619445731527
30
0
10
199.70493401598762
20
117.68105258048249
30
0
10
199.45015055903133
20
117.55611306521135
30
0
0
SPLINE
5
142
100
AcDbEntity
8
0
100
AcDbSpline
70
4
71
3
72
8
73
4
74
0
42
0.000000001
43
0.0000000001
44
0.0000000001
40
0
40
0
40
0
40
0
40
1
40
1
40
1
40
1
41
1
41
1
41
1
41
1
10
199.45015055903133
20
117.55611306521135
30
0
10
197.274708488984
20
116.5026893719168
30
0
10
195.62598387277873
20
115.00584871122069
30
0
10
194.50641397110303
20
113.065591083123
30
0
0
SPLINE
5
143
100
AcDbEntity
8
0
100
AcDbSpline
70
4
71
3
72
8
73
4
74
0
42
0.000000001
43
0.0000000001
44
0.0000000001
40
0
40
0
40
0
40
0
40
1
40
1
40
1
40
1
41
1
41
1
41
1
41
1
10
194.50641397110303
20
113.065591083123
30
0
10
193.38684406942733
20
111.1253334550253
30
0
10
192.82584048824575
20
108.83230103306803
30
0
10
192.82584048824575
20
106.18649381725123
30
0
0
SPLINE
5
144
100
AcDbEntity
8
0
100
AcDbSpline
70
4
71
3
72
8
73
4
74
0
42
0.000000001
43
0.0000000001
44
0.0000000001
40
0
40
0
40
0
40
0
40
1
40
1
40
1
40
1
41
1
41
1
41
1
41
1
10
192.82584048824575
20
106.18649381725123
30
0
10
192.82584048824575
20
103.54068660143443
30
0
10
193.37950238232588
20
101.24765511400966
30
0
10
194.48927090743328
20
99.26820039043119
30
0
0
SPLINE
5
145
100
AcDbEntity
8
0
100
AcDbSpline
70
4
71
3
72
8
73
4
74
0
42
0.000000001
43
0.0000000001
44
0.0000000001
40
0
40
0
40
0
40
0
40
1
40
1
40
1
40
1
41
1
41
1
41
1
41
1
10
194.48927090743328
20
99.26820039043119
30
0
10
195.59658721933371
20
97.286295322710643
30
0
10
197.22816877186921
20
95.747808156924137
30
0
10
199.38401556503982
20
94.645387860645499
30
0
0
SPLINE
5
146
100
AcDbEntity
8
0
100
AcDbSpline
70
4
71
3
72
8
73
4
74
0
42
0.000000001
43
0.0000000001
44
0.0000000001
40
0
40
0
40
0
40
0
40
1
40
1
40
1
40
1
41
1
41
1
41
1
41
1
10
199.38401556503982
20
94.645387860645499
30
0
10
201.5398548819507
20
93.542968498899313
30
0
10
204.20036416261985
20
92.994208694902056
30
0
10
207.37043288094191
20
92.994208694902056
30
0
0
LINE
5
147
100
AcDbEntity
8
0
100
AcDbLine
10
207.37043288094191
20
92.994208694902056
30
0
11
222.83860502524746
21
92.994208694902056
31
0
0
LINE
5
148
100
AcDbEntity
8
0
100
AcDbLine
10
222.83860502524746
20
92.994208694902056
30
0
11
222.83860502524743
21
134.24429118504307
31
0
0
LINE
5
149
100
AcDbEntity
8
0
100
AcDbLine
10
222.83860502524743
20
134.24429118504307
30
0
11
215.36665157341221
21
134.24429118504304
31
0
0
LINE
5
150
100
AcDbEntity
8
0
100
AcDbLine
10
215.36665157341221
20
134.24429118504304
30
0
11
215.36665157341221
21
119.13869521116536
31
0
0
LINE
5
151
100
AcDbEntity
8
0
100
AcDbLine
10
215.36665157341221
20
119.13869521116536
30
0
11
215.36419188394544
21
119.13869521116536
31
0
0
SPLINE
5
152
100
AcDbEntity
8
0
100
AcDbSpline
70
4
71
3
72
8
73
4
74
0
42
0.000000001
43
0.0000000001
44
0.0000000001
40
0
40
0
40
0
40
0
40
1
40
1
40
1
40
1
41
1
41
1
41
1
41
1
10
208.51449500964858
20
99.238799998856294
30
0
10
206.64773275329327
20
99.238799998856294
30
0
10
205.1239439142293
20
99.510730257612209
30
0
10
203.94312849245659
20
100.05459077512405
30
0
0
SPLINE
5
153
100
AcDbEntity
8
0
100
AcDbSpline
70
4
71
3
72
8
73
4
74
0
42
0.000000001
43
0.0000000001
44
0.0000000001
40
0
40
0
40
0
40
0
40
1
40
1
40
1
40
1
41
1
41
1
41
1
41
1
10
203.94312849245659
20
100.05459077512405
30
0
10
202.76231307068386
20
100.5984512926359
30
0
10
201.88282829924196
20
101.38974330014535
30
0
10
201.30467417813091
20
102.43091620726206
30
0
0
SPLINE
5
154
100
AcDbEntity
8
0
100
AcDbSpline
70
4
71
3
72
8
73
4
74
0
42
0.000000001
43
0.0000000001
44
0.0000000001
40
0
40
0
40
0
40
0
40
1
40
1
40
1
40
1
41
1
41
1
41
1
41
1
10
201.30467417813091
20
102.43091620726206
30
0
10
200.72652005701983
20
103.4720881798463
30
0
10
200.43743552020453
20
104.72394862921931
30
0
10
200.43743552020453
20
106.1864919481863
30
0
0
SPLINE
5
155
100
AcDbEntity
8
0
100
AcDbSpline
70
4
71
3
72
8
73
4
74
0
42
0.000000001
43
0.0000000001
44
0.0000000001
40
0
40
0
40
0
40
0
40
1
40
1
40
1
40
1
41
1
41
1
41
1
41
1
10
200.43743552020453
20
106.1864919481863
30
0
10
200.43743552020453
20
107.64903526715329
30
0
10
200.72161563060581
20
108.88129483245473
30
0
10
201.29487280156266
20
109.88327251315559
30
0
0
SPLINE
5
156
100
AcDbEntity
8
0
100
AcDbSpline
70
4
71
3
72
8
73
4
74
0
42
0.000000001
43
0.0000000001
44
0.0000000001
40
0
40
0
40
0
40
0
40
1
40
1
40
1
40
1
41
1
41
1
41
1
41
1
10
201.29487280156266
20
109.88327251315559
30
0
10
201.86812997251948
20
110.88525019385644
30
0
10
202.74271779380712
20
111.64224392510432
30
0
10
203.92353321557982
20
112.15915626424828
30
0
0
SPLINE
5
157
100
AcDbEntity
8
0
100
AcDbSpline
70
4
71
3
72
8
73
4
74
0
42
0.000000001
43
0.0000000001
44
0.0000000001
40
0
40
0
40
0
40
0
40
1
40
1
40
1
40
1
41
1
41
1
41
1
41
1
10
203.92353321557982
20
112.15915626424828
30
0
10
205.10679337429977
20
112.67606860339222
30
0
10
206.62323305000251
20
112.93330053542564
30
0
10
208.47529697963529
20
112.93330053542564
30
0
0
LINE
5
158
100
AcDbEntity
8
0
100
AcDbLine
10
208.47529697963529
20
112.93330053542563
30
0
11
215.36419188394544
21
112.93330053542564
31
0
0
LINE
5
159
100
AcDbEntity
8
0
100
AcDbLine
10
215.36419188394544
20
112.93330053542564
30
0
11
215.36419188394544
21
99.238801867921239
31
0
0
LINE
5
160
100
AcDbEntity
8
0
100
AcDbLine
10
215.36419188394544
20
99.238801867921239
30
0
11
208.51449500964858
21
99.238799998856294
31
0
0
LWPOLYLINE
5
161
100
AcDbEntity
8
0
100
AcDbPolyline
90
9
70
1
43
0.0
10
177.23028035359198
20
124.0750826357324
10
161.72291765553297
20
124.0750826357324
10
158.3054146436159
20
134.24673966012017
10
150.32879870428212
20
134.2467396601202
10
164.87093140751145
20
92.99665576818046
10
174.09451271512896
20
92.99665576818046
10
188.6170501414816
20
134.2467396601202
10
180.64042672588801
20
134.2467396601202
10
177.22782814038496
20
124.07508263573241
0
LWPOLYLINE
5
162
100
AcDbEntity
8
0
100
AcDbPolyline
90
4
70
1
43
0.0
10
169.64562976187125
20
101.4558867049291
10
169.32470383466369
20
101.4558867049291
10
163.74156760552728
20
118.07057319114831
10
175.21897209069914
20
118.0705731911483
0
LWPOLYLINE
5
163
100
AcDbEntity
8
0
100
AcDbPolyline
90
16
70
1
43
0.0
10
137.72202264181595
20
105.84596737978512
10
137.33740077560671
20
105.84596737978512
10
125.93838457515119
20
134.12424891897655
10
120.58062647706477
20
134.12424891897655
10
109.17916045580542
20
105.90721289988213
10
108.79698841040005
20
105.90721289988213
10
108.79698841040003
20
134.24673995917058
10
101.62636291744212
20
134.24673995917058
10
101.62636291744214
20
92.996657263432425
10
110.77154397832768
20
92.996657263432425
10
123.01819817692581
20
122.88692089157718
10
123.50081287529021
20
122.88692089157718
10
135.74746707388829
20
92.996657263432425
10
144.89264813477382
20
92.996657263432425
10
144.89264813477382
20
134.24673995917058
10
137.72202264181593
20
134.24673995917058
0
SPLINE
5
164
100
AcDbEntity
8
0
100
AcDbSpline
70
4
71
3
72
8
73
4
74
0
42
0.000000001
43
0.0000000001
44
0.0000000001
40
0
40
0
40
0
40
0
40
1
40
1
40
1
40
1
41
1
41
1
41
1
41
1
10
254.84795706964013
20
140.75836380540986
30
0
10
256.0091734764062
20
140.09936141106525
30
0
10
257.39822142363079
20
139.77108632049647
30
0
10
259.01510091131394
20
139.77108632049647
30
0
0
LINE
5
165
100
AcDbEntity
8
0
100
AcDbLine
10
259.01510091131394
20
139.77108632049647
30
0
11
264.5271977200448
21
139.77108632049647
31
0
0
LINE
5
166
100
AcDbEntity
8
0
100
AcDbLine
10
264.5271977200448
20
139.77108632049647
30
0
11
264.5271977200448
21
156.27553161816704
31
0
0
LINE
5
167
100
AcDbEntity
8
0
100
AcDbLine
10
264.5271977200448
20
156.27553161816704
30
0
11
259.18413914488247
21
156.27553161816704
31
0
0
SPLINE
5
168
100
AcDbEntity
8
0
100
AcDbSpline
70
4
71
3
72
8
73
4
74
0
42
0.000000001
43
0.0000000001
44
0.0000000001
40
0
40
0
40
0
40
0
40
1
40
1
40
1
40
1
41
1
41
1
41
1
41
1
10
259.18413914488247
20
156.27553161816704
30
0
10
257.50846261217941
20
156.27553161816704
30
0
10
256.08021663494156
20
155.94235957744399
30
0
10
254.89695273809176
20
155.28090496989236
30
0
0
SPLINE
5
169
100
AcDbEntity
8
0
100
AcDbSpline
70
4
71
3
72
8
73
4
74
0
42
0.000000001
43
0.0000000001
44
0.0000000001
40
0
40
0
40
0
40
0
40
1
40
1
40
1
40
1
41
1
41
1
41
1
41
1
10
254.89695273809176
20
155.28090496989236
30
0
10
253.71368884124195
20
154.61945036234073
30
0
10
252.80970436650929
20
153.66647395728634
30
0
10
252.18500305202369
20
152.43176217877789
30
0
0
SPLINE
5
170
100
AcDbEntity
8
0
100
AcDbSpline
70
4
71
3
72
8
73
4
74
0
42
0.000000001
43
0.0000000001
44
0.0000000001
40
0
40
0
40
0
40
0
40
1
40
1
40
1
40
1
41
1
41
1
41
1
41
1
10
252.18500305202369
20
152.43176217877789
30
0
10
251.56030173753811
20
151.19705040026943
30
0
10
251.24672123556192
20
149.71736401763269
30
0
10
251.24672123556192
20
148.00003724170944
30
0
0
SPLINE
5
171
100
AcDbEntity
8
0
100
AcDbSpline
70
4
71
3
72
8
73
4
74
0
42
0.000000001
43
0.0000000001
44
0.0000000001
40
0
40
0
40
0
40
0
40
1
40
1
40
1
40
1
41
1
41
1
41
1
41
1
10
251.24672123556192
20
148.00003724170944
30
0
10
251.24672123556192
20
146.28271046578615
30
0
10
251.55784952433109
20
144.8152701966649
30
0
10
252.17765388866243
20
143.58791131964756
30
0
0
SPLINE
5
172
100
AcDbEntity
8
0
100
AcDbSpline
70
4
71
3
72
8
73
4
74
0
42
0.000000001
43
0.0000000001
44
0.0000000001
40
0
40
0
40
0
40
0
40
1
40
1
40
1
40
1
41
1
41
1
41
1
41
1
10
252.17765388866243
20
143.58791131964756
30
0
10
252.79745825299381
20
142.36055244263025
30
0
10
253.68674440100395
20
141.41736993788436
30
0
10
254.85040928284715
20
140.75836754353975
30
0
0
LINE
5
173
100
AcDbEntity
8
0
100
AcDbLine
10
254.85040928284718
20
140.75836754353975
30
0
11
254.84795706964013
21
140.75836380540986
31
0
0
SPLINE
5
174
100
AcDbEntity
8
0
100
AcDbSpline
70
4
71
3
72
8
73
4
74
0
42
0.000000001
43
0.0000000001
44
0.0000000001
40
0
40
0
40
0
40
0
40
1
40
1
40
1
40
1
41
1
41
1
41
1
41
1
10
254.31634640377368
20
151.31464449030921
30
0
10
254.73036671773025
20
152.21862896504186
30
0
10
255.35261955713872
20
152.90948022603848
30
0
10
256.18556087333599
20
153.38474606009208
30
0
0
SPLINE
5
175
100
AcDbEntity
8
0
100
AcDbSpline
70
4
71
3
72
8
73
4
74
0
42
0.000000001
43
0.0000000001
44
0.0000000001
40
0
40
0
40
0
40
0
40
1
40
1
40
1
40
1
41
1
41
1
41
1
41
1
10
256.18556087333599
20
153.38474606009208
30
0
10
257.01849845140339
20
153.86001189414566
30
0
10
258.06457298133665
20
154.09764481117242
30
0
10
259.31888003672185
20
154.09764481117242
30
0
0
LINE
5
176
100
AcDbEntity
8
0
100
AcDbLine
10
259.31888003672179
20
154.09764481117242
30
0
11
262.03573041107404
21
154.09764481117242
31
0
0
LINE
5
177
100
AcDbEntity
8
0
100
AcDbLine
10
262.03573041107404
20
154.09764481117242
30
0
11
262.03573041107404
21
141.94408365359658
31
0
0
LINE
5
178
100
AcDbEntity
8
0
100
AcDbLine
10
262.03573041107404
20
141.94408365359658
30
0
11
259.16698860495296
21
141.94408365359658
31
0
0
SPLINE
5
179
100
AcDbEntity
8
0
100
AcDbSpline
70
4
71
3
72
8
73
4
74
0
42
0.000000001
43
0.0000000001
44
0.0000000001
40
0
40
0
40
0
40
0
40
1
40
1
40
1
40
1
41
1
41
1
41
1
41
1
10
259.16698860495296
20
141.94408365359658
30
0
10
257.96412569309649
20
141.94408365359658
30
0
10
256.95724919317644
20
142.17681588233921
30
0
10
256.14391063011573
20
142.64473255303156
30
0
0
SPLINE
5
180
100
AcDbEntity
8
0
100
AcDbSpline
70
4
71
3
72
8
73
4
74
0
42
0.000000001
43
0.0000000001
44
0.0000000001
40
0
40
0
40
0
40
0
40
1
40
1
40
1
40
1
41
1
41
1
41
1
41
1
10
256.14391063011573
20
142.64473255303156
30
0
10
255.33302054213209
20
143.11264922372391
30
0
10
254.72301381623907
20
143.79859979643638
30
0
10
254.31144571548955
20
144.70013205796204
30
0
0
SPLINE
5
181
100
AcDbEntity
8
0
100
AcDbSpline
70
4
71
3
72
8
73
4
74
0
42
0.000000001
43
0.0000000001
44
0.0000000001
40
0
40
0
40
0
40
0
40
1
40
1
40
1
40
1
41
1
41
1
41
1
41
1
10
254.31144571548955
20
144.70013205796204
30
0
10
253.89987761473998
20
145.60166431948767
30
0
10
253.69408982623531
20
146.70163520615671
30
0
10
253.69408982623531
20
147.9975925047622
30
0
0
SPLINE
5
182
100
AcDbEntity
8
0
100
AcDbSpline
70
4
71
3
72
8
73
4
74
0
42
0.000000001
43
0.0000000001
44
0.0000000001
40
0
40
0
40
0
40
0
40
1
40
1
40
1
40
1
41
1
41
1
41
1
41
1
10
253.69408982623531
20
147.9975925047622
30
0
10
253.69408982623531
20
149.29354980336765
30
0
10
253.89987387661009
20
150.40821527862934
30
0
10
254.31389419056666
20
151.31219975336197
30
0
0
LINE
5
183
100
AcDbEntity
8
0
100
AcDbLine
10
254.31389419056666
20
151.31219975336197
30
0
11
254.31634640377368
21
151.31464449030921
31
0
0
LWPOLYLINE
5
184
100
AcDbEntity
8
0
100
AcDbPolyline
90
4
70
1
43
0.0
10
249.59308965101431
20
143.89903392645934
10
247.18491580079987
20
143.89903392645934
10
247.1849158007999
20
156.27552862766311
10
249.59308965101434
20
156.27552862766311
0
SPLINE
5
185
100
AcDbEntity
8
0
100
AcDbSpline
70
4
71
3
72
8
73
4
74
0
42
0.000000001
43
0.0000000001
44
0.0000000001
40
0
40
0
40
0
40
0
40
1
40
1
40
1
40
1
41
1
41
1
41
1
41
1
10
248.37552721623382
20
139.11208392615183
30
0
10
248.79444448034462
20
139.11208392615183
30
0
10
249.15456843756544
20
139.25417398135249
30
0
10
249.45100213774199
20
139.53590187854678
30
0
0
SPLINE
5
186
100
AcDbEntity
8
0
100
AcDbSpline
70
4
71
3
72
8
73
4
74
0
42
0.000000001
43
0.0000000001
44
0.0000000001
40
0
40
0
40
0
40
0
40
1
40
1
40
1
40
1
41
1
41
1
41
1
41
1
10
249.45100213774199
20
139.53590187854678
30
0
10
249.74988057486581
20
139.81762977574107
30
0
10
249.89931605529785
20
140.15815471795526
30
0
10
249.89931605529785
20
140.55502823011221
30
0
0
SPLINE
5
187
100
AcDbEntity
8
0
100
AcDbSpline
70
4
71
3
72
8
73
4
74
0
42
0.000000001
43
0.0000000001
44
0.0000000001
40
0
40
0
40
0
40
0
40
1
40
1
40
1
40
1
41
1
41
1
41
1
41
1
10
249.89931605529785
20
140.55502823011221
30
0
10
249.89931605529785
20
140.95190174226914
30
0
10
249.74988057486581
20
141.28507378299219
30
0
10
249.45100213774199
20
141.56680541831636
30
0
0
SPLINE
5
188
100
AcDbEntity
8
0
100
AcDbSpline
70
4
71
3
72
8
73
4
74
0
42
0.000000001
43
0.0000000001
44
0.0000000001
40
0
40
0
40
0
40
0
40
1
40
1
40
1
40
1
41
1
41
1
41
1
41
1
10
249.45100213774199
20
141.56680541831636
30
0
10
249.1521237006182
20
141.84853705364054
30
0
10
248.79445195660438
20
141.99062337071129
30
0
10
248.37552721623382
20
141.99062337071129
30
0
0
SPLINE
5
189
100
AcDbEntity
8
0
100
AcDbSpline
70
4
71
3
72
8
73
4
74
0
42
0.000000001
43
0.0000000001
44
0.0000000001
40
0
40
0
40
0
40
0
40
1
40
1
40
1
40
1
41
1
41
1
41
1
41
1
10
248.37552721623382
20
141.99062337071129
30
0
10
247.95660247586324
20
141.99062337071129
30
0
10
247.5964859949022
20
141.84853331551065
30
0
10
247.30005229472562
20
141.56680541831636
30
0
0
SPLINE
5
190
100
AcDbEntity
8
0
100
AcDbSpline
70
4
71
3
72
8
73
4
74
0
42
0.000000001
43
0.0000000001
44
0.0000000001
40
0
40
0
40
0
40
0
40
1
40
1
40
1
40
1
41
1
41
1
41
1
41
1
10
247.30005229472562
20
141.56680541831636
30
0
10
247.00117385760183
20
141.28507752112208
30
0
10
246.8517383771698
20
140.94455257890789
30
0
10
246.8517383771698
20
140.54767906675096
30
0
0
SPLINE
5
191
100
AcDbEntity
8
0
100
AcDbSpline
70
4
71
3
72
8
73
4
74
0
42
0.000000001
43
0.0000000001
44
0.0000000001
40
0
40
0
40
0
40
0
40
1
40
1
40
1
40
1
41
1
41
1
41
1
41
1
10
246.8517383771698
20
140.54767906675096
30
0
10
246.8517383771698
20
140.150805554594
30
0
10
247.00117385760183
20
139.81763351387093
30
0
10
247.30005229472562
20
139.53590187854678
30
0
0
SPLINE
5
192
100
AcDbEntity
8
0
100
AcDbSpline
70
4
71
3
72
8
73
4
74
0
42
0.000000001
43
0.0000000001
44
0.0000000001
40
0
40
0
40
0
40
0
40
1
40
1
40
1
40
1
41
1
41
1
41
1
41
1
10
247.30005229472562
20
139.53590187854678
30
0
10
247.59893073184941
20
139.25417398135249
30
0
10
247.95660247586324
20
139.11208392615183
30
0
10
248.37552721623382
20
139.11208392615183
30
0
0
LINE
5
193
100
AcDbEntity
8
0
100
AcDbLine
10
236.77807642781517
20
145.9054359686358
30
0
11
236.95446382474495
21
145.9054359686358
31
0
0
SPLINE
5
194
100
AcDbEntity
8
0
100
AcDbSpline
70
4
71
3
72
8
73
4
74
0
42
0.000000001
43
0.0000000001
44
0.0000000001
40
0
40
0
40
0
40
0
40
1
40
1
40
1
40
1
41
1
41
1
41
1
41
1
10
236.95446382474498
20
145.9054359686358
30
0
10
237.09900235502275
20
145.64820403660238
30
0
10
237.30478640539752
20
145.34932559947859
30
0
10
237.5718159758693
20
145.01125287047142
30
0
0
SPLINE
5
195
100
AcDbEntity
8
0
100
AcDbSpline
70
4
71
3
72
8
73
4
74
0
42
0.000000001
43
0.0000000001
44
0.0000000001
40
0
40
0
40
0
40
0
40
1
40
1
40
1
40
1
41
1
41
1
41
1
41
1
10
237.5718159758693
20
145.01125287047142
30
0
10
237.83639333313408
20
144.67317640333437
30
0
10
238.20631866692315
20
144.37675017941757
30
0
10
238.68158450097673
20
144.12196672246128
30
0
0
SPLINE
5
196
100
AcDbEntity
8
0
100
AcDbSpline
70
4
71
3
72
8
73
4
74
0
42
0.000000001
43
0.0000000001
44
0.0000000001
40
0
40
0
40
0
40
0
40
1
40
1
40
1
40
1
41
1
41
1
41
1
41
1
10
238.68158450097673
20
144.12196672246128
30
0
10
239.15439812182328
20
143.86718700363485
30
0
10
239.77665469936167
20
143.73979527515672
30
0
10
240.54344980717781
20
143.73979527515672
30
0
0
SPLINE
5
197
100
AcDbEntity
8
0
100
AcDbSpline
70
4
71
3
72
8
73
4
74
0
42
0.000000001
43
0.0000000001
44
0.0000000001
40
0
40
0
40
0
40
0
40
1
40
1
40
1
40
1
41
1
41
1
41
1
41
1
10
240.54344980717781
20
143.73979527515672
30
0
10
241.53807645545243
20
143.73979527515672
30
0
10
242.4273626034626
20
143.98967804382889
30
0
10
243.21130825120827
20
144.49189205625035
30
0
0
SPLINE
5
198
100
AcDbEntity
8
0
100
AcDbSpline
70
4
71
3
72
8
73
4
74
0
42
0.000000001
43
0.0000000001
44
0.0000000001
40
0
40
0
40
0
40
0
40
1
40
1
40
1
40
1
41
1
41
1
41
1
41
1
10
243.21130825120827
20
144.49189205625035
30
0
10
243.99525389895388
20
144.99410606867178
30
0
10
244.61260605007823
20
145.71680245819056
30
0
10
245.06091996763402
20
146.65508427465232
30
0
0
SPLINE
5
199
100
AcDbEntity
8
0
100
AcDbSpline
70
4
71
3
72
8
73
4
74
0
42
0.000000001
43
0.0000000001
44
0.0000000001
40
0
40
0
40
0
40
0
40
1
40
1
40
1
40
1
41
1
41
1
41
1
41
1
10
245.06091996763402
20
146.65508427465232
30
0
10
245.50923388518981
20
147.59581456619122
30
0
10
245.73462068870114
20
148.72272989309829
30
0
10
245.73462068870114
20
150.04073468178748
30
0
0
SPLINE
5
200
100
AcDbEntity
8
0
100
AcDbSpline
70
4
71
3
72
8
73
4
74
0
42
0.000000001
43
0.0000000001
44
0.0000000001
40
0
40
0
40
0
40
0
40
1
40
1
40
1
40
1
41
1
41
1
41
1
41
1
10
245.73462068870114
20
150.04073468178748
30
0
10
245.73462068870114
20
151.35873947047671
30
0
10
245.5067891482426
20
152.4636110454299
30
0
10
245.05357080427277
20
153.36514330695553
30
0
0
SPLINE
5
201
100
AcDbEntity
8
0
100
AcDbSpline
70
4
71
3
72
8
73
4
74
0
42
0.000000001
43
0.0000000001
44
0.0000000001
40
0
40
0
40
0
40
0
40
1
40
1
40
1
40
1
41
1
41
1
41
1
41
1
10
245.05357080427277
20
153.36514330695553
30
0
10
244.60035246030293
20
154.26667556848119
30
0
10
243.98054809597159
20
154.94528071596233
30
0
10
243.20150687463996
20
155.40339601008637
30
0
0
SPLINE
5
202
100
AcDbEntity
8
0
100
AcDbSpline
70
4
71
3
72
8
73
4
74
0
42
0.000000001
43
0.0000000001
44
0.0000000001
40
0
40
0
40
0
40
0
40
1
40
1
40
1
40
1
41
1
41
1
41
1
41
1
10
243.20150687463996
20
155.40339601008637
30
0
10
242.42246565330834
20
155.86151130421044
30
0
10
241.54052866865948
20
156.09179505787597
30
0
10
240.5630525603143
20
156.09179505787597
30
0
0
SPLINE
5
203
100
AcDbEntity
8
0
100
AcDbSpline
70
4
71
3
72
8
73
4
74
0
42
0.000000001
43
0.0000000001
44
0.0000000001
40
0
40
0
40
0
40
0
40
1
40
1
40
1
40
1
41
1
41
1
41
1
41
1
10
240.5630525603143
20
156.09179505787597
30
0
10
239.80605882906644
20
156.09179505787597
30
0
10
239.1911514148893
20
155.9742009678362
30
0
10
238.71833779404278
20
155.73656805080941
30
0
0
SPLINE
5
204
100
AcDbEntity
8
0
100
AcDbSpline
70
4
71
3
72
8
73
4
74
0
42
0.000000001
43
0.0000000001
44
0.0000000001
40
0
40
0
40
0
40
0
40
1
40
1
40
1
40
1
41
1
41
1
41
1
41
1
10
238.71833779404278
20
155.73656805080941
30
0
10
238.2455241731962
20
155.50138734698965
30
0
10
237.87314662620014
20
155.2221041867426
30
0
10
237.60122010557407
20
154.89872604632802
30
0
0
SPLINE
5
205
100
AcDbEntity
8
0
100
AcDbSpline
70
4
71
3
72
8
73
4
74
0
42
0.000000001
43
0.0000000001
44
0.0000000001
40
0
40
0
40
0
40
0
40
1
40
1
40
1
40
1
41
1
41
1
41
1
41
1
10
237.60122010557407
20
154.89872604632802
30
0
10
237.32929358494803
20
154.57780011912047
30
0
10
237.12105732136624
20
154.28381863215091
30
0
10
236.97651879108847
20
154.01924127488613
30
0
0
LINE
5
206
100
AcDbEntity
8
0
100
AcDbLine
10
236.97651879108847
20
154.01924127488613
30
0
11
236.82217888424245
21
154.01924127488613
31
0
0
LINE
5
207
100
AcDbEntity
8
0
100
AcDbLine
10
236.82217888424245
20
154.01924127488613
30
0
11
236.82217888424248
21
156.45436375204403
31
0
0
SPLINE
5
208
100
AcDbEntity
8
0
100
AcDbSpline
70
4
71
3
72
8
73
4
74
0
42
0.000000001
43
0.0000000001
44
0.0000000001
40
0
40
0
40
0
40
0
40
1
40
1
40
1
40
1
41
1
41
1
41
1
41
1
10
236.82217888424248
20
156.45436375204403
30
0
10
236.82217888424248
20
157.42204596008068
30
0
10
237.12105732136624
20
158.12758807154006
30
0
10
237.71636198240685
20
158.57101251520137
30
0
0
SPLINE
5
209
100
AcDbEntity
8
0
100
AcDbSpline
70
4
71
3
72
8
73
4
74
0
42
0.000000001
43
0.0000000001
44
0.0000000001
40
0
40
0
40
0
40
0
40
1
40
1
40
1
40
1
41
1
41
1
41
1
41
1
10
237.71636198240685
20
158.57101251520137
30
0
10
238.31166664344744
20
159.01443695886275
30
0
10
239.06621563774806
20
159.23491185970025
30
0
10
239.97999401278921
20
159.23491185970025
30
0
0
SPLINE
5
210
100
AcDbEntity
8
0
100
AcDbSpline
70
4
71
3
72
8
73
4
74
0
42
0.000000001
43
0.0000000001
44
0.0000000001
40
0
40
0
40
0
40
0
40
1
40
1
40
1
40
1
41
1
41
1
41
1
41
1
10
239.97999401278921
20
159.23491185970025
30
0
10
240.64634557049504
20
159.23491185970025
30
0
10
241.1902060880069
20
159.13936525974421
30
0
10
241.61157556532473
20
158.95318396250593
30
0
0
SPLINE
5
211
100
AcDbEntity
8
0
100
AcDbSpline
70
4
71
3
72
8
73
4
74
0
42
0.000000001
43
0.0000000001
44
0.0000000001
40
0
40
0
40
0
40
0
40
1
40
1
40
1
40
1
41
1
41
1
41
1
41
1
10
241.61157556532473
20
158.95318396250593
30
0
10
242.03294504264252
20
158.76455045206069
30
0
10
242.36611708336557
20
158.53916364854936
30
0
10
242.61109916375361
20
158.27213407807758
30
0
0
SPLINE
5
212
100
AcDbEntity
8
0
100
AcDbSpline
70
4
71
3
72
8
73
4
74
0
42
0.000000001
43
0.0000000001
44
0.0000000001
40
0
40
0
40
0
40
0
40
1
40
1
40
1
40
1
41
1
41
1
41
1
41
1
10
242.61109916375361
20
158.27213407807758
30
0
10
242.85608124414168
20
158.0075567208128
30
0
10
243.04961918100093
20
157.7552254770635
30
0
10
243.19660992448573
20
157.52003729698396
30
0
0
LINE
5
213
100
AcDbEntity
8
0
100
AcDbLine
10
243.19660992448576
20
157.52003729698396
30
0
11
245.26671149426858
21
158.3750223651351
31
0
0
SPLINE
5
214
100
AcDbEntity
8
0
100
AcDbSpline
70
4
71
3
72
8
73
4
74
0
42
0.000000001
43
0.0000000001
44
0.0000000001
40
0
40
0
40
0
40
0
40
1
40
1
40
1
40
1
41
1
41
1
41
1
41
1
10
245.26671149426858
20
158.37502236513507
30
0
10
245.04622911717126
20
158.87968485263369
30
0
10
244.71304960018847
20
159.34514931011898
30
0
10
244.2671878958397
20
159.7689710006438
30
0
0
SPLINE
5
215
100
AcDbEntity
8
0
100
AcDbSpline
70
4
71
3
72
8
73
4
74
0
42
0.000000001
43
0.0000000001
44
0.0000000001
40
0
40
0
40
0
40
0
40
1
40
1
40
1
40
1
41
1
41
1
41
1
41
1
10
244.2671878958397
20
159.7689710006438
30
0
10
243.82131871523111
20
160.19523742811586
30
0
10
243.24560933106724
20
160.53576610845994
30
0
10
242.53761500640087
20
160.79299430236347
30
0
0
SPLINE
5
216
100
AcDbEntity
8
0
100
AcDbSpline
70
4
71
3
72
8
73
4
74
0
42
0.000000001
43
0.0000000001
44
0.0000000001
40
0
40
0
40
0
40
0
40
1
40
1
40
1
40
1
41
1
41
1
41
1
41
1
10
242.53761500640087
20
160.79299430236347
30
0
10
241.82961320547477
20
161.050222496267
30
0
10
240.98688172709893
20
161.18006269982229
30
0
10
240.00204897913275
20
161.18006269982229
30
0
0
SPLINE
5
217
100
AcDbEntity
8
0
100
AcDbSpline
70
4
71
3
72
8
73
4
74
0
42
0.000000001
43
0.0000000001
44
0.0000000001
40
0
40
0
40
0
40
0
40
1
40
1
40
1
40
1
41
1
41
1
41
1
41
1
10
240.00204897913275
20
161.18006269982229
30
0
10
238.94862902396807
20
161.18006269982229
30
0
10
238.00054209280816
20
161.01592141640799
30
0
10
237.16270756458653
20
160.68764632583918
30
0
0
SPLINE
5
218
100
AcDbEntity
8
0
100
AcDbSpline
70
4
71
3
72
8
73
4
74
0
42
0.000000001
43
0.0000000001
44
0.0000000001
40
0
40
0
40
0
40
0
40
1
40
1
40
1
40
1
41
1
41
1
41
1
41
1
10
237.16270756458653
20
160.68764632583918
30
0
10
236.32242082315793
20
160.35937123527037
30
0
10
235.65361705224504
20
159.85470874777181
30
0
10
235.16120067826193
20
159.17365886334346
30
0
0
SPLINE
5
219
100
AcDbEntity
8
0
100
AcDbSpline
70
4
71
3
72
8
73
4
74
0
42
0.000000001
43
0.0000000001
44
0.0000000001
40
0
40
0
40
0
40
0
40
1
40
1
40
1
40
1
41
1
41
1
41
1
41
1
10
235.16120067826193
20
159.17365886334346
30
0
10
234.66633956733162
20
158.49260897891509
30
0
10
234.41890527373658
20
157.61802115762745
30
0
10
234.41890527373658
20
156.55479982589452
30
0
0
LINE
5
220
100
AcDbEntity
8
0
100
AcDbLine
10
234.41890527373658
20
156.55479982589452
30
0
11
234.41890527373658
21
143.90392534418135
31
0
0
LINE
5
221
100
AcDbEntity
8
0
100
AcDbLine
10
234.41890527373658
20
143.90392534418135
30
0
11
236.780536117282
21
143.90392534418135
31
0
0
LINE
5
222
100
AcDbEntity
8
0
100
AcDbLine
10
236.780536117282
20
143.90392534418135
30
0
11
236.78053611728194
21
145.91032918066017
31
0
0
SPLINE
5
223
100
AcDbEntity
8
0
100
AcDbSpline
70
4
71
3
72
8
73
4
74
0
42
0.000000001
43
0.0000000001
44
0.0000000001
40
0
40
0
40
0
40
0
40
1
40
1
40
1
40
1
41
1
41
1
41
1
41
1
10
237.1725089411548
20
152.20882011221383
30
0
10
237.42238797169705
20
152.8188230999769
30
0
10
237.78741635533186
20
153.28673977066924
30
0
10
238.26757913953969
20
153.61011791108379
30
0
0
SPLINE
5
224
100
AcDbEntity
8
0
100
AcDbSpline
70
4
71
3
72
8
73
4
74
0
42
0.000000001
43
0.0000000001
44
0.0000000001
40
0
40
0
40
0
40
0
40
1
40
1
40
1
40
1
41
1
41
1
41
1
41
1
10
238.26757913953969
20
153.61011791108379
30
0
10
238.74774192374753
20
153.93594078844561
30
0
10
239.33569742142686
20
154.09762985865288
30
0
10
240.02900089563047
20
154.09762985865288
30
0
0
SPLINE
5
225
100
AcDbEntity
8
0
100
AcDbSpline
70
4
71
3
72
8
73
4
74
0
42
0.000000001
43
0.0000000001
44
0.0000000001
40
0
40
0
40
0
40
0
40
1
40
1
40
1
40
1
41
1
41
1
41
1
41
1
10
240.02900089563047
20
154.09762985865288
30
0
10
240.72230436983415
20
154.09762985865288
30
0
10
241.3445534711127
20
153.92613941187733
30
0
10
241.82962068173455
20
153.58316599458604
30
0
0
SPLINE
5
226
100
AcDbEntity
8
0
100
AcDbSpline
70
4
71
3
72
8
73
4
74
0
42
0.000000001
43
0.0000000001
44
0.0000000001
40
0
40
0
40
0
40
0
40
1
40
1
40
1
40
1
41
1
41
1
41
1
41
1
10
241.82962068173455
20
153.58316599458604
30
0
10
242.31468789235637
20
153.24019257729472
30
0
10
242.68216101293845
20
152.76002979308691
30
0
10
242.92958783027373
20
152.14757459211683
30
0
0
SPLINE
5
227
100
AcDbEntity
8
0
100
AcDbSpline
70
4
71
3
72
8
73
4
74
0
42
0.000000001
43
0.0000000001
44
0.0000000001
40
0
40
0
40
0
40
0
40
1
40
1
40
1
40
1
41
1
41
1
41
1
41
1
10
242.92958783027373
20
152.14757459211683
30
0
10
243.17702212386877
20
151.53511939114674
30
0
10
243.2995131640628
20
150.82222064006635
30
0
10
243.2995131640628
20
150.01133055208271
30
0
0
SPLINE
5
228
100
AcDbEntity
8
0
100
AcDbSpline
70
4
71
3
72
8
73
4
74
0
42
0.000000001
43
0.0000000001
44
0.0000000001
40
0
40
0
40
0
40
0
40
1
40
1
40
1
40
1
41
1
41
1
41
1
41
1
10
243.2995131640628
20
150.01133055208271
30
0
10
243.2995131640628
20
149.2004404640991
30
0
10
243.17702212386877
20
148.50713698989546
30
0
10
242.93449225668775
20
147.86773734868737
30
0
0
SPLINE
5
229
100
AcDbEntity
8
0
100
AcDbSpline
70
4
71
3
72
8
73
4
74
0
42
0.000000001
43
0.0000000001
44
0.0000000001
40
0
40
0
40
0
40
0
40
1
40
1
40
1
40
1
41
1
41
1
41
1
41
1
10
242.93449225668775
20
147.86773734868737
30
0
10
242.68951017629971
20
147.22833396934936
30
0
10
242.32693400587186
20
146.7212230067737
30
0
10
241.84187427150982
20
146.3488491979075
30
0
0
SPLINE
5
230
100
AcDbEntity
8
0
100
AcDbSpline
70
4
71
3
72
8
73
4
74
0
42
0.000000001
43
0.0000000001
44
0.0000000001
40
0
40
0
40
0
40
0
40
1
40
1
40
1
40
1
41
1
41
1
41
1
41
1
10
241.84187427150982
20
146.3488491979075
30
0
10
241.359259274095
20
145.9764753890413
30
0
10
240.75415323648613
20
145.79029035367316
30
0
10
240.02900837189028
20
145.79029035367316
30
0
0
SPLINE
5
231
100
AcDbEntity
8
0
100
AcDbSpline
70
4
71
3
72
8
73
4
74
0
42
0.000000001
43
0.0000000001
44
0.0000000001
40
0
40
0
40
0
40
0
40
1
40
1
40
1
40
1
41
1
41
1
41
1
41
1
10
240.02900837189028
20
145.79029035367316
30
0
10
239.30386350729441
20
145.79029035367316
30
0
10
238.73550328649179
20
145.96912622568004
30
0
10
238.25534050228399
20
146.32680170782376
30
0
0
SPLINE
5
232
100
AcDbEntity
8
0
100
AcDbSpline
70
4
71
3
72
8
73
4
74
0
42
0.000000001
43
0.0000000001
44
0.0000000001
40
0
40
0
40
0
40
0
40
1
40
1
40
1
40
1
41
1
41
1
41
1
41
1
10
238.25534050228399
20
146.32680170782376
30
0
10
237.77517771807618
20
146.68447718996742
30
0
10
237.41505376085539
20
147.17933830089777
30
0
10
237.16761946726029
20
147.81384473008148
30
0
0
SPLINE
5
233
100
AcDbEntity
8
0
100
AcDbSpline
70
4
71
3
72
8
73
4
74
0
42
0.000000001
43
0.0000000001
44
0.0000000001
40
0
40
0
40
0
40
0
40
1
40
1
40
1
40
1
41
1
41
1
41
1
41
1
10
237.16761946726029
20
147.81384473008148
30
0
10
236.92018517366529
20
148.44834742113534
30
0
10
236.79769413347123
20
149.18084518722236
30
0
10
236.79769413347123
20
150.0137827652897
30
0
0
SPLINE
5
234
100
AcDbEntity
8
0
100
AcDbSpline
70
4
71
3
72
8
73
4
74
0
42
0.000000001
43
0.0000000001
44
0.0000000001
40
0
40
0
40
0
40
0
40
1
40
1
40
1
40
1
41
1
41
1
41
1
41
1
10
236.79769413347123
20
150.0137827652897
30
0
10
236.79769413347123
20
150.84672034335711
30
0
10
236.92263738687228
20
151.60126933765775
30
0
10
237.17251641741456
20
152.21127232542085
30
0
0
LINE
5
235
100
AcDbEntity
8
0
100
AcDbLine
10
237.17251641741456
20
152.21127232542085
30
0
11
237.1725089411548
21
152.20882011221383
31
0
0
SPLINE
5
236
100
AcDbEntity
8
0
100
AcDbSpline
70
4
71
3
72
8
73
4
74
0
42
0.000000001
43
0.0000000001
44
0.0000000001
40
0
40
0
40
0
40
0
40
1
40
1
40
1
40
1
41
1
41
1
41
1
41
1
10
231.21698021250273
20
139.11208392615183
30
0
10
231.63589747661354
20
139.11208392615183
30
0
10
231.99602143383436
20
139.25417398135249
30
0
10
232.29245513401096
20
139.53590187854678
30
0
0
SPLINE
5
237
100
AcDbEntity
8
0
100
AcDbSpline
70
4
71
3
72
8
73
4
74
0
42
0.000000001
43
0.0000000001
44
0.0000000001
40
0
40
0
40
0
40
0
40
1
40
1
40
1
40
1
41
1
41
1
41
1
41
1
10
232.29245513401096
20
139.53590187854678
30
0
10
232.59133357113473
20
139.81762977574107
30
0
10
232.74076905156676
20
140.15815471795526
30
0
10
232.74076905156676
20
140.55502823011221
30
0
0
SPLINE
5
238
100
AcDbEntity
8
0
100
AcDbSpline
70
4
71
3
72
8
73
4
74
0
42
0.000000001
43
0.0000000001
44
0.0000000001
40
0
40
0
40
0
40
0
40
1
40
1
40
1
40
1
41
1
41
1
41
1
41
1
10
232.74076905156676
20
140.55502823011221
30
0
10
232.74076905156676
20
140.95190174226914
30
0
10
232.59133357113473
20
141.28507378299219
30
0
10
232.29245513401096
20
141.56680541831636
30
0
0
SPLINE
5
239
100
AcDbEntity
8
0
100
AcDbSpline
70
4
71
3
72
8
73
4
74
0
42
0.000000001
43
0.0000000001
44
0.0000000001
40
0
40
0
40
0
40
0
40
1
40
1
40
1
40
1
41
1
41
1
41
1
41
1
10
232.29245513401096
20
141.56680541831636
30
0
10
231.99357669688715
20
141.84853705364054
30
0
10
231.63590495287335
20
141.99062337071129
30
0
10
231.21698021250273
20
141.99062337071129
30
0
0
SPLINE
5
240
100
AcDbEntity
8
0
100
AcDbSpline
70
4
71
3
72
8
73
4
74
0
42
0.000000001
43
0.0000000001
44
0.0000000001
40
0
40
0
40
0
40
0
40
1
40
1
40
1
40
1
41
1
41
1
41
1
41
1
10
231.21698021250273
20
141.99062337071129
30
0
10
230.79805547213221
20
141.99062337071129
30
0
10
230.43793899117111
20
141.84853331551065
30
0
10
230.14150529099456
20
141.56680541831636
30
0
0
SPLINE
5
241
100
AcDbEntity
8
0
100
AcDbSpline
70
4
71
3
72
8
73
4
74
0
42
0.000000001
43
0.0000000001
44
0.0000000001
40
0
40
0
40
0
40
0
40
1
40
1
40
1
40
1
41
1
41
1
41
1
41
1
10
230.14150529099456
20
141.56680541831636
30
0
10
229.84262685387077
20
141.28507752112208
30
0
10
229.69319137343874
20
140.94455257890789
30
0
10
229.69319137343874
20
140.54767906675096
30
0
0
SPLINE
5
242
100
AcDbEntity
8
0
100
AcDbSpline
70
4
71
3
72
8
73
4
74
0
42
0.000000001
43
0.0000000001
44
0.0000000001
40
0
40
0
40
0
40
0
40
1
40
1
40
1
40
1
41
1
41
1
41
1
41
1
10
229.69319137343874
20
140.54767906675096
30
0
10
229.69319137343874
20
140.150805554594
30
0
10
229.84262685387077
20
139.81763351387093
30
0
10
230.14150529099456
20
139.53590187854678
30
0
0
SPLINE
5
243
100
AcDbEntity
8
0
100
AcDbSpline
70
4
71
3
72
8
73
4
74
0
42
0.000000001
43
0.0000000001
44
0.0000000001
40
0
40
0
40
0
40
0
40
1
40
1
40
1
40
1
41
1
41
1
41
1
41
1
10
230.14150529099456
20
139.53590187854678
30
0
10
230.44038372811838
20
139.25417398135249
30
0
10
230.79805547213221
20
139.11208392615183
30
0
10
231.21698021250273
20
139.11208392615183
30
0
0
LWPOLYLINE
5
244
100
AcDbEntity
8
0
100
AcDbPolyline
90
4
70
1
43
0.0
10
232.434544740636
20
143.89903392645934
10
230.02637089042156
20
143.89903392645934
10
230.02637089042156
20
156.27552862766311
10
232.434544740636
20
156.27552862766311
0
SPLINE
5
245
100
AcDbEntity
8
0
100
AcDbSpline
70
4
71
3
72
8
73
4
74
0
42
0.000000001
43
0.0000000001
44
0.0000000001
40
0
40
0
40
0
40
0
40
1
40
1
40
1
40
1
41
1
41
1
41
1
41
1
10
227.20418001580487
20
153.14220871665125
30
0
10
227.20418001580487
20
153.88940107133087
30
0
10
227.03514178223634
20
154.50920543566221
30
0
10
226.69706531509931
20
155.00407402285231
30
0
0
SPLINE
5
246
100
AcDbEntity
8
0
100
AcDbSpline
70
4
71
3
72
8
73
4
74
0
42
0.000000001
43
0.0000000001
44
0.0000000001
40
0
40
0
40
0
40
0
40
1
40
1
40
1
40
1
41
1
41
1
41
1
41
1
10
226.69706531509931
20
155.00407402285231
30
0
10
226.35898884796222
20
155.49894261004241
30
0
10
225.91557188056066
20
155.86396351741746
30
0
10
225.3668144128946
20
156.09914422123722
30
0
0
SPLINE
5
247
100
AcDbEntity
8
0
100
AcDbSpline
70
4
71
3
72
8
73
4
74
0
42
0.000000001
43
0.0000000001
44
0.0000000001
40
0
40
0
40
0
40
0
40
1
40
1
40
1
40
1
41
1
41
1
41
1
41
1
10
225.3668144128946
20
156.09914422123722
30
0
10
224.81805694522848
20
156.33432492505702
30
0
10
224.22764923434215
20
156.4494668018898
30
0
10
223.59314654328827
20
156.43722068837431
30
0
0
SPLINE
5
248
100
AcDbEntity
8
0
100
AcDbSpline
70
4
71
3
72
8
73
4
74
0
42
0.000000001
43
0.0000000001
44
0.0000000001
40
0
40
0
40
0
40
0
40
1
40
1
40
1
40
1
41
1
41
1
41
1
41
1
10
223.59314654328827
20
156.43722068837431
30
0
10
223.20607814582951
20
156.43232373822005
30
0
10
222.88514474236217
20
156.40047487156804
30
0
10
222.62546433525162
20
156.34412630162527
30
0
0
SPLINE
5
249
100
AcDbEntity
8
0
100
AcDbSpline
70
4
71
3
72
8
73
4
74
0
42
0.000000001
43
0.0000000001
44
0.0000000001
40
0
40
0
40
0
40
0
40
1
40
1
40
1
40
1
41
1
41
1
41
1
41
1
10
222.62546433525162
20
156.34412630162527
30
0
10
222.3657839281411
20
156.2877777316825
30
0
10
222.16980125433457
20
156.23388137494675
30
0
10
222.03015967421101
20
156.17998501821097
30
0
0
LINE
5
250
100
AcDbEntity
8
0
100
AcDbLine
10
222.03015967421101
20
156.17998501821097
30
0
11
222.46622747825137
21
154.19073172166168
31
0
0
SPLINE
5
251
100
AcDbEntity
8
0
100
AcDbSpline
70
4
71
3
72
8
73
4
74
0
42
0.000000001
43
0.0000000001
44
0.0000000001
40
0
40
0
40
0
40
0
40
1
40
1
40
1
40
1
41
1
41
1
41
1
41
1
10
222.46622747825137
20
154.19073172166168
30
0
10
222.54706827522512
20
154.20788226159118
30
0
10
222.65976541511066
20
154.22747753846792
30
0
10
222.8043039453884
20
154.25687419191291
30
0
0
SPLINE
5
252
100
AcDbEntity
8
0
100
AcDbSpline
70
4
71
3
72
8
73
4
74
0
42
0.000000001
43
0.0000000001
44
0.0000000001
40
0
40
0
40
0
40
0
40
1
40
1
40
1
40
1
41
1
41
1
41
1
41
1
10
222.8043039453884
20
154.25687419191291
30
0
10
222.9488424756662
20
154.28381863215091
30
0
10
223.1178807092347
20
154.29607222192618
30
0
10
223.31141864609401
20
154.29607222192618
30
0
0
SPLINE
5
253
100
AcDbEntity
8
0
100
AcDbSpline
70
4
71
3
72
8
73
4
74
0
42
0.000000001
43
0.0000000001
44
0.0000000001
40
0
40
0
40
0
40
0
40
1
40
1
40
1
40
1
41
1
41
1
41
1
41
1
10
223.31141864609401
20
154.29607222192618
30
0
10
223.57355126641153
20
154.29607222192618
30
0
10
223.8185333467996
20
154.25442197870592
30
0
10
224.0414679371039
20
154.17112896852515
30
0
0
SPLINE
5
254
100
AcDbEntity
8
0
100
AcDbSpline
70
4
71
3
72
8
73
4
74
0
42
0.000000001
43
0.0000000001
44
0.0000000001
40
0
40
0
40
0
40
0
40
1
40
1
40
1
40
1
41
1
41
1
41
1
41
1
10
224.0414679371039
20
154.17112896852515
30
0
10
224.26440252740818
20
154.08783595834439
30
0
10
224.4456868744922
20
153.9285991013441
30
0
10
224.58532845461573
20
153.69586313447158
30
0
0
SPLINE
5
255
100
AcDbEntity
8
0
100
AcDbSpline
70
4
71
3
72
8
73
4
74
0
42
0.000000001
43
0.0000000001
44
0.0000000001
40
0
40
0
40
0
40
0
40
1
40
1
40
1
40
1
41
1
41
1
41
1
41
1
10
224.58532845461573
20
153.69586313447158
30
0
10
224.72497003473927
20
153.46312716759903
30
0
10
224.79600945514477
20
153.11035237373946
30
0
10
224.79600945514477
20
152.64488791625413
30
0
0
LINE
5
256
100
AcDbEntity
8
0
100
AcDbLine
10
224.79600945514477
20
152.64488791625413
30
0
11
224.79600945514477
21
145.83438533384066
31
0
0
LINE
5
257
100
AcDbEntity
8
0
100
AcDbLine
10
224.79600945514477
20
145.83438533384066
30
0
11
222.25799869092938
21
145.83438533384066
31
0
0
LINE
5
258
100
AcDbEntity
8
0
100
AcDbLine
10
222.25799869092938
20
145.83438533384066
30
0
11
222.25799869092936
21
143.90147686910421
31
0
0
LINE
5
259
100
AcDbEntity
8
0
100
AcDbLine
10
222.25799869092936
20
143.90147686910421
30
0
11
224.79600945514474
21
143.90147686910421
31
0
0
LINE
5
260
100
AcDbEntity
8
0
100
AcDbLine
10
224.79600945514474
20
143.90147686910421
30
0
11
224.79600945514477
21
140.93474372607986
31
0
0
LINE
5
261
100
AcDbEntity
8
0
100
AcDbLine
10
224.79600945514477
20
140.93474372607986
30
0
11
227.20418001580492
21
140.93474372607986
31
0
0
LINE
5
262
100
AcDbEntity
8
0
100
AcDbLine
10
227.20418001580492
20
140.93474372607986
30
0
11
227.20418001580487
21
143.90147686910421
31
0
0
LINE
5
263
100
AcDbEntity
8
0
100
AcDbLine
10
227.20418001580487
20
143.90147686910421
30
0
11
229.0170459154244
21
143.90147686910421
31
0
0
LINE
5
264
100
AcDbEntity
8
0
100
AcDbLine
10
229.0170459154244
20
143.90147686910421
30
0
11
229.0170459154244
21
145.83438533384066
31
0
0
LINE
5
265
100
AcDbEntity
8
0
100
AcDbLine
10
229.0170459154244
20
145.83438533384066
30
0
11
227.20418001580487
21
145.83438533384066
31
0
0
LINE
5
266
100
AcDbEntity
8
0
100
AcDbLine
10
227.20418001580487
20
145.83438533384066
30
0
11
227.20418001580487
21
153.14465345359847
31
0
0
LINE
5
267
100
AcDbEntity
8
0
100
AcDbLine
10
227.20418001580487
20
153.14465345359847
30
0
11
227.20418001580487
21
153.14220871665125
31
0
0
SPLINE
5
268
100
AcDbEntity
8
0
100
AcDbSpline
70
4
71
3
72
8
73
4
74
0
42
0.000000001
43
0.0000000001
44
0.0000000001
40
0
40
0
40
0
40
0
40
1
40
1
40
1
40
1
41
1
41
1
41
1
41
1
10
212.79678446628503
20
144.54333619977911
30
0
10
213.28185167690688
20
144.23710859929403
30
0
10
213.80365722807517
20
144.02642386063513
30
0
10
214.35977133536227
20
143.90883350872525
30
0
0
SPLINE
5
269
100
AcDbEntity
8
0
100
AcDbSpline
70
4
71
3
72
8
73
4
74
0
42
0.000000001
43
0.0000000001
44
0.0000000001
40
0
40
0
40
0
40
0
40
1
40
1
40
1
40
1
41
1
41
1
41
1
41
1
10
214.35977133536227
20
143.90883350872525
30
0
10
214.91587796638959
20
143.79369163189247
30
0
10
215.44014320702473
20
143.7348945868726
30
0
10
215.93500431795505
20
143.7348945868726
30
0
0
SPLINE
5
270
100
AcDbEntity
8
0
100
AcDbSpline
70
4
71
3
72
8
73
4
74
0
42
0.000000001
43
0.0000000001
44
0.0000000001
40
0
40
0
40
0
40
0
40
1
40
1
40
1
40
1
41
1
41
1
41
1
41
1
10
215.93500431795505
20
143.7348945868726
30
0
10
216.68219667263463
20
143.7348945868726
30
0
10
217.39265068676781
20
143.8402350871371
30
0
10
218.07124835798916
20
144.05337203900302
30
0
0
SPLINE
5
271
100
AcDbEntity
8
0
100
AcDbSpline
70
4
71
3
72
8
73
4
74
0
42
0.000000001
43
0.0000000001
44
0.0000000001
40
0
40
0
40
0
40
0
40
1
40
1
40
1
40
1
41
1
41
1
41
1
41
1
10
218.07124835798916
20
144.05337203900302
30
0
10
218.74984602921049
20
144.26650525273905
30
0
10
219.34515816651086
20
144.60458171987611
30
0
10
219.86451898073193
20
145.07004617736143
30
0
0
SPLINE
5
272
100
AcDbEntity
8
0
100
AcDbSpline
70
4
71
3
72
8
73
4
74
0
42
0.000000001
43
0.0000000001
44
0.0000000001
40
0
40
0
40
0
40
0
40
1
40
1
40
1
40
1
41
1
41
1
41
1
41
1
10
219.86451898073193
20
145.07004617736143
30
0
10
220.383879794953
20
145.53551063484676
30
0
10
220.77585261882581
20
146.14306888566261
30
0
10
221.04533440250464
20
146.89516192862635
30
0
0
LINE
5
273
100
AcDbEntity
8
0
100
AcDbLine
10
221.04533440250464
20
146.89516192862635
30
0
11
218.78170237212228
21
147.40962579269319
31
0
0
SPLINE
5
274
100
AcDbEntity
8
0
100
AcDbSpline
70
4
71
3
72
8
73
4
74
0
42
0.000000001
43
0.0000000001
44
0.0000000001
40
0
40
0
40
0
40
0
40
1
40
1
40
1
40
1
41
1
41
1
41
1
41
1
10
218.78170237212228
20
147.40962579269319
30
0
10
218.60531497519247
20
146.97355798865286
30
0
10
218.28193683477792
20
146.57913668970292
30
0
10
217.81892459049965
20
146.22146120755923
30
0
0
SPLINE
5
275
100
AcDbEntity
8
0
100
AcDbSpline
70
4
71
3
72
8
73
4
74
0
42
0.000000001
43
0.0000000001
44
0.0000000001
40
0
40
0
40
0
40
0
40
1
40
1
40
1
40
1
41
1
41
1
41
1
41
1
10
217.81892459049965
20
146.22146120755923
30
0
10
217.35346013301432
20
145.86378572541554
30
0
10
216.71650522875348
20
145.68494985340865
30
0
10
215.90561514076981
20
145.68494985340865
30
0
0
SPLINE
5
276
100
AcDbEntity
8
0
100
AcDbSpline
70
4
71
3
72
8
73
4
74
0
42
0.000000001
43
0.0000000001
44
0.0000000001
40
0
40
0
40
0
40
0
40
1
40
1
40
1
40
1
41
1
41
1
41
1
41
1
10
215.90561514076981
20
145.68494985340865
30
0
10
215.0947250527862
20
145.68494985340865
30
0
10
214.54106315870609
20
145.87848405213805
30
0
10
214.144193384679
20
146.26555618772673
30
0
0
SPLINE
5
277
100
AcDbEntity
8
0
100
AcDbSpline
70
4
71
3
72
8
73
4
74
0
42
0.000000001
43
0.0000000001
44
0.0000000001
40
0
40
0
40
0
40
0
40
1
40
1
40
1
40
1
41
1
41
1
41
1
41
1
10
214.144193384679
20
146.26555618772673
30
0
10
213.74732361065199
20
146.65262832331541
30
0
10
213.55133346058565
20
147.19648884082727
30
0
10
213.55133346058565
20
147.90203469041649
30
0
0
LINE
5
278
100
AcDbEntity
8
0
100
AcDbLine
10
213.55133346058565
20
147.90203469041651
30
0
11
213.55133346058565
21
147.95837952222936
31
0
0
SPLINE
5
279
100
AcDbEntity
8
0
100
AcDbSpline
70
4
71
3
72
8
73
4
74
0
42
0.000000001
43
0.0000000001
44
0.0000000001
40
0
40
0
40
0
40
0
40
1
40
1
40
1
40
1
41
1
41
1
41
1
41
1
10
213.55133346058565
20
147.95837952222936
30
0
10
213.55133346058565
20
148.24745658278491
30
0
10
213.65667396085016
20
148.45814505957372
30
0
10
213.86491022443195
20
148.58798526312899
30
0
0
SPLINE
5
280
100
AcDbEntity
8
0
100
AcDbSpline
70
4
71
3
72
8
73
4
74
0
42
0.000000001
43
0.0000000001
44
0.0000000001
40
0
40
0
40
0
40
0
40
1
40
1
40
1
40
1
41
1
41
1
41
1
41
1
10
213.86491022443195
20
148.58798526312899
30
0
10
214.07559122496099
20
148.71537325347725
30
0
10
214.40877074194384
20
148.80846764022627
30
0
10
214.87178298622212
20
148.86481621016904
30
0
0
SPLINE
5
281
100
AcDbEntity
8
0
100
AcDbSpline
70
4
71
3
72
8
73
4
74
0
42
0.000000001
43
0.0000000001
44
0.0000000001
40
0
40
0
40
0
40
0
40
1
40
1
40
1
40
1
41
1
41
1
41
1
41
1
10
214.87178298622212
20
148.86481621016904
30
0
10
215.33479523050045
20
148.92116478011181
30
0
10
215.93500431795505
20
148.99220420051731
30
0
10
216.6772997224804
20
149.07794942390507
30
0
0
SPLINE
5
282
100
AcDbEntity
8
0
100
AcDbSpline
70
4
71
3
72
8
73
4
74
0
42
0.000000001
43
0.0000000001
44
0.0000000001
40
0
40
0
40
0
40
0
40
1
40
1
40
1
40
1
41
1
41
1
41
1
41
1
10
216.6772997224804
20
149.07794942390507
30
0
10
217.26281048321252
20
149.14654410736333
30
0
10
217.83851239111658
20
149.25188460762783
30
0
10
218.40197566176494
20
149.38417702439011
30
0
0
SPLINE
5
283
100
AcDbEntity
8
0
100
AcDbSpline
70
4
71
3
72
8
73
4
74
0
42
0.000000001
43
0.0000000001
44
0.0000000001
40
0
40
0
40
0
40
0
40
1
40
1
40
1
40
1
41
1
41
1
41
1
41
1
10
218.40197566176494
20
149.38417702439011
30
0
10
218.96543145615354
20
149.51891417809964
30
0
10
219.47745058327314
20
149.71734906511315
30
0
10
219.93311366419022
20
149.9794816854307
30
0
0
SPLINE
5
284
100
AcDbEntity
8
0
100
AcDbSpline
70
4
71
3
72
8
73
4
74
0
42
0.000000001
43
0.0000000001
44
0.0000000001
40
0
40
0
40
0
40
0
40
1
40
1
40
1
40
1
41
1
41
1
41
1
41
1
10
219.93311366419022
20
149.9794816854307
30
0
10
220.38877674510726
20
150.24161430574824
30
0
10
220.75135291553508
20
150.59928604976204
30
0
10
221.02083469921388
20
151.05250439373188
30
0
0
SPLINE
5
285
100
AcDbEntity
8
0
100
AcDbSpline
70
4
71
3
72
8
73
4
74
0
42
0.000000001
43
0.0000000001
44
0.0000000001
40
0
40
0
40
0
40
0
40
1
40
1
40
1
40
1
41
1
41
1
41
1
41
1
10
221.02083469921388
20
151.05250439373188
30
0
10
221.29031648289268
20
151.50572273770172
30
0
10
221.4250536366022
20
152.07897990865857
30
0
10
221.4250536366022
20
152.77718033301642
30
0
0
SPLINE
5
286
100
AcDbEntity
8
0
100
AcDbSpline
70
4
71
3
72
8
73
4
74
0
42
0.000000001
43
0.0000000001
44
0.0000000001
40
0
40
0
40
0
40
0
40
1
40
1
40
1
40
1
41
1
41
1
41
1
41
1
10
221.4250536366022
20
152.77718033301642
30
0
10
221.4250536366022
20
153.58807042100005
30
0
10
221.24131707631113
20
154.27157251863542
30
0
10
220.87384395572911
20
154.83258357607679
30
0
0
SPLINE
5
287
100
AcDbEntity
8
0
100
AcDbSpline
70
4
71
3
72
8
73
4
74
0
42
0.000000001
43
0.0000000001
44
0.0000000001
40
0
40
0
40
0
40
0
40
1
40
1
40
1
40
1
41
1
41
1
41
1
41
1
10
220.87384395572911
20
154.83258357607679
30
0
10
220.50637083514704
20
155.39359463351812
30
0
10
220.0041605608555
20
155.81740884778316
30
0
10
219.37210260674885
20
156.10893812154572
30
0
0
SPLINE
5
288
100
AcDbEntity
8
0
100
AcDbSpline
70
4
71
3
72
8
73
4
74
0
42
0.000000001
43
0.0000000001
44
0.0000000001
40
0
40
0
40
0
40
0
40
1
40
1
40
1
40
1
41
1
41
1
41
1
41
1
10
219.37210260674885
20
156.10893812154572
30
0
10
218.737599915695
20
156.40046739530828
30
0
10
218.02959811476887
20
156.54745813879305
30
0
10
217.24565994328302
20
156.54745813879305
30
0
0
SPLINE
5
289
100
AcDbEntity
8
0
100
AcDbSpline
70
4
71
3
72
8
73
4
74
0
42
0.000000001
43
0.0000000001
44
0.0000000001
40
0
40
0
40
0
40
0
40
1
40
1
40
1
40
1
41
1
41
1
41
1
41
1
10
217.24565994328302
20
156.54745813879305
30
0
10
216.56461005885464
20
156.54745813879305
30
0
10
215.97665456117534
20
156.4494668018898
30
0
10
215.48913513734647
20
156.24857970166926
30
0
0
SPLINE
5
290
100
AcDbEntity
8
0
100
AcDbSpline
70
4
71
3
72
8
73
4
74
0
42
0.000000001
43
0.0000000001
44
0.0000000001
40
0
40
0
40
0
40
0
40
1
40
1
40
1
40
1
41
1
41
1
41
1
41
1
10
215.48913513734647
20
156.24857970166926
30
0
10
215.0016231897774
20
156.05014481465571
30
0
10
214.59984898933635
20
155.80026578411344
30
0
10
214.28872443869699
20
155.49893513378262
30
0
0
SPLINE
5
291
100
AcDbEntity
8
0
100
AcDbSpline
70
4
71
3
72
8
73
4
74
0
42
0.000000001
43
0.0000000001
44
0.0000000001
40
0
40
0
40
0
40
0
40
1
40
1
40
1
40
1
41
1
41
1
41
1
41
1
10
214.28872443869699
20
155.49893513378262
30
0
10
213.97759988805774
20
155.19760448345181
30
0
10
213.74486392118519
20
154.89137688296677
30
0
10
213.58807927739193
20
154.58025233232749
30
0
0
LINE
5
292
100
AcDbEntity
8
0
100
AcDbLine
10
213.58807927739193
20
154.58025233232749
30
0
11
213.49253267743589
21
154.58025233232749
31
0
0
LINE
5
293
100
AcDbEntity
8
0
100
AcDbLine
10
213.49253267743589
20
154.58025233232749
30
0
11
213.49253267743592
21
156.27307940496001
31
0
0
LINE
5
294
100
AcDbEntity
8
0
100
AcDbLine
10
213.49253267743592
20
156.27307940496001
30
0
11
211.13825847351154
21
156.27307940496001
31
0
0
LINE
5
295
100
AcDbEntity
8
0
100
AcDbLine
10
211.13825847351154
20
156.27307940496001
30
0
11
211.13825847351151
21
148.05392986031529
31
0
0
SPLINE
5
296
100
AcDbEntity
8
0
100
AcDbSpline
70
4
71
3
72
8
73
4
74
0
42
0.000000001
43
0.0000000001
44
0.0000000001
40
0
40
0
40
0
40
0
40
1
40
1
40
1
40
1
41
1
41
1
41
1
41
1
10
211.13825847351151
20
148.05392986031529
30
0
10
211.13825847351151
20
147.15239759878966
30
0
10
211.29505059356455
20
146.41745135762554
30
0
10
211.60617514420386
20
145.84909113682295
30
0
0
SPLINE
5
297
100
AcDbEntity
8
0
100
AcDbSpline
70
4
71
3
72
8
73
4
74
0
42
0.000000001
43
0.0000000001
44
0.0000000001
40
0
40
0
40
0
40
0
40
1
40
1
40
1
40
1
41
1
41
1
41
1
41
1
10
211.60617514420386
20
145.84909113682295
30
0
10
211.91729969484314
20
145.28318312922735
30
0
10
212.3166216820772
20
144.84466311198003
30
0
10
212.80414110590607
20
144.53843551149498
30
0
0
SPLINE
5
298
100
AcDbEntity
8
0
100
AcDbSpline
70
4
71
3
72
8
73
4
74
0
42
0.000000001
43
0.0000000001
44
0.0000000001
40
0
40
0
40
0
40
0
40
1
40
1
40
1
40
1
41
1
41
1
41
1
41
1
10
213.54888872363844
20
151.80705338803253
30
0
10
213.54888872363844
20
152.29456533560159
30
0
10
213.67383197703944
20
152.75268062972566
30
0
10
213.92371100758174
20
153.18139927040474
30
0
0
SPLINE
5
299
100
AcDbEntity
8
0
100
AcDbSpline
70
4
71
3
72
8
73
4
74
0
42
0.000000001
43
0.0000000001
44
0.0000000001
40
0
40
0
40
0
40
0
40
1
40
1
40
1
40
1
41
1
41
1
41
1
41
1
10
213.92371100758174
20
153.18139927040474
30
0
10
214.17359003812402
20
153.60766569787677
30
0
10
214.53616620855186
20
153.95309132837511
30
0
10
215.01143204260543
20
154.21522394869265
30
0
0
SPLINE
5
300
100
AcDbEntity
8
0
100
AcDbSpline
70
4
71
3
72
8
73
4
74
0
42
0.000000001
43
0.0000000001
44
0.0000000001
40
0
40
0
40
0
40
0
40
1
40
1
40
1
40
1
41
1
41
1
41
1
41
1
10
215.01143204260543
20
154.21522394869265
30
0
10
215.48669787665901
20
154.4773565690102
30
0
10
216.05750283440884
20
154.6096415095127
30
0
10
216.72385439211467
20
154.6096415095127
30
0
0
SPLINE
5
301
100
AcDbEntity
8
0
100
AcDbSpline
70
4
71
3
72
8
73
4
74
0
42
0.000000001
43
0.0000000001
44
0.0000000001
40
0
40
0
40
0
40
0
40
1
40
1
40
1
40
1
41
1
41
1
41
1
41
1
10
216.72385439211467
20
154.6096415095127
30
0
10
217.39020594982054
20
154.6096415095127
30
0
10
217.96836007093162
20
154.45775381587367
30
0
10
218.40933230138597
20
154.15397842859565
30
0
0
SPLINE
5
302
100
AcDbEntity
8
0
100
AcDbSpline
70
4
71
3
72
8
73
4
74
0
42
0.000000001
43
0.0000000001
44
0.0000000001
40
0
40
0
40
0
40
0
40
1
40
1
40
1
40
1
41
1
41
1
41
1
41
1
10
218.40933230138597
20
154.15397842859565
30
0
10
218.85029705558054
20
153.8502030413176
30
0
10
219.07078690893763
20
153.40188164750202
30
0
10
219.07078690893763
20
152.80412477325442
30
0
0
SPLINE
5
303
100
AcDbEntity
8
0
100
AcDbSpline
70
4
71
3
72
8
73
4
74
0
42
0.000000001
43
0.0000000001
44
0.0000000001
40
0
40
0
40
0
40
0
40
1
40
1
40
1
40
1
41
1
41
1
41
1
41
1
10
219.07078690893763
20
152.80412477325442
30
0
10
219.07078690893763
20
152.37540613257534
30
0
10
218.95809724531182
20
152.02998050207702
30
0
10
218.72781349164629
20
151.7703000949665
30
0
0
SPLINE
5
304
100
AcDbEntity
8
0
100
AcDbSpline
70
4
71
3
72
8
73
4
74
0
42
0.000000001
43
0.0000000001
44
0.0000000001
40
0
40
0
40
0
40
0
40
1
40
1
40
1
40
1
41
1
41
1
41
1
41
1
10
218.72781349164629
20
151.7703000949665
30
0
10
218.49752973798076
20
151.51061968785595
30
0
10
218.1937543507027
20
151.30973258763541
30
0
10
217.80913069019113
20
151.17009100751187
30
0
0
SPLINE
5
305
100
AcDbEntity
8
0
100
AcDbSpline
70
4
71
3
72
8
73
4
74
0
42
0.000000001
43
0.0000000001
44
0.0000000001
40
0
40
0
40
0
40
0
40
1
40
1
40
1
40
1
41
1
41
1
41
1
41
1
10
217.80913069019113
20
151.17009100751187
30
0
10
217.42450702967957
20
151.03044942738836
30
0
10
216.99824060220749
20
150.93000587727806
30
0
10
216.53277614472219
20
150.87121257038808
30
0
0
SPLINE
5
306
100
AcDbEntity
8
0
100
AcDbSpline
70
4
71
3
72
8
73
4
74
0
42
0.000000001
43
0.0000000001
44
0.0000000001
40
0
40
0
40
0
40
0
40
1
40
1
40
1
40
1
41
1
41
1
41
1
41
1
10
216.53277614472219
20
150.87121257038808
30
0
10
216.33434125770867
20
150.84426813015011
30
0
10
216.08690696411361
20
150.80996705029108
30
0
10
215.79048074019681
20
150.77076902027781
30
0
0
SPLINE
5
307
100
AcDbEntity
8
0
100
AcDbSpline
70
4
71
3
72
8
73
4
74
0
42
0.000000001
43
0.0000000001
44
0.0000000001
40
0
40
0
40
0
40
0
40
1
40
1
40
1
40
1
41
1
41
1
41
1
41
1
10
215.79048074019681
20
150.77076902027781
30
0
10
215.49405451628004
20
150.73157099026457
30
0
10
215.19027165274224
20
150.68502379689005
30
0
10
214.87914710210291
20
150.63357965336129
30
0
0
SPLINE
5
308
100
AcDbEntity
8
0
100
AcDbSpline
70
4
71
3
72
8
73
4
74
0
42
0.000000001
43
0.0000000001
44
0.0000000001
40
0
40
0
40
0
40
0
40
1
40
1
40
1
40
1
41
1
41
1
41
1
41
1
10
214.87914710210291
20
150.63357965336129
30
0
10
214.56802255146363
20
150.58213550983254
30
0
10
214.29119160442357
20
150.52088998973551
30
0
10
214.04620952403553
20
150.44984309307026
30
0
0
SPLINE
5
309
100
AcDbEntity
8
0
100
AcDbSpline
70
4
71
3
72
8
73
4
74
0
42
0.000000001
43
0.0000000001
44
0.0000000001
40
0
40
0
40
0
40
0
40
1
40
1
40
1
40
1
41
1
41
1
41
1
41
1
10
214.04620952403553
20
150.44984309307026
30
0
10
213.80122744364752
20
150.37635145945777
30
0
10
213.63708616023325
20
150.29795539943126
30
0
10
213.55134841310525
20
150.21221017604347
30
0
0
LINE
5
310
100
AcDbEntity
8
0
100
AcDbLine
10
213.55134841310525
20
150.21221017604347
30
0
11
213.55134841310525
21
151.80704591177275
31
0
0
LINE
5
311
100
AcDbEntity
8
0
100
AcDbLine
10
213.55134841310525
20
151.80704591177275
30
0
11
213.54888872363844
21
151.80705338803253
31
0
0
LWPOLYLINE
5
312
100
AcDbEntity
8
0
100
AcDbPolyline
90
4
70
1
43
0.0
10
209.17349620779163
20
139.77353569272475
10
206.76532235757719
20
139.77353569272475
10
206.76532235757719
20
156.277978448467
10
209.17349620779163
20
156.277978448467
0
SPLINE
5
313
100
AcDbEntity
8
0
100
AcDbSpline
70
4
71
3
72
8
73
4
74
0
42
0.000000001
43
0.0000000001
44
0.0000000001
40
0
40
0
40
0
40
0
40
1
40
1
40
1
40
1
41
1
41
1
41
1
41
1
10
196.73820461109315
20
140.56482960668046
30
0
10
197.85532229956181
20
141.24343101603171
30
0
10
198.73725928421072
20
142.21601017422262
30
0
10
199.38156335183288
20
143.48256708125319
30
0
0
SPLINE
5
314
100
AcDbEntity
8
0
100
AcDbSpline
70
4
71
3
72
8
73
4
74
0
42
0.000000001
43
0.0000000001
44
0.0000000001
40
0
40
0
40
0
40
0
40
1
40
1
40
1
40
1
41
1
41
1
41
1
41
1
10
199.38156335183288
20
143.48256708125319
30
0
10
200.02586741945493
20
144.74912398828377
30
0
10
200.3492455598695
20
146.26066297570242
30
0
10
200.3492455598695
20
148.02453694500019
30
0
0
SPLINE
5
315
100
AcDbEntity
8
0
100
AcDbSpline
70
4
71
3
72
8
73
4
74
0
42
0.000000001
43
0.0000000001
44
0.0000000001
40
0
40
0
40
0
40
0
40
1
40
1
40
1
40
1
41
1
41
1
41
1
41
1
10
200.3492455598695
20
148.02453694500019
30
0
10
200.3492455598695
20
149.788410914298
30
0
10
200.02831963266198
20
151.29259700022547
30
0
10
199.38646777824687
20
152.56160238233318
30
0
0
SPLINE
5
316
100
AcDbEntity
8
0
100
AcDbSpline
70
4
71
3
72
8
73
4
74
0
42
0.000000001
43
0.0000000001
44
0.0000000001
40
0
40
0
40
0
40
0
40
1
40
1
40
1
40
1
41
1
41
1
41
1
41
1
10
199.38646777824687
20
152.56160238233318
30
0
10
198.74461592383176
20
153.83060776444086
30
0
10
197.86513115238989
20
154.8031869226318
30
0
10
196.74801346392118
20
155.48423680706014
30
0
0
SPLINE
5
317
100
AcDbEntity
8
0
100
AcDbSpline
70
4
71
3
72
8
73
4
74
0
42
0.000000001
43
0.0000000001
44
0.0000000001
40
0
40
0
40
0
40
0
40
1
40
1
40
1
40
1
41
1
41
1
41
1
41
1
10
196.74801346392118
20
155.48423680706014
30
0
10
195.63089577545247
20
156.1628344782815
30
0
10
194.35698596693078
20
156.50336315862558
30
0
10
192.92874372782282
20
156.50336315862558
30
0
0
SPLINE
5
318
100
AcDbEntity
8
0
100
AcDbSpline
70
4
71
3
72
8
73
4
74
0
42
0.000000001
43
0.0000000001
44
0.0000000001
40
0
40
0
40
0
40
0
40
1
40
1
40
1
40
1
41
1
41
1
41
1
41
1
10
192.92874372782282
20
156.50336315862558
30
0
10
192.01986230293591
20
156.50336315862558
30
0
10
191.18202029845452
20
156.36862600491605
30
0
10
190.41522519063841
20
156.09914422123725
30
0
0
SPLINE
5
319
100
AcDbEntity
8
0
100
AcDbSpline
70
4
71
3
72
8
73
4
74
0
42
0.000000001
43
0.0000000001
44
0.0000000001
40
0
40
0
40
0
40
0
40
1
40
1
40
1
40
1
41
1
41
1
41
1
41
1
10
190.41522519063841
20
156.09914422123725
30
0
10
189.6484300828223
20
155.82966243755845
30
0
10
188.96492798518693
20
155.44994320346089
30
0
10
188.36472637399208
20
154.95997904268481
30
0
0
SPLINE
5
320
100
AcDbEntity
8
0
100
AcDbSpline
70
4
71
3
72
8
73
4
74
0
42
0.000000001
43
0.0000000001
44
0.0000000001
40
0
40
0
40
0
40
0
40
1
40
1
40
1
40
1
41
1
41
1
41
1
41
1
10
188.36472637399208
20
154.95997904268481
30
0
10
187.76452476279724
20
154.47001488190875
30
0
10
187.27456060202115
20
153.88205938422939
30
0
10
186.88993694150957
20
153.20345423674826
30
0
0
SPLINE
5
321
100
AcDbEntity
8
0
100
AcDbSpline
70
4
71
3
72
8
73
4
74
0
42
0.000000001
43
0.0000000001
44
0.0000000001
40
0
40
0
40
0
40
0
40
1
40
1
40
1
40
1
41
1
41
1
41
1
41
1
10
186.88993694150957
20
153.20345423674826
30
0
10
186.50531328099802
20
152.5248565655269
30
0
10
186.2456328738875
20
151.77765673458754
30
0
10
186.11089572017795
20
150.9667666466039
30
0
0
LINE
5
322
100
AcDbEntity
8
0
100
AcDbLine
10
186.11089572017795
20
150.9667666466039
30
0
11
188.62441425736239
21
150.95941748324265
31
0
0
SPLINE
5
323
100
AcDbEntity
8
0
100
AcDbSpline
70
4
71
3
72
8
73
4
74
0
42
0.000000001
43
0.0000000001
44
0.0000000001
40
0
40
0
40
0
40
0
40
1
40
1
40
1
40
1
41
1
41
1
41
1
41
1
10
188.62441425736239
20
150.95941748324265
30
0
10
188.72731002067965
20
151.486127460825
30
0
10
188.91104658097072
20
151.95159191831033
30
0
10
189.17562393823547
20
152.35826306890561
30
0
0
SPLINE
5
324
100
AcDbEntity
8
0
100
AcDbSpline
70
4
71
3
72
8
73
4
74
0
42
0.000000001
43
0.0000000001
44
0.0000000001
40
0
40
0
40
0
40
0
40
1
40
1
40
1
40
1
41
1
41
1
41
1
41
1
10
189.17562393823547
20
152.35826306890561
30
0
10
189.44020129550026
20
152.76493421950093
30
0
10
189.76357943591481
20
153.10790763679225
30
0
10
190.14820309642636
20
153.38473858383227
30
0
0
SPLINE
5
325
100
AcDbEntity
8
0
100
AcDbSpline
70
4
71
3
72
8
73
4
74
0
42
0.000000001
43
0.0000000001
44
0.0000000001
40
0
40
0
40
0
40
0
40
1
40
1
40
1
40
1
41
1
41
1
41
1
41
1
10
190.14820309642636
20
153.38473858383227
30
0
10
190.52792233052395
20
153.66402174407935
30
0
10
190.956640971203
20
153.87470274460836
30
0
10
191.42455764189535
20
154.01924127488613
30
0
0
SPLINE
5
326
100
AcDbEntity
8
0
100
AcDbSpline
70
4
71
3
72
8
73
4
74
0
42
0.000000001
43
0.0000000001
44
0.0000000001
40
0
40
0
40
0
40
0
40
1
40
1
40
1
40
1
41
1
41
1
41
1
41
1
10
191.42455764189535
20
154.01924127488613
30
0
10
191.89492652579469
20
154.1613275919569
30
0
10
192.38978763672498
20
154.23237448862216
30
0
10
192.91160066415307
20
154.23237448862216
30
0
0
SPLINE
5
327
100
AcDbEntity
8
0
100
AcDbSpline
70
4
71
3
72
8
73
4
74
0
42
0.000000001
43
0.0000000001
44
0.0000000001
40
0
40
0
40
0
40
0
40
1
40
1
40
1
40
1
41
1
41
1
41
1
41
1
10
192.91160066415307
20
154.23237448862216
30
0
10
193.85233095569197
20
154.23237448862216
30
0
10
194.69752212353461
20
153.99719378480239
30
0
10
195.45206364157551
20
153.52437268769603
30
0
0
SPLINE
5
328
100
AcDbEntity
8
0
100
AcDbSpline
70
4
71
3
72
8
73
4
74
0
42
0.000000001
43
0.0000000001
44
0.0000000001
40
0
40
0
40
0
40
0
40
1
40
1
40
1
40
1
41
1
41
1
41
1
41
1
10
195.45206364157551
20
153.52437268769603
30
0
10
196.2041604226691
20
153.05155906684948
30
0
10
196.79701287050273
20
152.3533586424916
30
0
10
197.23063593759579
20
151.42977889088223
30
0
0
SPLINE
5
329
100
AcDbEntity
8
0
100
AcDbSpline
70
4
71
3
72
8
73
4
74
0
42
0.000000001
43
0.0000000001
44
0.0000000001
40
0
40
0
40
0
40
0
40
1
40
1
40
1
40
1
41
1
41
1
41
1
41
1
10
197.23063593759579
20
151.42977889088223
30
0
10
197.66425900468889
20
150.50619913927281
30
0
10
197.87983695537213
20
149.37193091087462
30
0
10
197.87983695537213
20
148.02942641889467
30
0
0
SPLINE
5
330
100
AcDbEntity
8
0
100
AcDbSpline
70
4
71
3
72
8
73
4
74
0
42
0.000000001
43
0.0000000001
44
0.0000000001
40
0
40
0
40
0
40
0
40
1
40
1
40
1
40
1
41
1
41
1
41
1
41
1
10
197.87983695537213
20
148.02942641889467
30
0
10
197.87983695537213
20
146.68692192691466
30
0
10
197.66425152842913
20
145.56735576336888
30
0
10
197.23063593759579
20
144.64377227362959
30
0
0
SPLINE
5
331
100
AcDbEntity
8
0
100
AcDbSpline
70
4
71
3
72
8
73
4
74
0
42
0.000000001
43
0.0000000001
44
0.0000000001
40
0
40
0
40
0
40
0
40
1
40
1
40
1
40
1
41
1
41
1
41
1
41
1
10
197.23063593759579
20
144.64377227362959
30
0
10
196.79702034676245
20
143.72018878389031
30
0
10
196.20661263587613
20
143.01953988445533
30
0
10
195.45696806798952
20
142.53937710024752
30
0
0
SPLINE
5
332
100
AcDbEntity
8
0
100
AcDbSpline
70
4
71
3
72
8
73
4
74
0
42
0.000000001
43
0.0000000001
44
0.0000000001
40
0
40
0
40
0
40
0
40
1
40
1
40
1
40
1
41
1
41
1
41
1
41
1
10
195.45696806798952
20
142.53937710024752
30
0
10
194.70732350010286
20
142.05921431603969
30
0
10
193.85723538210598
20
141.8215813990129
30
0
10
192.90670371399884
20
141.8215813990129
30
0
0
SPLINE
5
333
100
AcDbEntity
8
0
100
AcDbSpline
70
4
71
3
72
8
73
4
74
0
42
0.000000001
43
0.0000000001
44
0.0000000001
40
0
40
0
40
0
40
0
40
1
40
1
40
1
40
1
41
1
41
1
41
1
41
1
10
192.90670371399884
20
141.8215813990129
30
0
10
192.37999373641651
20
141.8215813990129
30
0
10
191.88268041227923
20
141.89507677075528
30
0
10
191.41231152837986
20
142.03961530103305
30
0
0
SPLINE
5
334
100
AcDbEntity
8
0
100
AcDbSpline
70
4
71
3
72
8
73
4
74
0
42
0.000000001
43
0.0000000001
44
0.0000000001
40
0
40
0
40
0
40
0
40
1
40
1
40
1
40
1
41
1
41
1
41
1
41
1
10
191.41231152837986
20
142.03961530103305
30
0
10
190.94194264448049
20
142.18415383131082
30
0
10
190.51567621700849
20
142.39973925825387
30
0
10
190.1359569829109
20
142.68391936865515
30
0
0
SPLINE
5
335
100
AcDbEntity
8
0
100
AcDbSpline
70
4
71
3
72
8
73
4
74
0
42
0.000000001
43
0.0000000001
44
0.0000000001
40
0
40
0
40
0
40
0
40
1
40
1
40
1
40
1
41
1
41
1
41
1
41
1
10
190.1359569829109
20
142.68391936865515
30
0
10
189.75623774881336
20
142.96809947905646
30
0
10
189.43285960839881
20
143.31597358463188
30
0
10
189.16827477487425
20
143.72264473522722
30
0
0
SPLINE
5
336
100
AcDbEntity
8
0
100
AcDbSpline
70
4
71
3
72
8
73
4
74
0
42
0.000000001
43
0.0000000001
44
0.0000000001
40
0
40
0
40
0
40
0
40
1
40
1
40
1
40
1
41
1
41
1
41
1
41
1
10
189.16827477487425
20
143.72264473522722
30
0
10
188.9061421545567
20
144.13176436089967
30
0
10
188.72485780747269
20
144.60458171987611
30
0
10
188.62686647056938
20
145.14108933589682
30
0
0
LINE
5
337
100
AcDbEntity
8
0
100
AcDbLine
10
188.62686647056938
20
145.14108933589682
30
0
11
186.11334793338497
21
145.14108933589682
31
0
0
SPLINE
5
338
100
AcDbEntity
8
0
100
AcDbSpline
70
4
71
3
72
8
73
4
74
0
42
0.000000001
43
0.0000000001
44
0.0000000001
40
0
40
0
40
0
40
0
40
1
40
1
40
1
40
1
41
1
41
1
41
1
41
1
10
186.113347933385
20
145.14108933589682
30
0
10
186.25298951350851
20
144.25425540109367
30
0
10
186.52246382092756
20
143.4678612782709
30
0
10
186.91933359495459
20
142.7770137554042
30
0
0
SPLINE
5
339
100
AcDbEntity
8
0
100
AcDbSpline
70
4
71
3
72
8
73
4
74
0
42
0.000000001
43
0.0000000001
44
0.0000000001
40
0
40
0
40
0
40
0
40
1
40
1
40
1
40
1
41
1
41
1
41
1
41
1
10
186.91933359495459
20
142.7770137554042
30
0
10
187.31620336898169
20
142.08616623253747
30
0
10
187.82086585648022
20
141.50065547180535
30
0
10
188.42597189408906
20
141.02049268759754
30
0
0
SPLINE
5
340
100
AcDbEntity
8
0
100
AcDbSpline
70
4
71
3
72
8
73
4
74
0
42
0.000000001
43
0.0000000001
44
0.0000000001
40
0
40
0
40
0
40
0
40
1
40
1
40
1
40
1
41
1
41
1
41
1
41
1
10
188.42597189408906
20
141.02049268759754
30
0
10
189.03353014490494
20
140.54032616525981
30
0
10
189.71702476628053
20
140.17530525788476
30
0
10
190.47647071073541
20
139.92542248921262
30
0
0
SPLINE
5
341
100
AcDbEntity
8
0
100
AcDbSpline
70
4
71
3
72
8
73
4
74
0
42
0.000000001
43
0.0000000001
44
0.0000000001
40
0
40
0
40
0
40
0
40
1
40
1
40
1
40
1
41
1
41
1
41
1
41
1
10
190.47647071073541
20
139.92542248921262
30
0
10
191.23591665519029
20
139.67553972054043
30
0
10
192.05415590653516
20
139.55060020526929
30
0
10
192.93118846477006
20
139.55060020526929
30
0
0
SPLINE
5
342
100
AcDbEntity
8
0
100
AcDbSpline
70
4
71
3
72
8
73
4
74
0
42
0.000000001
43
0.0000000001
44
0.0000000001
40
0
40
0
40
0
40
0
40
1
40
1
40
1
40
1
41
1
41
1
41
1
41
1
10
192.93118846477006
20
139.55060020526929
30
0
10
194.35453375372376
20
139.55060020526929
30
0
10
195.62599134903849
20
139.89112514748345
30
0
10
196.74310903750717
20
140.56972655683469
30
0
0
LINE
5
343
100
AcDbEntity
8
0
100
AcDbLine
10
196.74310903750717
20
140.56972655683469
30
0
11
196.73820461109315
21
140.56482960668046
31
0
0
SPLINE
5
344
100
AcDbEntity
8
0
100
AcDbSpline
70
4
71
3
72
8
73
4
74
0
42
0.000000001
43
0.0000000001
44
0.0000000001
40
0
40
0
40
0
40
0
40
1
40
1
40
1
40
1
41
1
41
1
41
1
41
1
10
176.31650197855083
20
144.53598703641785
30
0
10
177.18129589953003
20
144.0043763705514
30
0
10
178.19551034842164
20
143.73979527515672
30
0
10
179.35428575637036
20
143.73979527515672
30
0
0
SPLINE
5
345
100
AcDbEntity
8
0
100
AcDbSpline
70
4
71
3
72
8
73
4
74
0
42
0.000000001
43
0.0000000001
44
0.0000000001
40
0
40
0
40
0
40
0
40
1
40
1
40
1
40
1
41
1
41
1
41
1
41
1
10
179.35428575637036
20
143.73979527515672
30
0
10
180.51306116431908
20
143.73979527515672
30
0
10
181.52727561321072
20
144.0043763705514
30
0
10
182.39206953418986
20
144.53598703641785
30
0
0
SPLINE
5
346
100
AcDbEntity
8
0
100
AcDbSpline
70
4
71
3
72
8
73
4
74
0
42
0.000000001
43
0.0000000001
44
0.0000000001
40
0
40
0
40
0
40
0
40
1
40
1
40
1
40
1
41
1
41
1
41
1
41
1
10
182.39206953418986
20
144.53598703641785
30
0
10
183.25686345516908
20
145.0675977022843
30
0
10
183.92811196302915
20
145.81479379509381
30
0
10
184.40826727097718
20
146.77757157671647
30
0
0
SPLINE
5
347
100
AcDbEntity
8
0
100
AcDbSpline
70
4
71
3
72
8
73
4
74
0
42
0.000000001
43
0.0000000001
44
0.0000000001
40
0
40
0
40
0
40
0
40
1
40
1
40
1
40
1
41
1
41
1
41
1
41
1
10
184.40826727097718
20
146.77757157671647
30
0
10
184.88598531823777
20
147.737900883262
30
0
10
185.1260629722118
20
148.8623714732218
30
0
10
185.1260629722118
20
150.14607518205202
30
0
0
SPLINE
5
348
100
AcDbEntity
8
0
100
AcDbSpline
70
4
71
3
72
8
73
4
74
0
42
0.000000001
43
0.0000000001
44
0.0000000001
40
0
40
0
40
0
40
0
40
1
40
1
40
1
40
1
41
1
41
1
41
1
41
1
10
185.1260629722118
20
150.14607518205202
30
0
10
185.1260629722118
20
151.42977889088223
30
0
10
184.88598531823777
20
152.54199962919665
30
0
10
184.40826727097718
20
153.49988046066505
30
0
0
SPLINE
5
349
100
AcDbEntity
8
0
100
AcDbSpline
70
4
71
3
72
8
73
4
74
0
42
0.000000001
43
0.0000000001
44
0.0000000001
40
0
40
0
40
0
40
0
40
1
40
1
40
1
40
1
41
1
41
1
41
1
41
1
10
184.40826727097718
20
153.49988046066505
30
0
10
183.93054922371661
20
154.45530907892646
30
0
10
183.25930071585648
20
155.20005669665886
30
0
10
182.39206953418986
20
155.7316636243954
30
0
0
SPLINE
5
350
100
AcDbEntity
8
0
100
AcDbSpline
70
4
71
3
72
8
73
4
74
0
42
0.000000001
43
0.0000000001
44
0.0000000001
40
0
40
0
40
0
40
0
40
1
40
1
40
1
40
1
41
1
41
1
41
1
41
1
10
182.39206953418986
20
155.7316636243954
30
0
10
181.52483835252326
20
156.26327055213198
30
0
10
180.51306116431908
20
156.52785538565655
30
0
10
179.35428575637036
20
156.52785538565655
30
0
0
SPLINE
5
351
100
AcDbEntity
8
0
100
AcDbSpline
70
4
71
3
72
8
73
4
74
0
42
0.000000001
43
0.0000000001
44
0.0000000001
40
0
40
0
40
0
40
0
40
1
40
1
40
1
40
1
41
1
41
1
41
1
41
1
10
179.35428575637036
20
156.52785538565655
30
0
10
178.19551034842164
20
156.52785538565655
30
0
10
177.18129589953003
20
156.26327802839174
30
0
10
176.31650197855083
20
155.7316636243954
30
0
0
SPLINE
5
352
100
AcDbEntity
8
0
100
AcDbSpline
70
4
71
3
72
8
73
4
74
0
42
0.000000001
43
0.0000000001
44
0.0000000001
40
0
40
0
40
0
40
0
40
1
40
1
40
1
40
1
41
1
41
1
41
1
41
1
10
176.31650197855083
20
155.7316636243954
30
0
10
175.45170805757166
20
155.20004922039905
30
0
10
174.78045954971157
20
154.45530907892646
30
0
10
174.30030424176351
20
153.49988046066505
30
0
0
SPLINE
5
353
100
AcDbEntity
8
0
100
AcDbSpline
70
4
71
3
72
8
73
4
74
0
42
0.000000001
43
0.0000000001
44
0.0000000001
40
0
40
0
40
0
40
0
40
1
40
1
40
1
40
1
41
1
41
1
41
1
41
1
10
174.30030424176351
20
153.49988046066505
30
0
10
173.82014893381552
20
152.54445184240365
30
0
10
173.58250854052892
20
151.42488194072797
30
0
10
173.58250854052892
20
150.14607518205202
30
0
0
SPLINE
5
354
100
AcDbEntity
8
0
100
AcDbSpline
70
4
71
3
72
8
73
4
74
0
42
0.000000001
43
0.0000000001
44
0.0000000001
40
0
40
0
40
0
40
0
40
1
40
1
40
1
40
1
41
1
41
1
41
1
41
1
10
173.58250854052892
20
150.14607518205202
30
0
10
173.58250854052892
20
148.86726842337606
30
0
10
173.82258619450295
20
147.7403493583391
30
0
10
174.30030424176351
20
146.77757157671647
30
0
0
SPLINE
5
355
100
AcDbEntity
8
0
100
AcDbSpline
70
4
71
3
72
8
73
4
74
0
42
0.000000001
43
0.0000000001
44
0.0000000001
40
0
40
0
40
0
40
0
40
1
40
1
40
1
40
1
41
1
41
1
41
1
41
1
10
174.30030424176351
20
146.77757157671647
30
0
10
174.77802228902414
20
145.81724227017094
30
0
10
175.44927079688421
20
145.07004617736143
30
0
10
176.31650197855083
20
144.53598703641785
30
0
0
SPLINE
5
356
100
AcDbEntity
8
0
100
AcDbSpline
70
4
71
3
72
8
73
4
74
0
42
0.000000001
43
0.0000000001
44
0.0000000001
40
0
40
0
40
0
40
0
40
1
40
1
40
1
40
1
41
1
41
1
41
1
41
1
10
176.37774749864786
20
152.32151725209937
30
0
10
176.61782515262189
20
152.982971859651
30
0
10
176.98284605999692
20
153.51212657418057
30
0
10
177.47771464718704
20
153.90900382446739
30
0
0
SPLINE
5
357
100
AcDbEntity
8
0
100
AcDbSpline
70
4
71
3
72
8
73
4
74
0
42
0.000000001
43
0.0000000001
44
0.0000000001
40
0
40
0
40
0
40
0
40
1
40
1
40
1
40
1
41
1
41
1
41
1
41
1
10
177.47771464718704
20
153.90900382446739
30
0
10
177.97258323437711
20
154.30587359849443
30
0
10
178.5948323356557
20
154.50430848550798
30
0
10
179.34692911674932
20
154.50430848550798
30
0
0
SPLINE
5
358
100
AcDbEntity
8
0
100
AcDbSpline
70
4
71
3
72
8
73
4
74
0
42
0.000000001
43
0.0000000001
44
0.0000000001
40
0
40
0
40
0
40
0
40
1
40
1
40
1
40
1
41
1
41
1
41
1
41
1
10
179.34692911674932
20
154.50430848550798
30
0
10
180.09902589784298
20
154.50430848550798
30
0
10
180.73108385194956
20
154.30587359849443
30
0
10
181.22838969982712
20
153.90900382446739
30
0
0
SPLINE
5
359
100
AcDbEntity
8
0
100
AcDbSpline
70
4
71
3
72
8
73
4
74
0
42
0.000000001
43
0.0000000001
44
0.0000000001
40
0
40
0
40
0
40
0
40
1
40
1
40
1
40
1
41
1
41
1
41
1
41
1
10
181.22838969982712
20
153.90900382446739
30
0
10
181.72571050022424
20
153.51213405044032
30
0
10
182.09318362080631
20
152.982971859651
30
0
10
182.33326127478028
20
152.32151725209937
30
0
0
SPLINE
5
360
100
AcDbEntity
8
0
100
AcDbSpline
70
4
71
3
72
8
73
4
74
0
42
0.000000001
43
0.0000000001
44
0.0000000001
40
0
40
0
40
0
40
0
40
1
40
1
40
1
40
1
41
1
41
1
41
1
41
1
10
182.33326127478028
20
152.32151725209937
30
0
10
182.57333892875437
20
151.66006264454776
30
0
10
182.69094049505389
20
150.9324655667449
30
0
10
182.69094049505389
20
150.13872601869076
30
0
0
SPLINE
5
361
100
AcDbEntity
8
0
100
AcDbSpline
70
4
71
3
72
8
73
4
74
0
42
0.000000001
43
0.0000000001
44
0.0000000001
40
0
40
0
40
0
40
0
40
1
40
1
40
1
40
1
41
1
41
1
41
1
41
1
10
182.69094049505389
20
150.13872601869076
30
0
10
182.69094049505389
20
149.34498647063666
30
0
10
182.57090166806691
20
148.62228634298802
30
0
10
182.33326127478028
20
147.95838699848917
30
0
0
SPLINE
5
362
100
AcDbEntity
8
0
100
AcDbSpline
70
4
71
3
72
8
73
4
74
0
42
0.000000001
43
0.0000000001
44
0.0000000001
40
0
40
0
40
0
40
0
40
1
40
1
40
1
40
1
41
1
41
1
41
1
41
1
10
182.33326127478028
20
147.95838699848917
30
0
10
182.09318362080631
20
147.29448391586044
30
0
10
181.72571050022424
20
146.76042477491683
30
0
10
181.22838969982712
20
146.35865431260567
30
0
0
SPLINE
5
363
100
AcDbEntity
8
0
100
AcDbSpline
70
4
71
3
72
8
73
4
74
0
42
0.000000001
43
0.0000000001
44
0.0000000001
40
0
40
0
40
0
40
0
40
1
40
1
40
1
40
1
41
1
41
1
41
1
41
1
10
181.22838969982712
20
146.35865431260567
30
0
10
180.73106889943003
20
145.95443537521734
30
0
10
180.10391537173743
20
145.75599675007393
30
0
10
179.34692911674932
20
145.75599675007393
30
0
0
SPLINE
5
364
100
AcDbEntity
8
0
100
AcDbSpline
70
4
71
3
72
8
73
4
74
0
42
0.000000001
43
0.0000000001
44
0.0000000001
40
0
40
0
40
0
40
0
40
1
40
1
40
1
40
1
41
1
41
1
41
1
41
1
10
179.34692911674932
20
145.75599675007393
30
0
10
178.58994286176124
20
145.75599675007393
30
0
10
177.97013102117012
20
145.95688385029447
30
0
10
177.47771464718704
20
146.35865431260567
30
0
0
SPLINE
5
365
100
AcDbEntity
8
0
100
AcDbSpline
70
4
71
3
72
8
73
4
74
0
42
0.000000001
43
0.0000000001
44
0.0000000001
40
0
40
0
40
0
40
0
40
1
40
1
40
1
40
1
41
1
41
1
41
1
41
1
10
177.47771464718704
20
146.35865431260567
30
0
10
176.98529827320391
20
146.76042477491683
30
0
10
176.61782515262189
20
147.2944876539903
30
0
10
176.37774749864786
20
147.95838699848917
30
0
0
SPLINE
5
366
100
AcDbEntity
8
0
100
AcDbSpline
70
4
71
3
72
8
73
4
74
0
42
0.000000001
43
0.0000000001
44
0.0000000001
40
0
40
0
40
0
40
0
40
1
40
1
40
1
40
1
41
1
41
1
41
1
41
1
10
176.37774749864786
20
147.95838699848917
30
0
10
176.13766984467384
20
148.62228634298802
30
0
10
176.02006827837428
20
149.34988342079089
30
0
10
176.02006827837428
20
150.13872601869076
30
0
0
SPLINE
5
367
100
AcDbEntity
8
0
100
AcDbSpline
70
4
71
3
72
8
73
4
74
0
42
0.000000001
43
0.0000000001
44
0.0000000001
40
0
40
0
40
0
40
0
40
1
40
1
40
1
40
1
41
1
41
1
41
1
41
1
10
176.02006827837428
20
150.13872601869076
30
0
10
176.02006827837428
20
150.92756861659063
30
0
10
176.14010710536127
20
151.66251485775476
30
0
10
176.37774749864786
20
152.32151725209937
30
0
0
SPLINE
5
368
100
AcDbEntity
8
0
100
AcDbSpline
70
4
71
3
72
8
73
4
74
0
42
0.000000001
43
0.0000000001
44
0.0000000001
40
0
40
0
40
0
40
0
40
1
40
1
40
1
40
1
41
1
41
1
41
1
41
1
10
163.81751145234682
20
144.26650525273908
30
0
10
164.45202161966046
20
143.91618267208651
30
0
10
165.18940512151201
20
143.73734306194973
30
0
10
166.03459628935465
20
143.73734306194973
30
0
0
SPLINE
5
369
100
AcDbEntity
8
0
100
AcDbSpline
70
4
71
3
72
8
73
4
74
0
42
0.000000001
43
0.0000000001
44
0.0000000001
40
0
40
0
40
0
40
0
40
1
40
1
40
1
40
1
41
1
41
1
41
1
41
1
10
166.03459628935465
20
143.73734306194973
30
0
10
166.96552520432527
20
143.73734306194973
30
0
10
167.73477252534843
20
143.93577794896322
30
0
10
168.34232329990448
20
144.33264772299029
30
0
0
SPLINE
5
370
100
AcDbEntity
8
0
100
AcDbSpline
70
4
71
3
72
8
73
4
74
0
42
0.000000001
43
0.0000000001
44
0.0000000001
40
0
40
0
40
0
40
0
40
1
40
1
40
1
40
1
41
1
41
1
41
1
41
1
10
168.34232329990448
20
144.33264772299029
30
0
10
168.94987407446058
20
144.72951749701735
30
0
10
169.39819546827619
20
145.25623121272957
30
0
10
169.68482031562471
20
145.91278139386719
30
0
0
LINE
5
371
100
AcDbEntity
8
0
100
AcDbLine
10
169.68482031562471
20
145.91278139386719
30
0
11
169.83916022247072
21
145.91278139386719
31
0
0
LINE
5
372
100
AcDbEntity
8
0
100
AcDbLine
10
169.83916022247072
20
145.91278139386719
30
0
11
169.83916022247072
21
143.89657991894998
31
0
0
LINE
5
373
100
AcDbEntity
8
0
100
AcDbLine
10
169.83916022247072
20
143.89657991894998
30
0
11
172.15179165943459
21
143.89657991895001
31
0
0
LINE
5
374
100
AcDbEntity
8
0
100
AcDbLine
10
172.15179165943459
20
143.89657991895001
30
0
11
172.15179165943459
21
156.27307192870023
31
0
0
LINE
5
375
100
AcDbEntity
8
0
100
AcDbLine
10
172.15179165943459
20
156.27307192870023
30
0
11
169.74361362251472
21
156.27307192870023
31
0
0
LINE
5
376
100
AcDbEntity
8
0
100
AcDbLine
10
169.74361362251472
20
156.27307192870023
30
0
11
169.74361362251472
21
148.92360951705905
31
0
0
SPLINE
5
377
100
AcDbEntity
8
0
100
AcDbSpline
70
4
71
3
72
8
73
4
74
0
42
0.000000001
43
0.0000000001
44
0.0000000001
40
0
40
0
40
0
40
0
40
1
40
1
40
1
40
1
41
1
41
1
41
1
41
1
10
169.74361362251472
20
148.92360951705905
30
0
10
169.74361362251472
20
148.26705933592143
30
0
10
169.61867036911369
20
147.70849675355723
30
0
10
169.3687838623116
20
147.2430322960719
30
0
0
SPLINE
5
378
100
AcDbEntity
8
0
100
AcDbSpline
70
4
71
3
72
8
73
4
74
0
42
0.000000001
43
0.0000000001
44
0.0000000001
40
0
40
0
40
0
40
0
40
1
40
1
40
1
40
1
41
1
41
1
41
1
41
1
10
169.3687838623116
20
147.2430322960719
30
0
10
169.11889735550957
20
146.77756783858658
30
0
10
168.77838362768503
20
146.42479304472701
30
0
10
168.34476056059196
20
146.1822594394161
30
0
0
SPLINE
5
379
100
AcDbEntity
8
0
100
AcDbSpline
70
4
71
3
72
8
73
4
74
0
42
0.000000001
43
0.0000000001
44
0.0000000001
40
0
40
0
40
0
40
0
40
1
40
1
40
1
40
1
41
1
41
1
41
1
41
1
10
168.34476056059196
20
146.1822594394161
30
0
10
167.91113749349887
20
145.93972583410516
30
0
10
167.41628385882834
20
145.81968700711815
30
0
10
166.85771753833421
20
145.81968700711815
30
0
0
SPLINE
5
380
100
AcDbEntity
8
0
100
AcDbSpline
70
4
71
3
72
8
73
4
74
0
42
0.000000001
43
0.0000000001
44
0.0000000001
40
0
40
0
40
0
40
0
40
1
40
1
40
1
40
1
41
1
41
1
41
1
41
1
10
166.85771753833421
20
145.81968700711815
30
0
10
166.04192302393656
20
145.81968700711815
30
0
10
165.40007116952148
20
146.07446672594457
30
0
10
164.93216197508895
20
146.58158142665016
30
0
0
SPLINE
5
381
100
AcDbEntity
8
0
100
AcDbSpline
70
4
71
3
72
8
73
4
74
0
42
0.000000001
43
0.0000000001
44
0.0000000001
40
0
40
0
40
0
40
0
40
1
40
1
40
1
40
1
41
1
41
1
41
1
41
1
10
164.93216197508895
20
146.58158142665016
30
0
10
164.46425278065635
20
147.08869612735577
30
0
10
164.2315168137838
20
147.79179350186786
30
0
10
164.2315168137838
20
148.68842881323926
30
0
0
LINE
5
382
100
AcDbEntity
8
0
100
AcDbLine
10
164.2315168137838
20
148.68842881323926
30
0
11
164.2315168137838
21
156.27307192870023
31
0
0
LINE
5
383
100
AcDbEntity
8
0
100
AcDbLine
10
164.2315168137838
20
156.27307192870023
30
0
11
161.82333877686389
21
156.27307192870023
31
0
0
LINE
5
384
100
AcDbEntity
8
0
100
AcDbLine
10
161.82333877686389
20
156.27307192870023
30
0
11
161.82333877686389
21
148.39934801455382
31
0
0
SPLINE
5
385
100
AcDbEntity
8
0
100
AcDbSpline
70
4
71
3
72
8
73
4
74
0
42
0.000000001
43
0.0000000001
44
0.0000000001
40
0
40
0
40
0
40
0
40
1
40
1
40
1
40
1
41
1
41
1
41
1
41
1
10
161.82333877686389
20
148.39934801455382
30
0
10
161.82333877686389
20
147.38022166298839
30
0
10
161.99728143684644
20
146.52033590655316
30
0
10
162.34760401749901
20
145.82948464555653
30
0
0
SPLINE
5
386
100
AcDbEntity
8
0
100
AcDbSpline
70
4
71
3
72
8
73
4
74
0
42
0.000000001
43
0.0000000001
44
0.0000000001
40
0
40
0
40
0
40
0
40
1
40
1
40
1
40
1
41
1
41
1
41
1
41
1
10
162.34760401749901
20
145.82948464555653
30
0
10
162.69792659815153
20
145.13618490948278
30
0
10
163.18789075892764
20
144.61437188205471
30
0
10
163.82240092624127
20
144.26160082632504
30
0
0
LINE
5
387
100
AcDbEntity
8
0
100
AcDbLine
10
163.82240092624127
20
144.26160082632504
30
0
11
163.81751145234682
21
144.26650525273908
31
0
0
SPLINE
5
388
100
AcDbEntity
8
0
100
AcDbSpline
70
4
71
3
72
8
73
4
74
0
42
0.000000001
43
0.0000000001
44
0.0000000001
40
0
40
0
40
0
40
0
40
1
40
1
40
1
40
1
41
1
41
1
41
1
41
1
10
154.61353289786581
20
154.2544294549657
30
0
10
154.75807890440333
20
154.2813738952037
30
0
10
154.92711713797186
20
154.29362748497897
30
0
10
155.12064759857137
20
154.29362748497897
30
0
0
SPLINE
5
389
100
AcDbEntity
8
0
100
AcDbSpline
70
4
71
3
72
8
73
4
74
0
42
0.000000001
43
0.0000000001
44
0.0000000001
40
0
40
0
40
0
40
0
40
1
40
1
40
1
40
1
41
1
41
1
41
1
41
1
10
155.12064759857137
20
154.29362748497897
30
0
10
155.38278021888891
20
154.29362748497897
30
0
10
155.62776229927695
20
154.25197724175868
30
0
10
155.85068941332148
20
154.16868423157791
30
0
0
SPLINE
5
390
100
AcDbEntity
8
0
100
AcDbSpline
70
4
71
3
72
8
73
4
74
0
42
0.000000001
43
0.0000000001
44
0.0000000001
40
0
40
0
40
0
40
0
40
1
40
1
40
1
40
1
41
1
41
1
41
1
41
1
10
155.85068941332148
20
154.16868423157791
30
0
10
156.073616527366
20
154.08539122139717
30
0
10
156.25491582696958
20
153.92615436439689
30
0
10
156.39454245457355
20
153.69341839752434
30
0
0
SPLINE
5
391
100
AcDbEntity
8
0
100
AcDbSpline
70
4
71
3
72
8
73
4
74
0
42
0.000000001
43
0.0000000001
44
0.0000000001
40
0
40
0
40
0
40
0
40
1
40
1
40
1
40
1
41
1
41
1
41
1
41
1
10
156.39454245457355
20
153.69341839752434
30
0
10
156.53416908217753
20
153.46068243065179
30
0
10
156.60522345510256
20
153.10790763679225
30
0
10
156.60522345510256
20
152.64244317930692
30
0
0
LINE
5
392
100
AcDbEntity
8
0
100
AcDbLine
10
156.60522345510256
20
152.64244317930692
30
0
11
156.60522345510256
21
145.83194059689345
31
0
0
LINE
5
393
100
AcDbEntity
8
0
100
AcDbLine
10
156.60522345510256
20
145.83194059689345
30
0
11
154.06721269088717
21
145.83194059689345
31
0
0
LINE
5
394
100
AcDbEntity
8
0
100
AcDbLine
10
154.06721269088717
20
145.83194059689345
30
0
11
154.06721269088717
21
143.899032132157
31
0
0
LINE
5
395
100
AcDbEntity
8
0
100
AcDbLine
10
154.06721269088717
20
143.899032132157
30
0
11
156.60522345510256
21
143.899032132157
31
0
0
LINE
5
396
100
AcDbEntity
8
0
100
AcDbLine
10
156.60522345510256
20
143.899032132157
30
0
11
156.60522345510256
21
140.93229898913265
31
0
0
LINE
5
397
100
AcDbEntity
8
0
100
AcDbLine
10
156.60522345510256
20
140.93229898913265
30
0
11
159.01340149202247
21
140.93229898913265
31
0
0
LINE
5
398
100
AcDbEntity
8
0
100
AcDbLine
10
159.01340149202247
20
140.93229898913265
30
0
11
159.01340149202247
21
143.899032132157
31
0
0
LINE
5
399
100
AcDbEntity
8
0
100
AcDbLine
10
159.01340149202247
20
143.899032132157
30
0
11
160.82627486790176
21
143.899032132157
31
0
0
LINE
5
400
100
AcDbEntity
8
0
100
AcDbLine
10
160.82627486790176
20
143.899032132157
30
0
11
160.82627486790182
21
145.83194059689345
31
0
0
LINE
5
401
100
AcDbEntity
8
0
100
AcDbLine
10
160.82627486790182
20
145.83194059689345
30
0
11
159.01340149202247
21
145.83194059689345
31
0
0
LINE
5
402
100
AcDbEntity
8
0
100
AcDbLine
10
159.01340149202247
20
145.83194059689345
30
0
11
159.01340149202247
21
153.14220871665125
31
0
0
SPLINE
5
403
100
AcDbEntity
8
0
100
AcDbSpline
70
4
71
3
72
8
73
4
74
0
42
0.000000001
43
0.0000000001
44
0.0000000001
40
0
40
0
40
0
40
0
40
1
40
1
40
1
40
1
41
1
41
1
41
1
41
1
10
159.01340149202247
20
153.14220871665125
30
0
10
159.01340149202247
20
153.88940107133089
30
0
10
158.84436325845394
20
154.50920543566224
30
0
10
158.50628679131688
20
155.00407402285231
30
0
0
SPLINE
5
404
100
AcDbEntity
8
0
100
AcDbSpline
70
4
71
3
72
8
73
4
74
0
42
0.000000001
43
0.0000000001
44
0.0000000001
40
0
40
0
40
0
40
0
40
1
40
1
40
1
40
1
41
1
41
1
41
1
41
1
10
158.50628679131688
20
155.00407402285231
30
0
10
158.16821032417982
20
155.49893513378262
30
0
10
157.72479335677826
20
155.86396351741746
30
0
10
157.17603588911217
20
156.09914422123725
30
0
0
SPLINE
5
405
100
AcDbEntity
8
0
100
AcDbSpline
70
4
71
3
72
8
73
4
74
0
42
0.000000001
43
0.0000000001
44
0.0000000001
40
0
40
0
40
0
40
0
40
1
40
1
40
1
40
1
41
1
41
1
41
1
41
1
10
157.17603588911217
20
156.09914422123725
30
0
10
156.62727842144608
20
156.33432492505702
30
0
10
156.03686323429997
20
156.4494668018898
30
0
10
155.4023680195059
20
156.43722068837431
30
0
0
SPLINE
5
406
100
AcDbEntity
8
0
100
AcDbSpline
70
4
71
3
72
8
73
4
74
0
42
0.000000001
43
0.0000000001
44
0.0000000001
40
0
40
0
40
0
40
0
40
1
40
1
40
1
40
1
41
1
41
1
41
1
41
1
10
155.4023680195059
20
156.43722068837431
30
0
10
155.01529214578733
20
156.43232373822005
30
0
10
154.69436621857977
20
156.40047487156806
30
0
10
154.43468581146922
20
156.34412630162529
30
0
0
SPLINE
5
407
100
AcDbEntity
8
0
100
AcDbSpline
70
4
71
3
72
8
73
4
74
0
42
0.000000001
43
0.0000000001
44
0.0000000001
40
0
40
0
40
0
40
0
40
1
40
1
40
1
40
1
41
1
41
1
41
1
41
1
10
154.43468581146922
20
156.34412630162529
30
0
10
154.1750054043587
20
156.28777773168252
30
0
10
153.97902273055217
20
156.23388137494675
30
0
10
153.83938115042864
20
156.17998501821097
30
0
0
LINE
5
408
100
AcDbEntity
8
0
100
AcDbLine
10
153.83938115042864
20
156.17998501821097
30
0
11
154.27545643072872
21
154.19073172166168
31
0
0
SPLINE
5
409
100
AcDbEntity
8
0
100
AcDbSpline
70
4
71
3
72
8
73
4
74
0
42
0.000000001
43
0.0000000001
44
0.0000000001
40
0
40
0
40
0
40
0
40
1
40
1
40
1
40
1
41
1
41
1
41
1
41
1
10
154.27545643072872
20
154.19073172166168
30
0
10
154.35630470396228
20
154.20788226159118
30
0
10
154.46898689132826
20
154.22747753846792
30
0
10
154.61353289786581
20
154.25687419191294
30
0
0
LINE
5
410
100
AcDbEntity
8
0
100
AcDbLine
10
154.61353289786581
20
154.25687419191294
30
0
11
154.61353289786581
21
154.2544294549657
31
0
0
LINE
5
411
100
AcDbEntity
8
0
100
AcDbLine
10
152.65367625476148
20
143.899032132157
30
0
11
152.65367625476148
21
156.27552414190723
31
0
0
LINE
5
412
100
AcDbEntity
8
0
100
AcDbLine
10
152.65367625476148
20
156.27552414190723
30
0
11
150.24549821784157
21
156.27552414190723
31
0
0
LINE
5
413
100
AcDbEntity
8
0
100
AcDbLine
10
150.24549821784157
20
156.27552414190723
30
0
11
150.24549821784154
21
148.71782546668425
31
0
0
SPLINE
5
414
100
AcDbEntity
8
0
100
AcDbSpline
70
4
71
3
72
8
73
4
74
0
42
0.000000001
43
0.0000000001
44
0.0000000001
40
0
40
0
40
0
40
0
40
1
40
1
40
1
40
1
41
1
41
1
41
1
41
1
10
150.24549821784154
20
148.71782546668427
30
0
10
150.24549821784154
20
148.1813141125337
30
0
10
150.11810275123352
20
147.70115132832586
30
0
10
149.858422344123
20
147.27978185100801
30
0
0
SPLINE
5
415
100
AcDbEntity
8
0
100
AcDbSpline
70
4
71
3
72
8
73
4
74
0
42
0.000000001
43
0.0000000001
44
0.0000000001
40
0
40
0
40
0
40
0
40
1
40
1
40
1
40
1
41
1
41
1
41
1
41
1
10
149.858422344123
20
147.27978185100801
30
0
10
149.60119415021947
20
146.85841237369021
30
0
10
149.2508715695669
20
146.52768506991441
30
0
10
148.80745460216534
20
146.29005589101752
30
0
0
SPLINE
5
416
100
AcDbEntity
8
0
100
AcDbSpline
70
4
71
3
72
8
73
4
74
0
42
0.000000001
43
0.0000000001
44
0.0000000001
40
0
40
0
40
0
40
0
40
1
40
1
40
1
40
1
41
1
41
1
41
1
41
1
10
148.80745460216534
20
146.29005589101752
30
0
10
148.36403763476375
20
146.05242671212062
30
0
10
147.85937514726521
20
145.93238040887383
30
0
10
147.28856271325557
20
145.93238040887383
30
0
0
SPLINE
5
417
100
AcDbEntity
8
0
100
AcDbSpline
70
4
71
3
72
8
73
4
74
0
42
0.000000001
43
0.0000000001
44
0.0000000001
40
0
40
0
40
0
40
0
40
1
40
1
40
1
40
1
41
1
41
1
41
1
41
1
10
147.28856271325557
20
145.93238040887383
30
0
10
147.04112841966054
20
145.93238040887383
30
0
10
146.79369412606547
20
145.94953094880333
30
0
10
146.54625983247044
20
145.98382829053247
30
0
0
SPLINE
5
418
100
AcDbEntity
8
0
100
AcDbSpline
70
4
71
3
72
8
73
4
74
0
42
0.000000001
43
0.0000000001
44
0.0000000001
40
0
40
0
40
0
40
0
40
1
40
1
40
1
40
1
41
1
41
1
41
1
41
1
10
146.54625983247044
20
145.98382829053247
30
0
10
146.29882553887538
20
146.01812563226159
30
0
10
146.12733509209986
20
146.0499744989136
30
0
10
146.03180344466338
20
146.07692267728146
30
0
0
LINE
5
419
100
AcDbEntity
8
0
100
AcDbLine
10
146.03180344466338
20
146.07692267728146
30
0
11
146.03180344466338
21
143.77164040367884
31
0
0
SPLINE
5
420
100
AcDbEntity
8
0
100
AcDbSpline
70
4
71
3
72
8
73
4
74
0
42
0.000000001
43
0.0000000001
44
0.0000000001
40
0
40
0
40
0
40
0
40
1
40
1
40
1
40
1
41
1
41
1
41
1
41
1
10
146.03180344466338
20
143.77164040367884
30
0
10
146.14939005844337
20
143.75448986374934
30
0
10
146.31108660491043
20
143.74224375023385
30
0
10
146.51931539223244
20
143.73244237366561
30
0
0
SPLINE
5
421
100
AcDbEntity
8
0
100
AcDbSpline
70
4
71
3
72
8
73
4
74
0
42
0.000000001
43
0.0000000001
44
0.0000000001
40
0
40
0
40
0
40
0
40
1
40
1
40
1
40
1
41
1
41
1
41
1
41
1
10
146.51931539223244
20
143.73244237366561
30
0
10
146.72754417955446
20
143.7226409970973
30
0
10
146.90393905274402
20
143.71529183373607
30
0
10
147.05582674638305
20
143.71529183373607
30
0
0
SPLINE
5
422
100
AcDbEntity
8
0
100
AcDbSpline
70
4
71
3
72
8
73
4
74
0
42
0.000000001
43
0.0000000001
44
0.0000000001
40
0
40
0
40
0
40
0
40
1
40
1
40
1
40
1
41
1
41
1
41
1
41
1
10
147.05582674638305
20
143.71529183373607
30
0
10
147.78097908723865
20
143.71529183373607
30
0
10
148.43017262875523
20
143.90637755738837
30
0
10
149.00098506276487
20
144.29100121789992
30
0
0
SPLINE
5
423
100
AcDbEntity
8
0
100
AcDbSpline
70
4
71
3
72
8
73
4
74
0
42
0.000000001
43
0.0000000001
44
0.0000000001
40
0
40
0
40
0
40
0
40
1
40
1
40
1
40
1
41
1
41
1
41
1
41
1
10
149.00098506276487
20
144.29100121789992
30
0
10
149.57424970998147
20
144.6756248784115
30
0
10
149.973556744696
20
145.19988638091672
30
0
10
150.19895102446708
20
145.86623420049267
30
0
0
LINE
5
424
100
AcDbEntity
8
0
100
AcDbLine
10
150.19895102446708
20
145.86623420049267
30
0
11
150.3263464910751
21
145.86623420049267
31
0
0
LINE
5
425
100
AcDbEntity
8
0
100
AcDbLine
10
150.3263464910751
20
145.86623420049267
30
0
11
150.3263464910751
21
143.89902839402711
31
0
0
LINE
5
426
100
AcDbEntity
8
0
100
AcDbLine
10
150.3263464910751
20
143.89902839402711
30
0
11
152.65612846796847
21
143.89902839402711
31
0
0
LINE
5
427
100
AcDbEntity
8
0
100
AcDbLine
10
152.65612846796847
20
143.89902839402711
30
0
11
152.65367625476148
21
143.899032132157
31
0
0
SPLINE
5
428
100
AcDbEntity
8
0
100
AcDbSpline
70
4
71
3
72
8
73
4
74
0
42
0.000000001
43
0.0000000001
44
0.0000000001
40
0
40
0
40
0
40
0
40
1
40
1
40
1
40
1
41
1
41
1
41
1
41
1
10
145.47325207668879
20
153.49742824745806
30
0
10
144.99553402942823
20
154.45285686571947
30
0
10
144.3242855215681
20
155.19760448345184
30
0
10
143.4570543399015
20
155.7292114111884
30
0
0
SPLINE
5
429
100
AcDbEntity
8
0
100
AcDbSpline
70
4
71
3
72
8
73
4
74
0
42
0.000000001
43
0.0000000001
44
0.0000000001
40
0
40
0
40
0
40
0
40
1
40
1
40
1
40
1
41
1
41
1
41
1
41
1
10
143.4570543399015
20
155.7292114111884
30
0
10
142.59226041892234
20
156.26082581518475
30
0
10
141.5780459700307
20
156.52540317244953
30
0
10
140.41927056208198
20
156.52540317244953
30
0
0
SPLINE
5
430
100
AcDbEntity
8
0
100
AcDbSpline
70
4
71
3
72
8
73
4
74
0
42
0.000000001
43
0.0000000001
44
0.0000000001
40
0
40
0
40
0
40
0
40
1
40
1
40
1
40
1
41
1
41
1
41
1
41
1
10
140.41927056208198
20
156.52540317244953
30
0
10
139.26049515413325
20
156.52540317244953
30
0
10
138.24628070524165
20
156.26082581518475
30
0
10
137.38148678426245
20
155.7292114111884
30
0
0
SPLINE
5
431
100
AcDbEntity
8
0
100
AcDbSpline
70
4
71
3
72
8
73
4
74
0
42
0.000000001
43
0.0000000001
44
0.0000000001
40
0
40
0
40
0
40
0
40
1
40
1
40
1
40
1
41
1
41
1
41
1
41
1
10
137.38148678426245
20
155.7292114111884
30
0
10
136.51669286328328
20
155.19759700719206
30
0
10
135.84544435542318
20
154.45285686571947
30
0
10
135.36528904747516
20
153.49742824745806
30
0
0
SPLINE
5
432
100
AcDbEntity
8
0
100
AcDbSpline
70
4
71
3
72
8
73
4
74
0
42
0.000000001
43
0.0000000001
44
0.0000000001
40
0
40
0
40
0
40
0
40
1
40
1
40
1
40
1
41
1
41
1
41
1
41
1
10
135.36528904747516
20
153.49742824745806
30
0
10
134.88513373952711
20
152.54199962919665
30
0
10
134.64749334624057
20
151.42242972752098
30
0
10
134.64749334624057
20
150.14362296884499
30
0
0
SPLINE
5
433
100
AcDbEntity
8
0
100
AcDbSpline
70
4
71
3
72
8
73
4
74
0
42
0.000000001
43
0.0000000001
44
0.0000000001
40
0
40
0
40
0
40
0
40
1
40
1
40
1
40
1
41
1
41
1
41
1
41
1
10
134.64749334624057
20
150.14362296884499
30
0
10
134.64749334624057
20
148.86481621016907
30
0
10
134.88757100021456
20
147.73789714513211
30
0
10
135.36528904747516
20
146.77511936350948
30
0
0
SPLINE
5
434
100
AcDbEntity
8
0
100
AcDbSpline
70
4
71
3
72
8
73
4
74
0
42
0.000000001
43
0.0000000001
44
0.0000000001
40
0
40
0
40
0
40
0
40
1
40
1
40
1
40
1
41
1
41
1
41
1
41
1
10
135.36528904747516
20
146.77511936350948
30
0
10
135.84300709473575
20
145.81479005696391
30
0
10
136.51425560259582
20
145.06759396415444
30
0
10
137.38148678426245
20
144.53353482321086
30
0
0
SPLINE
5
435
100
AcDbEntity
8
0
100
AcDbSpline
70
4
71
3
72
8
73
4
74
0
42
0.000000001
43
0.0000000001
44
0.0000000001
40
0
40
0
40
0
40
0
40
1
40
1
40
1
40
1
41
1
41
1
41
1
41
1
10
137.38148678426245
20
144.53353482321086
30
0
10
138.24628070524165
20
144.00192415734438
30
0
10
139.26049515413325
20
143.73734306194973
30
0
10
140.41927056208198
20
143.73734306194973
30
0
0
SPLINE
5
436
100
AcDbEntity
8
0
100
AcDbSpline
70
4
71
3
72
8
73
4
74
0
42
0.000000001
43
0.0000000001
44
0.0000000001
40
0
40
0
40
0
40
0
40
1
40
1
40
1
40
1
41
1
41
1
41
1
41
1
10
140.41927056208198
20
143.73734306194973
30
0
10
141.5780459700307
20
143.73734306194973
30
0
10
142.59226041892234
20
144.00192415734438
30
0
10
143.4570543399015
20
144.53353482321086
30
0
0
SPLINE
5
437
100
AcDbEntity
8
0
100
AcDbSpline
70
4
71
3
72
8
73
4
74
0
42
0.000000001
43
0.0000000001
44
0.0000000001
40
0
40
0
40
0
40
0
40
1
40
1
40
1
40
1
41
1
41
1
41
1
41
1
10
143.4570543399015
20
144.53353482321086
30
0
10
144.32184826088064
20
145.06514548907731
30
0
10
144.99309676874077
20
145.81234158188681
30
0
10
145.47325207668879
20
146.77511936350948
30
0
0
SPLINE
5
438
100
AcDbEntity
8
0
100
AcDbSpline
70
4
71
3
72
8
73
4
74
0
42
0.000000001
43
0.0000000001
44
0.0000000001
40
0
40
0
40
0
40
0
40
1
40
1
40
1
40
1
41
1
41
1
41
1
41
1
10
145.47325207668879
20
146.77511936350948
30
0
10
145.95097012394942
20
147.73544867005498
30
0
10
146.19104777792342
20
148.85991926001481
30
0
10
146.19104777792342
20
150.14362296884499
30
0
0
SPLINE
5
439
100
AcDbEntity
8
0
100
AcDbSpline
70
4
71
3
72
8
73
4
74
0
42
0.000000001
43
0.0000000001
44
0.0000000001
40
0
40
0
40
0
40
0
40
1
40
1
40
1
40
1
41
1
41
1
41
1
41
1
10
146.19104777792342
20
150.14362296884499
30
0
10
146.19104777792342
20
151.42732667767521
30
0
10
145.95097012394942
20
152.53954741598963
30
0
10
145.47325207668879
20
153.49742824745806
30
0
0
SPLINE
5
440
100
AcDbEntity
8
0
100
AcDbSpline
70
4
71
3
72
8
73
4
74
0
42
0.000000001
43
0.0000000001
44
0.0000000001
40
0
40
0
40
0
40
0
40
1
40
1
40
1
40
1
41
1
41
1
41
1
41
1
10
143.39826103301149
20
147.95593478528215
30
0
10
143.15818337903747
20
147.29203170265342
30
0
10
142.79071025845542
20
146.75797256170983
30
0
10
142.29338945805833
20
146.35620209939864
30
0
0
SPLINE
5
441
100
AcDbEntity
8
0
100
AcDbSpline
70
4
71
3
72
8
73
4
74
0
42
0.000000001
43
0.0000000001
44
0.0000000001
40
0
40
0
40
0
40
0
40
1
40
1
40
1
40
1
41
1
41
1
41
1
41
1
10
142.29338945805833
20
146.35620209939864
30
0
10
141.79606865766121
20
145.95443163708745
30
0
10
141.16891512996858
20
145.75354453686691
30
0
10
140.4119288749805
20
145.75354453686691
30
0
0
SPLINE
5
442
100
AcDbEntity
8
0
100
AcDbSpline
70
4
71
3
72
8
73
4
74
0
42
0.000000001
43
0.0000000001
44
0.0000000001
40
0
40
0
40
0
40
0
40
1
40
1
40
1
40
1
41
1
41
1
41
1
41
1
10
140.4119288749805
20
145.75354453686691
30
0
10
139.6549426199924
20
145.75354453686691
30
0
10
139.0351307794013
20
145.95443163708745
30
0
10
138.5427144054182
20
146.35620209939864
30
0
0
SPLINE
5
443
100
AcDbEntity
8
0
100
AcDbSpline
70
4
71
3
72
8
73
4
74
0
42
0.000000001
43
0.0000000001
44
0.0000000001
40
0
40
0
40
0
40
0
40
1
40
1
40
1
40
1
41
1
41
1
41
1
41
1
10
138.5427144054182
20
146.35620209939864
30
0
10
138.05029803143512
20
146.75797256170983
30
0
10
137.68282491085304
20
147.29203544078331
30
0
10
137.44274725687902
20
147.95593478528215
30
0
0
SPLINE
5
444
100
AcDbEntity
8
0
100
AcDbSpline
70
4
71
3
72
8
73
4
74
0
42
0.000000001
43
0.0000000001
44
0.0000000001
40
0
40
0
40
0
40
0
40
1
40
1
40
1
40
1
41
1
41
1
41
1
41
1
10
137.44274725687902
20
147.95593478528215
30
0
10
137.20266960290502
20
148.619834129781
30
0
10
137.08506803660543
20
149.34743120758387
30
0
10
137.08506803660543
20
150.13627380548374
30
0
0
SPLINE
5
445
100
AcDbEntity
8
0
100
AcDbSpline
70
4
71
3
72
8
73
4
74
0
42
0.000000001
43
0.0000000001
44
0.0000000001
40
0
40
0
40
0
40
0
40
1
40
1
40
1
40
1
41
1
41
1
41
1
41
1
10
137.08506803660543
20
150.13627380548374
30
0
10
137.08506803660543
20
150.92511640338361
30
0
10
137.20510686359248
20
151.66006264454776
30
0
10
137.44274725687902
20
152.31906503889235
30
0
0
SPLINE
5
446
100
AcDbEntity
8
0
100
AcDbSpline
70
4
71
3
72
8
73
4
74
0
42
0.000000001
43
0.0000000001
44
0.0000000001
40
0
40
0
40
0
40
0
40
1
40
1
40
1
40
1
41
1
41
1
41
1
41
1
10
137.44274725687902
20
152.31906503889235
30
0
10
137.68282491085304
20
152.98051964644398
30
0
10
138.0478458182281
20
153.50967436097355
30
0
10
138.5427144054182
20
153.90655161126037
30
0
0
SPLINE
5
447
100
AcDbEntity
8
0
100
AcDbSpline
70
4
71
3
72
8
73
4
74
0
42
0.000000001
43
0.0000000001
44
0.0000000001
40
0
40
0
40
0
40
0
40
1
40
1
40
1
40
1
41
1
41
1
41
1
41
1
10
138.5427144054182
20
153.90655161126037
30
0
10
139.03758299260829
20
154.30342138528744
30
0
10
139.65983209388691
20
154.50185627230096
30
0
10
140.4119288749805
20
154.50185627230096
30
0
0
SPLINE
5
448
100
AcDbEntity
8
0
100
AcDbSpline
70
4
71
3
72
8
73
4
74
0
42
0.000000001
43
0.0000000001
44
0.0000000001
40
0
40
0
40
0
40
0
40
1
40
1
40
1
40
1
41
1
41
1
41
1
41
1
10
140.4119288749805
20
154.50185627230096
30
0
10
141.16402565607413
20
154.50185627230096
30
0
10
141.79608361018074
20
154.30342138528744
30
0
10
142.29338945805833
20
153.90655161126037
30
0
0
SPLINE
5
449
100
AcDbEntity
8
0
100
AcDbSpline
70
4
71
3
72
8
73
4
74
0
42
0.000000001
43
0.0000000001
44
0.0000000001
40
0
40
0
40
0
40
0
40
1
40
1
40
1
40
1
41
1
41
1
41
1
41
1
10
142.29338945805833
20
153.90655161126037
30
0
10
142.79069530593586
20
153.5096818372333
30
0
10
143.15818337903747
20
152.98051964644398
30
0
10
143.39826103301149
20
152.31906503889235
30
0
0
SPLINE
5
450
100
AcDbEntity
8
0
100
AcDbSpline
70
4
71
3
72
8
73
4
74
0
42
0.000000001
43
0.0000000001
44
0.0000000001
40
0
40
0
40
0
40
0
40
1
40
1
40
1
40
1
41
1
41
1
41
1
41
1
10
143.39826103301149
20
152.31906503889235
30
0
10
143.63833868698552
20
151.65761043134074
30
0
10
143.75594025328508
20
150.93001335353787
30
0
10
143.75594025328508
20
150.13627380548374
30
0
0
SPLINE
5
451
100
AcDbEntity
8
0
100
AcDbSpline
70
4
71
3
72
8
73
4
74
0
42
0.000000001
43
0.0000000001
44
0.0000000001
40
0
40
0
40
0
40
0
40
1
40
1
40
1
40
1
41
1
41
1
41
1
41
1
10
143.75594025328508
20
150.13627380548374
30
0
10
143.75594025328508
20
149.34253425742963
30
0
10
143.63590142629806
20
148.619834129781
30
0
10
143.39826103301149
20
147.95593478528215
30
0
0
LWPOLYLINE
5
452
100
AcDbEntity
8
0
100
AcDbPolyline
90
4
70
1
43
0.0
10
133.21435236267601
20
139.77353569272475
10
130.80617851246157
20
139.77353569272475
10
130.80617851246157
20
156.27797844846702
10
133.21435236267601
20
156.277978448467
0
LWPOLYLINE
5
453
100
AcDbEntity
8
0
100
AcDbPolyline
90
4
70
1
43
0.0
10
128.81447419890679
20
139.77353569272478
10
126.40630034869235
20
139.77353569272478
10
126.40630034869235
20
156.27797844846702
10
128.81447419890679
20
156.277978448467
0
SPLINE
5
454
100
AcDbEntity
8
0
100
AcDbSpline
70
4
71
3
72
8
73
4
74
0
42
0.000000001
43
0.0000000001
44
0.0000000001
40
0
40
0
40
0
40
0
40
1
40
1
40
1
40
1
41
1
41
1
41
1
41
1
10
115.45070111563842
20
145.17294194067873
30
0
10
115.97251414306652
20
144.67807709161852
30
0
10
116.56047711700563
20
144.3155046593206
30
0
10
117.21457508493621
20
144.08522090565504
30
0
0
SPLINE
5
455
100
AcDbEntity
8
0
100
AcDbSpline
70
4
71
3
72
8
73
4
74
0
42
0.000000001
43
0.0000000001
44
0.0000000001
40
0
40
0
40
0
40
0
40
1
40
1
40
1
40
1
41
1
41
1
41
1
41
1
10
117.21457508493621
20
144.08522090565504
30
0
10
117.87112526607385
20
143.8549371519895
30
0
10
118.54727820034796
20
143.73734680007962
30
0
10
119.24547114844603
20
143.73734680007962
30
0
0
SPLINE
5
456
100
AcDbEntity
8
0
100
AcDbSpline
70
4
71
3
72
8
73
4
74
0
42
0.000000001
43
0.0000000001
44
0.0000000001
40
0
40
0
40
0
40
0
40
1
40
1
40
1
40
1
41
1
41
1
41
1
41
1
10
119.24547114844603
20
143.73734680007962
30
0
10
120.39443770356672
20
143.73734680007962
30
0
10
121.39885825214986
20
144.00927705883555
30
0
10
122.25629553350799
20
144.55068910127025
30
0
0
SPLINE
5
457
100
AcDbEntity
8
0
100
AcDbSpline
70
4
71
3
72
8
73
4
74
0
42
0.000000001
43
0.0000000001
44
0.0000000001
40
0
40
0
40
0
40
0
40
1
40
1
40
1
40
1
41
1
41
1
41
1
41
1
10
122.25629553350799
20
144.55068910127025
30
0
10
123.11373281486617
20
145.09454961878208
30
0
10
123.78007689631221
20
145.84909487495284
30
0
10
124.25534273036583
20
146.8143248697825
30
0
0
SPLINE
5
458
100
AcDbEntity
8
0
100
AcDbSpline
70
4
71
3
72
8
73
4
74
0
42
0.000000001
43
0.0000000001
44
0.0000000001
40
0
40
0
40
0
40
0
40
1
40
1
40
1
40
1
41
1
41
1
41
1
41
1
10
124.25534273036583
20
146.8143248697825
30
0
10
124.7306085644194
20
147.78200333968928
30
0
10
124.96823400518639
20
148.89912476628785
30
0
10
124.96823400518639
20
150.16813014839553
30
0
0
SPLINE
5
459
100
AcDbEntity
8
0
100
AcDbSpline
70
4
71
3
72
8
73
4
74
0
42
0.000000001
43
0.0000000001
44
0.0000000001
40
0
40
0
40
0
40
0
40
1
40
1
40
1
40
1
41
1
41
1
41
1
41
1
10
124.96823400518639
20
150.16813014839553
30
0
10
124.96823400518639
20
151.43713553050327
30
0
10
124.7306085644194
20
152.57140375890143
30
0
10
124.25534273036583
20
153.52438764021559
30
0
0
SPLINE
5
460
100
AcDbEntity
8
0
100
AcDbSpline
70
4
71
3
72
8
73
4
74
0
42
0.000000001
43
0.0000000001
44
0.0000000001
40
0
40
0
40
0
40
0
40
1
40
1
40
1
40
1
41
1
41
1
41
1
41
1
10
124.25534273036583
20
153.52438764021559
30
0
10
123.78007689631221
20
154.47737152152979
30
0
10
123.1014717488311
20
155.21721471284815
30
0
10
122.22444666685601
20
155.74147247722345
30
0
0
SPLINE
5
461
100
AcDbEntity
8
0
100
AcDbSpline
70
4
71
3
72
8
73
4
74
0
42
0.000000001
43
0.0000000001
44
0.0000000001
40
0
40
0
40
0
40
0
40
1
40
1
40
1
40
1
41
1
41
1
41
1
41
1
10
122.22444666685601
20
155.74147247722345
30
0
10
121.34495441915433
20
156.26573771785854
30
0
10
120.29889110361069
20
156.5278628619163
30
0
10
119.07643291487751
20
156.5278628619163
30
0
0
SPLINE
5
462
100
AcDbEntity
8
0
100
AcDbSpline
70
4
71
3
72
8
73
4
74
0
42
0.000000001
43
0.0000000001
44
0.0000000001
40
0
40
0
40
0
40
0
40
1
40
1
40
1
40
1
41
1
41
1
41
1
41
1
10
119.07643291487751
20
156.5278628619163
30
0
10
118.17490065335186
20
156.5278628619163
30
0
10
117.36891499178228
20
156.3882212817928
30
0
10
116.66336540406313
20
156.11384254795976
30
0
0
SPLINE
5
463
100
AcDbEntity
8
0
100
AcDbSpline
70
4
71
3
72
8
73
4
74
0
42
0.000000001
43
0.0000000001
44
0.0000000001
40
0
40
0
40
0
40
0
40
1
40
1
40
1
40
1
41
1
41
1
41
1
41
1
10
116.66336540406313
20
156.11384254795976
30
0
10
115.95536360313702
20
155.83701160091971
30
0
10
115.3698528424049
20
155.44749099025387
30
0
10
114.89949143476534
20
154.94528071596233
30
0
0
SPLINE
5
464
100
AcDbEntity
8
0
100
AcDbSpline
70
4
71
3
72
8
73
4
74
0
42
0.000000001
43
0.0000000001
44
0.0000000001
40
0
40
0
40
0
40
0
40
1
40
1
40
1
40
1
41
1
41
1
41
1
41
1
10
114.89949143476534
20
154.94528071596233
30
0
10
114.42913002712579
20
154.44307044167076
30
0
10
114.10329967350421
20
153.85510746773164
30
0
10
113.9195631132132
20
153.18385895987154
30
0
0
LINE
5
465
100
AcDbEntity
8
0
100
AcDbLine
10
113.9195631132132
20
153.18385895987151
30
0
11
116.20034568352507
21
152.77229085912199
31
0
0
SPLINE
5
466
100
AcDbEntity
8
0
100
AcDbSpline
70
4
71
3
72
8
73
4
74
0
42
0.000000001
43
0.0000000001
44
0.0000000001
40
0
40
0
40
0
40
0
40
1
40
1
40
1
40
1
41
1
41
1
41
1
41
1
10
116.20034568352506
20
152.77229085912197
30
0
10
116.34489169006261
20
153.15935925658079
30
0
10
116.55557269059162
20
153.48273739699533
30
0
10
116.82995142442465
20
153.7473222305199
30
0
0
SPLINE
5
467
100
AcDbEntity
8
0
100
AcDbSpline
70
4
71
3
72
8
73
4
74
0
42
0.000000001
43
0.0000000001
44
0.0000000001
40
0
40
0
40
0
40
0
40
1
40
1
40
1
40
1
41
1
41
1
41
1
41
1
10
116.82995142442465
20
153.7473222305199
30
0
10
117.10433015825771
20
154.00945485083744
30
0
10
117.43016051187925
20
154.20788973785096
30
0
10
117.80497531956279
20
154.34018215461325
30
0
0
SPLINE
5
468
100
AcDbEntity
8
0
100
AcDbSpline
70
4
71
3
72
8
73
4
74
0
42
0.000000001
43
0.0000000001
44
0.0000000001
40
0
40
0
40
0
40
0
40
1
40
1
40
1
40
1
41
1
41
1
41
1
41
1
10
117.80497531956279
20
154.34018215461325
30
0
10
118.18224234045334
20
154.47247457137553
30
0
10
118.59871486761691
20
154.53861704162679
30
0
10
119.05437794853398
20
154.53861704162679
30
0
0
SPLINE
5
469
100
AcDbEntity
8
0
100
AcDbSpline
70
4
71
3
72
8
73
4
74
0
42
0.000000001
43
0.0000000001
44
0.0000000001
40
0
40
0
40
0
40
0
40
1
40
1
40
1
40
1
41
1
41
1
41
1
41
1
10
119.05437794853398
20
154.53861704162679
30
0
10
119.75747532304609
20
154.53861704162679
30
0
10
120.37238273722321
20
154.38672934798777
30
0
10
120.89910019106529
20
154.08295396070972
30
0
0
SPLINE
5
470
100
AcDbEntity
8
0
100
AcDbSpline
70
4
71
3
72
8
73
4
74
0
42
0.000000001
43
0.0000000001
44
0.0000000001
40
0
40
0
40
0
40
0
40
1
40
1
40
1
40
1
41
1
41
1
41
1
41
1
10
120.89910019106529
20
154.08295396070972
30
0
10
121.42581764490743
20
153.77917857343166
30
0
10
121.83493353244998
20
153.33820634297734
30
0
10
122.1264628062125
20
152.75760000865927
30
0
0
SPLINE
5
471
100
AcDbEntity
8
0
100
AcDbSpline
70
4
71
3
72
8
73
4
74
0
42
0.000000001
43
0.0000000001
44
0.0000000001
40
0
40
0
40
0
40
0
40
1
40
1
40
1
40
1
41
1
41
1
41
1
41
1
10
122.1264628062125
20
152.75760000865927
30
0
10
122.39838932683855
20
152.21619170435443
30
0
10
122.54293533337609
20
151.56943542352531
30
0
10
122.56253808651263
20
150.81489390548444
30
0
0
LINE
5
472
100
AcDbEntity
8
0
100
AcDbLine
10
122.56253808651263
20
150.81489390548447
30
0
11
113.76767541957418
21
150.81489390548444
31
0
0
LINE
5
473
100
AcDbEntity
8
0
100
AcDbLine
10
113.76767541957418
20
150.81489390548444
30
0
11
113.76767541957418
21
149.9599088373333
31
0
0
SPLINE
5
474
100
AcDbEntity
8
0
100
AcDbSpline
70
4
71
3
72
8
73
4
74
0
42
0.000000001
43
0.0000000001
44
0.0000000001
40
0
40
0
40
0
40
0
40
1
40
1
40
1
40
1
41
1
41
1
41
1
41
1
10
113.76767541957418
20
149.9599088373333
30
0
10
113.76767541957418
20
148.83544198550339
30
0
10
113.91711090000615
20
147.88246184231912
30
0
10
114.21844902659674
20
147.09361924441922
30
0
0
SPLINE
5
475
100
AcDbEntity
8
0
100
AcDbSpline
70
4
71
3
72
8
73
4
74
0
42
0.000000001
43
0.0000000001
44
0.0000000001
40
0
40
0
40
0
40
0
40
1
40
1
40
1
40
1
41
1
41
1
41
1
41
1
10
114.21844902659674
20
147.09361924441922
30
0
10
114.5197722006678
20
146.30722512159647
30
0
10
114.92890304072989
20
145.66537326718137
30
0
10
115.45071606815799
20
145.17050841812113
30
0
0
LINE
5
476
100
AcDbEntity
8
0
100
AcDbLine
10
115.45071606815799
20
145.17050841812113
30
0
11
115.45070111563842
21
145.17294194067873
31
0
0
SPLINE
5
477
100
AcDbEntity
8
0
100
AcDbSpline
70
4
71
3
72
8
73
4
74
0
42
0.000000001
43
0.0000000001
44
0.0000000001
40
0
40
0
40
0
40
0
40
1
40
1
40
1
40
1
41
1
41
1
41
1
41
1
10
122.56008587330562
20
149.00936221670659
30
0
10
122.53068921986059
20
148.47530307576304
30
0
10
122.3984042793581
20
147.97798601349581
30
0
10
122.16076388607152
20
147.51497003108761
30
0
0
SPLINE
5
478
100
AcDbEntity
8
0
100
AcDbSpline
70
4
71
3
72
8
73
4
74
0
42
0.000000001
43
0.0000000001
44
0.0000000001
40
0
40
0
40
0
40
0
40
1
40
1
40
1
40
1
41
1
41
1
41
1
41
1
10
122.16076388607152
20
147.51497003108761
30
0
10
121.88883736544551
20
146.98580784029826
30
0
10
121.50176149172694
20
146.55464072454208
30
0
10
120.99955121743537
20
146.22636563397327
30
0
0
SPLINE
5
479
100
AcDbEntity
8
0
100
AcDbSpline
70
4
71
3
72
8
73
4
74
0
42
0.000000001
43
0.0000000001
44
0.0000000001
40
0
40
0
40
0
40
0
40
1
40
1
40
1
40
1
41
1
41
1
41
1
41
1
10
120.99955121743537
20
146.22636563397327
30
0
10
120.49734094314377
20
145.89563833019747
30
0
10
119.90692575599766
20
145.73150078491307
30
0
10
119.23078777424308
20
145.73150078491307
30
0
0
SPLINE
5
480
100
AcDbEntity
8
0
100
AcDbSpline
70
4
71
3
72
8
73
4
74
0
42
0.000000001
43
0.0000000001
44
0.0000000001
40
0
40
0
40
0
40
0
40
1
40
1
40
1
40
1
41
1
41
1
41
1
41
1
10
119.23078777424308
20
145.73150078491307
30
0
10
118.60853867296453
20
145.73150078491307
30
0
10
118.06221846598589
20
145.87359084011371
30
0
10
117.59921369796736
20
146.15777095051502
30
0
0
SPLINE
5
481
100
AcDbEntity
8
0
100
AcDbSpline
70
4
71
3
72
8
73
4
74
0
42
0.000000001
43
0.0000000001
44
0.0000000001
40
0
40
0
40
0
40
0
40
1
40
1
40
1
40
1
41
1
41
1
41
1
41
1
10
117.59921369796736
20
146.15777095051502
30
0
10
117.13374176422224
20
146.44195106091632
30
0
10
116.77362528326121
20
146.83147167158211
30
0
10
116.51639708935768
20
147.32143583235822
30
0
0
SPLINE
5
482
100
AcDbEntity
8
0
100
AcDbSpline
70
4
71
3
72
8
73
4
74
0
42
0.000000001
43
0.0000000001
44
0.0000000001
40
0
40
0
40
0
40
0
40
1
40
1
40
1
40
1
41
1
41
1
41
1
41
1
10
116.51639708935768
20
147.32143583235822
30
0
10
116.25916889545415
20
147.81139999313427
30
0
10
116.12932121563912
20
148.37485952565274
30
0
10
116.12932121563912
20
149.00936221670659
30
0
0
LINE
5
483
100
AcDbEntity
8
0
100
AcDbLine
10
116.12932121563914
20
149.00936221670659
30
0
11
122.56255303903217
21
149.00936221670659
31
0
0
LINE
5
484
100
AcDbEntity
8
0
100
AcDbLine
10
122.56255303903217
20
149.00936221670659
30
0
11
122.56008587330562
21
149.00936221670659
31
0
0
SPLINE
5
485
100
AcDbEntity
8
0
100
AcDbSpline
70
4
71
3
72
8
73
4
74
0
42
0.000000001
43
0.0000000001
44
0.0000000001
40
0
40
0
40
0
40
0
40
1
40
1
40
1
40
1
41
1
41
1
41
1
41
1
10
106.73178229551951
20
143.71284709678886
30
0
10
107.45693463637511
20
143.71284709678886
30
0
10
108.1061281778917
20
143.90393282044113
30
0
10
108.67694061190133
20
144.28855648095271
30
0
0
SPLINE
5
486
100
AcDbEntity
8
0
100
AcDbSpline
70
4
71
3
72
8
73
4
74
0
42
0.000000001
43
0.0000000001
44
0.0000000001
40
0
40
0
40
0
40
0
40
1
40
1
40
1
40
1
41
1
41
1
41
1
41
1
10
108.67694061190133
20
144.28855648095271
30
0
10
109.25020525911793
20
144.67318014146426
30
0
10
109.64951229383246
20
145.19744164396946
30
0
10
109.87490657360351
20
145.86378946354546
30
0
0
LINE
5
487
100
AcDbEntity
8
0
100
AcDbLine
10
109.87490657360352
20
145.86378946354546
30
0
11
110.00230204021153
21
145.86378946354546
31
0
0
LINE
5
488
100
AcDbEntity
8
0
100
AcDbLine
10
110.00230204021153
20
145.86378946354546
30
0
11
110.00230204021153
21
143.89658365707987
31
0
0
LINE
5
489
100
AcDbEntity
8
0
100
AcDbLine
10
110.00230204021153
20
143.89658365707987
30
0
11
112.33208401710492
21
143.89658365707987
31
0
0
LINE
5
490
100
AcDbEntity
8
0
100
AcDbLine
10
112.33208401710492
20
143.89658365707987
30
0
11
112.33208401710496
21
156.27307940496001
31
0
0
LINE
5
491
100
AcDbEntity
8
0
100
AcDbLine
10
112.33208401710496
20
156.27307940496001
30
0
11
109.92390598018504
21
156.27307940496001
31
0
0
LINE
5
492
100
AcDbEntity
8
0
100
AcDbLine
10
109.92390598018504
20
156.27307940496001
30
0
11
109.92390598018503
21
148.71538072973703
31
0
0
SPLINE
5
493
100
AcDbEntity
8
0
100
AcDbSpline
70
4
71
3
72
8
73
4
74
0
42
0.000000001
43
0.0000000001
44
0.0000000001
40
0
40
0
40
0
40
0
40
1
40
1
40
1
40
1
41
1
41
1
41
1
41
1
10
109.92390598018503
20
148.71538072973703
30
0
10
109.92390598018503
20
148.17886937558646
30
0
10
109.79651051357699
20
147.69870659137862
30
0
10
109.53683010646645
20
147.2773371140608
30
0
0
SPLINE
5
494
100
AcDbEntity
8
0
100
AcDbSpline
70
4
71
3
72
8
73
4
74
0
42
0.000000001
43
0.0000000001
44
0.0000000001
40
0
40
0
40
0
40
0
40
1
40
1
40
1
40
1
41
1
41
1
41
1
41
1
10
109.53683010646645
20
147.2773371140608
30
0
10
109.27960191256292
20
146.855967636743
30
0
10
108.92927933191039
20
146.52524033296717
30
0
10
108.48586236450882
20
146.28761115407028
30
0
0
SPLINE
5
495
100
AcDbEntity
8
0
100
AcDbSpline
70
4
71
3
72
8
73
4
74
0
42
0.000000001
43
0.0000000001
44
0.0000000001
40
0
40
0
40
0
40
0
40
1
40
1
40
1
40
1
41
1
41
1
41
1
41
1
10
108.48586236450882
20
146.28761115407028
30
0
10
108.04244539710723
20
146.04998197517338
30
0
10
107.53778290960867
20
145.92993567192659
30
0
10
106.96697047559906
20
145.92993567192659
30
0
0
SPLINE
5
496
100
AcDbEntity
8
0
100
AcDbSpline
70
4
71
3
72
8
73
4
74
0
42
0.000000001
43
0.0000000001
44
0.0000000001
40
0
40
0
40
0
40
0
40
1
40
1
40
1
40
1
41
1
41
1
41
1
41
1
10
106.96697047559906
20
145.92993567192659
30
0
10
106.71953618200402
20
145.92993567192659
30
0
10
106.47210188840894
20
145.94708621185612
30
0
10
106.22466759481391
20
145.98138355358523
30
0
0
SPLINE
5
497
100
AcDbEntity
8
0
100
AcDbSpline
70
4
71
3
72
8
73
4
74
0
42
0.000000001
43
0.0000000001
44
0.0000000001
40
0
40
0
40
0
40
0
40
1
40
1
40
1
40
1
41
1
41
1
41
1
41
1
10
106.22466759481391
20
145.98138355358523
30
0
10
105.97723330121883
20
146.01568089531438
30
0
10
105.80574285444331
20
146.04752976196636
30
0
10
105.71021120700685
20
146.07447794033425
30
0
0
LINE
5
498
100
AcDbEntity
8
0
100
AcDbLine
10
105.71021120700685
20
146.07447794033425
30
0
11
105.71021120700685
21
143.76919566673163
31
0
0
SPLINE
5
499
100
AcDbEntity
8
0
100
AcDbSpline
70
4
71
3
72
8
73
4
74
0
42
0.000000001
43
0.0000000001
44
0.0000000001
40
0
40
0
40
0
40
0
40
1
40
1
40
1
40
1
41
1
41
1
41
1
41
1
10
105.71021120700685
20
143.76919566673163
30
0
10
105.82779782078686
20
143.7520451268021
30
0
10
105.98949436725391
20
143.73979901328664
30
0
10
106.19772315457593
20
143.72999763671834
30
0
0
SPLINE
5
500
100
AcDbEntity
8
0
100
AcDbSpline
70
4
71
3
72
8
73
4
74
0
42
0.000000001
43
0.0000000001
44
0.0000000001
40
0
40
0
40
0
40
0
40
1
40
1
40
1
40
1
41
1
41
1
41
1
41
1
10
106.19772315457593
20
143.72999763671834
30
0
10
106.40595194189792
20
143.72019626015009
30
0
10
106.58234681508748
20
143.71284709678886
30
0
10
106.7342345087265
20
143.71284709678886
30
0
0
LINE
5
501
100
AcDbEntity
8
0
100
AcDbLine
10
106.7342345087265
20
143.71284709678886
30
0
11
106.73178229551951
21
143.71284709678886
31
0
0
SPLINE
5
502
100
AcDbEntity
8
0
100
AcDbSpline
70
4
71
3
72
8
73
4
74
0
42
0.000000001
43
0.0000000001
44
0.0000000001
40
0
40
0
40
0
40
0
40
1
40
1
40
1
40
1
41
1
41
1
41
1
41
1
10
104.43386413779766
20
145.48651870452503
30
0
10
104.84298002534021
20
146.03527991032098
30
0
10
105.04631933876777
20
146.67468328965896
30
0
10
105.04631933876777
20
147.40472884253899
30
0
0
SPLINE
5
503
100
AcDbEntity
8
0
100
AcDbSpline
70
4
71
3
72
8
73
4
74
0
42
0.000000001
43
0.0000000001
44
0.0000000001
40
0
40
0
40
0
40
0
40
1
40
1
40
1
40
1
41
1
41
1
41
1
41
1
10
105.04631933876777
20
147.40472884253899
30
0
10
105.04631933876777
20
148.28666582718785
30
0
10
104.77194060493474
20
149.01425916686082
30
0
10
104.22073092406163
20
149.58751633781768
30
0
0
SPLINE
5
504
100
AcDbEntity
8
0
100
AcDbSpline
70
4
71
3
72
8
73
4
74
0
42
0.000000001
43
0.0000000001
44
0.0000000001
40
0
40
0
40
0
40
0
40
1
40
1
40
1
40
1
41
1
41
1
41
1
41
1
10
104.22073092406163
20
149.58751633781768
30
0
10
103.66952124318854
20
150.16077350877453
30
0
10
102.81698838824443
20
150.58214298609232
30
0
10
101.6631174067097
20
150.84427560640989
30
0
0
LINE
5
505
100
AcDbEntity
8
0
100
AcDbLine
10
101.66311740670969
20
150.84427560640989
30
0
11
99.568523609895877
21
151.30239090053396
31
0
0
SPLINE
5
506
100
AcDbEntity
8
0
100
AcDbSpline
70
4
71
3
72
8
73
4
74
0
42
0.000000001
43
0.0000000001
44
0.0000000001
40
0
40
0
40
0
40
0
40
1
40
1
40
1
40
1
41
1
41
1
41
1
41
1
10
99.568523609895891
20
151.30239090053396
30
0
10
98.97812337526932
20
151.43712805424346
30
0
10
98.537143668555203
20
151.63556294125701
30
0
10
98.250518821206683
20
151.89769556157455
30
0
0
SPLINE
5
507
100
AcDbEntity
8
0
100
AcDbSpline
70
4
71
3
72
8
73
4
74
0
42
0.000000001
43
0.0000000001
44
0.0000000001
40
0
40
0
40
0
40
0
40
1
40
1
40
1
40
1
41
1
41
1
41
1
41
1
10
98.250518821206683
20
151.89769556157455
30
0
10
97.961441760651127
20
152.15982818189212
30
0
10
97.819347967320596
20
152.48565105925388
30
0
10
97.819347967320596
20
152.87272693297245
30
0
0
SPLINE
5
508
100
AcDbEntity
8
0
100
AcDbSpline
70
4
71
3
72
8
73
4
74
0
42
0.000000001
43
0.0000000001
44
0.0000000001
40
0
40
0
40
0
40
0
40
1
40
1
40
1
40
1
41
1
41
1
41
1
41
1
10
97.819347967320596
20
152.87272693297245
30
0
10
97.819347967320596
20
153.35044498023305
30
0
10
98.054536147400142
20
153.75466391762137
30
0
10
98.527349768246708
20
154.08539122139717
30
0
0
SPLINE
5
509
100
AcDbEntity
8
0
100
AcDbSpline
70
4
71
3
72
8
73
4
74
0
42
0.000000001
43
0.0000000001
44
0.0000000001
40
0
40
0
40
0
40
0
40
1
40
1
40
1
40
1
41
1
41
1
41
1
41
1
10
98.527349768246708
20
154.08539122139717
30
0
10
99.000163389093274
20
154.41611852517298
30
0
10
99.632221343199916
20
154.58025233232749
30
0
10
100.42105646484001
20
154.58025233232749
30
0
0
SPLINE
5
510
100
AcDbEntity
8
0
100
AcDbSpline
70
4
71
3
72
8
73
4
74
0
42
0.000000001
43
0.0000000001
44
0.0000000001
40
0
40
0
40
0
40
0
40
1
40
1
40
1
40
1
41
1
41
1
41
1
41
1
10
100.42105646484001
20
154.58025233232749
30
0
10
101.14620880569564
20
154.58025233232749
30
0
10
101.73415682711521
20
154.42591242548147
30
0
10
102.1849304341378
20
154.1172326117894
30
0
0
SPLINE
5
511
100
AcDbEntity
8
0
100
AcDbSpline
70
4
71
3
72
8
73
4
74
0
42
0.000000001
43
0.0000000001
44
0.0000000001
40
0
40
0
40
0
40
0
40
1
40
1
40
1
40
1
41
1
41
1
41
1
41
1
10
102.1849304341378
20
154.1172326117894
30
0
10
102.63570404116041
20
153.80855279809734
30
0
10
102.93457500202443
20
153.3504375039733
30
0
10
103.07912100856197
20
152.74288672941719
30
0
0
LINE
5
512
100
AcDbEntity
8
0
100
AcDbLine
10
103.07912100856197
20
152.74288672941719
30
0
11
105.40890298545534
21
153.09811373648375
31
0
0
SPLINE
5
513
100
AcDbEntity
8
0
100
AcDbSpline
70
4
71
3
72
8
73
4
74
0
42
0.000000001
43
0.0000000001
44
0.0000000001
40
0
40
0
40
0
40
0
40
1
40
1
40
1
40
1
41
1
41
1
41
1
41
1
10
105.40890298545537
20
153.09811373648375
30
0
10
105.21046809844182
20
154.19318393486867
30
0
10
104.67150453108424
20
155.03837510271134
30
0
10
103.79691670979656
20
155.63367976375193
30
0
0
SPLINE
5
514
100
AcDbEntity
8
0
100
AcDbSpline
70
4
71
3
72
8
73
4
74
0
42
0.000000001
43
0.0000000001
44
0.0000000001
40
0
40
0
40
0
40
0
40
1
40
1
40
1
40
1
41
1
41
1
41
1
41
1
10
103.79691670979656
20
155.63367976375193
30
0
10
102.92232888850893
20
156.2265396878453
30
0
10
101.79051287331777
20
156.52296591176207
30
0
10
100.40392087743004
20
156.52296591176207
30
0
0
SPLINE
5
515
100
AcDbEntity
8
0
100
AcDbSpline
70
4
71
3
72
8
73
4
74
0
42
0.000000001
43
0.0000000001
44
0.0000000001
40
0
40
0
40
0
40
0
40
1
40
1
40
1
40
1
41
1
41
1
41
1
41
1
10
100.40392087743004
20
156.52296591176207
30
0
10
99.404389802741377
20
156.52296591176207
30
0
10
98.52491250755925
20
156.3588246283478
30
0
10
97.765459086844615
20
156.030549537779
30
0
0
SPLINE
5
516
100
AcDbEntity
8
0
100
AcDbSpline
70
4
71
3
72
8
73
4
74
0
42
0.000000001
43
0.0000000001
44
0.0000000001
40
0
40
0
40
0
40
0
40
1
40
1
40
1
40
1
41
1
41
1
41
1
41
1
10
97.765459086844615
20
156.030549537779
30
0
10
97.006020618649529
20
155.70227444721019
30
0
10
96.410701005089379
20
155.24905610324038
30
0
10
95.984434577617293
20
154.67334671907651
30
0
0
SPLINE
5
517
100
AcDbEntity
8
0
100
AcDbSpline
70
4
71
3
72
8
73
4
74
0
42
0.000000001
43
0.0000000001
44
0.0000000001
40
0
40
0
40
0
40
0
40
1
40
1
40
1
40
1
41
1
41
1
41
1
41
1
10
95.984434577617293
20
154.67334671907651
30
0
10
95.558168150145235
20
154.09519259796542
30
0
10
95.342582723202185
20
153.43619020362084
30
0
10
95.342582723202185
20
152.69389479909546
30
0
0
SPLINE
5
518
100
AcDbEntity
8
0
100
AcDbSpline
70
4
71
3
72
8
73
4
74
0
42
0.000000001
43
0.0000000001
44
0.0000000001
40
0
40
0
40
0
40
0
40
1
40
1
40
1
40
1
41
1
41
1
41
1
41
1
10
95.342582723202185
20
152.69389479909546
30
0
10
95.342582723202185
20
151.81930697780783
30
0
10
95.62186588344926
20
151.10640822672744
30
0
10
96.180417251423833
20
150.55765075906135
30
0
0
SPLINE
5
519
100
AcDbEntity
8
0
100
AcDbSpline
70
4
71
3
72
8
73
4
74
0
42
0.000000001
43
0.0000000001
44
0.0000000001
40
0
40
0
40
0
40
0
40
1
40
1
40
1
40
1
41
1
41
1
41
1
41
1
10
96.180417251423833
20
150.55765075906135
30
0
10
96.738983571917956
20
150.00889329139528
30
0
10
97.589064213655064
20
149.60466687774721
30
0
10
98.728236868467263
20
149.34008952048242
30
0
0
LINE
5
520
100
AcDbEntity
8
0
100
AcDbLine
10
98.728236868467263
20
149.34008952048242
30
0
11
100.6954501511926
21
148.88932338971961
31
0
0
SPLINE
5
521
100
AcDbEntity
8
0
100
AcDbSpline
70
4
71
3
72
8
73
4
74
0
42
0.000000001
43
0.0000000001
44
0.0000000001
40
0
40
0
40
0
40
0
40
1
40
1
40
1
40
1
41
1
41
1
41
1
41
1
10
100.6954501511926
20
148.88932338971958
30
0
10
101.37650751188076
20
148.7276343195123
30
0
10
101.87136114655129
20
148.52185026913753
30
0
10
102.17758874703634
20
148.26951902538823
30
0
0
SPLINE
5
522
100
AcDbEntity
8
0
100
AcDbSpline
70
4
71
3
72
8
73
4
74
0
42
0.000000001
43
0.0000000001
44
0.0000000001
40
0
40
0
40
0
40
0
40
1
40
1
40
1
40
1
41
1
41
1
41
1
41
1
10
102.17758874703634
20
148.26951902538823
30
0
10
102.48381634752138
20
148.01718778163894
30
0
10
102.63570404116041
20
147.68401200278601
30
0
10
102.63570404116041
20
147.26999168882944
30
0
0
SPLINE
5
523
100
AcDbEntity
8
0
100
AcDbSpline
70
4
71
3
72
8
73
4
74
0
42
0.000000001
43
0.0000000001
44
0.0000000001
40
0
40
0
40
0
40
0
40
1
40
1
40
1
40
1
41
1
41
1
41
1
41
1
10
102.63570404116041
20
147.26999168882944
30
0
10
102.63570404116041
20
146.79227737969876
30
0
10
102.40787250070187
20
146.40030455582593
30
0
10
101.9497572065778
20
146.09897764362501
30
0
0
SPLINE
5
524
100
AcDbEntity
8
0
100
AcDbSpline
70
4
71
3
72
8
73
4
74
0
42
0.000000001
43
0.0000000001
44
0.0000000001
40
0
40
0
40
0
40
0
40
1
40
1
40
1
40
1
41
1
41
1
41
1
41
1
10
101.9497572065778
20
146.09897764362501
30
0
10
101.49409412566075
20
145.79519851821709
30
0
10
100.92328169165114
20
145.64331082457807
30
0
10
100.24223928348256
20
145.64331082457807
30
0
0
SPLINE
5
525
100
AcDbEntity
8
0
100
AcDbSpline
70
4
71
3
72
8
73
4
74
0
42
0.000000001
43
0.0000000001
44
0.0000000001
40
0
40
0
40
0
40
0
40
1
40
1
40
1
40
1
41
1
41
1
41
1
41
1
10
100.24223928348256
20
145.64331082457807
30
0
10
99.742481222397998
20
145.64331082457807
30
0
10
99.326008695234407
20
145.72415535968167
30
0
10
98.992836654511365
20
145.88584442988898
30
0
0
SPLINE
5
526
100
AcDbEntity
8
0
100
AcDbSpline
70
4
71
3
72
8
73
4
74
0
42
0.000000001
43
0.0000000001
44
0.0000000001
40
0
40
0
40
0
40
0
40
1
40
1
40
1
40
1
41
1
41
1
41
1
41
1
10
98.992836654511365
20
145.88584442988898
30
0
10
98.659664613788323
20
146.04753350009628
30
0
10
98.395079780263757
20
146.25331755047102
30
0
10
98.199097106457245
20
146.50564879422032
30
0
0
SPLINE
5
527
100
AcDbEntity
8
0
100
AcDbSpline
70
4
71
3
72
8
73
4
74
0
42
0.000000001
43
0.0000000001
44
0.0000000001
40
0
40
0
40
0
40
0
40
1
40
1
40
1
40
1
41
1
41
1
41
1
41
1
10
98.199097106457245
20
146.50564879422032
30
0
10
98.003114432650733
20
146.75798003796962
30
0
10
97.858568426113166
20
147.02500960844139
30
0
10
97.767926252571158
20
147.30184055548148
30
0
0
LINE
5
528
100
AcDbEntity
8
0
100
AcDbLine
10
97.767926252571158
20
147.30184055548148
30
0
11
95.585142495422332
21
146.91476841989277
31
0
0
SPLINE
5
529
100
AcDbEntity
8
0
100
AcDbSpline
70
4
71
3
72
8
73
4
74
0
42
0.000000001
43
0.0000000001
44
0.0000000001
40
0
40
0
40
0
40
0
40
1
40
1
40
1
40
1
41
1
41
1
41
1
41
1
10
95.585142495422346
20
146.91476841989277
30
0
10
95.832576789017381
20
145.94708994998598
30
0
10
96.339691489722981
20
145.17539415388572
30
0
10
97.108923858226575
20
144.59723629464477
30
0
0
SPLINE
5
530
100
AcDbEntity
8
0
100
AcDbSpline
70
4
71
3
72
8
73
4
74
0
42
0.000000001
43
0.0000000001
44
0.0000000001
40
0
40
0
40
0
40
0
40
1
40
1
40
1
40
1
41
1
41
1
41
1
41
1
10
97.108923858226575
20
144.59723629464477
30
0
10
97.875718966042697
20
144.0190784354038
30
0
10
98.931591134414347
20
143.73000137484826
30
0
10
100.26919867624009
20
143.73000137484826
30
0
0
SPLINE
5
531
100
AcDbEntity
8
0
100
AcDbSpline
70
4
71
3
72
8
73
4
74
0
42
0.000000001
43
0.0000000001
44
0.0000000001
40
0
40
0
40
0
40
0
40
1
40
1
40
1
40
1
41
1
41
1
41
1
41
1
10
100.26919867624009
20
143.73000137484826
30
0
10
101.20012759121074
20
143.73000137484826
30
0
10
102.02326379270986
20
143.88434128169428
30
0
10
102.7435117071515
20
144.19301735725645
30
0
0
SPLINE
5
532
100
AcDbEntity
8
0
100
AcDbSpline
70
4
71
3
72
8
73
4
74
0
42
0.000000001
43
0.0000000001
44
0.0000000001
40
0
40
0
40
0
40
0
40
1
40
1
40
1
40
1
41
1
41
1
41
1
41
1
10
102.7435117071515
20
144.19301735725645
30
0
10
103.46375962159311
20
144.50169343281863
30
0
10
104.02721541598169
20
144.93041207349768
30
0
10
104.43633130352424
20
145.47917327929366
30
0
0
LINE
5
533
100
AcDbEntity
8
0
100
AcDbLine
10
104.43633130352424
20
145.47917327929366
30
0
11
104.43386413779766
21
145.48651870452503
31
0
0
LINE
5
534
100
AcDbEntity
8
0
100
AcDbLine
10
280.34079175671877
20
112.09055971172506
30
0
11
288.92496407780351
21
117.30623029653918
31
0
0
LINE
5
535
100
AcDbEntity
8
0
100
AcDbLine
10
288.92496407780351
20
117.30623029653918
30
0
11
289.51537178868983
21
117.66145356547584
31
0
0
LINE
5
536
100
AcDbEntity
8
0
100
AcDbLine
10
289.51537178868983
20
117.66145356547584
30
0
11
289.51537178868983
21
108.14390011621349
31
0
0
SPLINE
5
537
100
AcDbEntity
8
0
100
AcDbSpline
70
4
71
3
72
8
73
4
74
0
42
0.000000001
43
0.0000000001
44
0.0000000001
40
0
40
0
40
0
40
0
40
1
40
1
40
1
40
1
41
1
41
1
41
1
41
1
10
289.51537178868983
20
108.14390011621349
30
0
10
287.54081681886299
20
108.95479020419712
30
0
10
285.45111810313847
20
109.53539840758015
30
0
10
283.94202945986189
20
109.88327251315559
30
0
0
LINE
5
538
100
AcDbEntity
8
0
100
AcDbLine
10
283.94202945986189
20
109.88327251315559
30
0
11
273.95655933990719
21
99.665070164458243
31
0
0
SPLINE
5
539
100
AcDbEntity
8
0
100
AcDbSpline
70
4
71
3
72
8
73
4
74
0
42
0.000000001
43
0.0000000001
44
0.0000000001
40
0
40
0
40
0
40
0
40
1
40
1
40
1
40
1
41
1
41
1
41
1
41
1
10
273.95655933990719
20
99.665070164458243
30
0
10
279.527453193658
20
98.969321018774892
30
0
10
284.63777767101277
20
97.22504886808116
30
0
10
289.28263769088221
20
95.25294237333145
30
0
0
LINE
5
540
100
AcDbEntity
8
0
100
AcDbLine
10
289.28263769088221
20
95.25294237333145
30
0
11
289.5153699196249
21
95.485675536606593
31
0
0
LINE
5
541
100
AcDbEntity
8
0
100
AcDbLine
10
289.5153699196249
20
95.485675536606593
30
0
11
289.5153699196249
21
85.855429620121058
31
0
0
LINE
5
542
100
AcDbEntity
8
0
100
AcDbLine
10
289.5153699196249
20
85.855429620121058
30
0
11
293.69476361294409
21
85.855429620121043
31
0
0
LINE
5
543
100
AcDbEntity
8
0
100
AcDbLine
10
293.69476361294409
20
85.855429620121043
30
0
11
293.69476361294409
21
99.086911370684788
31
0
0
SPLINE
5
544
100
AcDbEntity
8
0
100
AcDbSpline
70
4
71
3
72
8
73
4
74
0
42
0.000000001
43
0.0000000001
44
0.0000000001
40
0
40
0
40
0
40
0
40
1
40
1
40
1
40
1
41
1
41
1
41
1
41
1
10
293.69476361294409
20
99.086911370684788
30
0
10
298.80508995936378
20
103.38389821951127
30
0
10
304.60871510732477
20
107.91116601840588
30
0
10
310.18205837068513
20
111.50995337740696
30
0
0
SPLINE
5
545
100
AcDbEntity
8
0
100
AcDbSpline
70
4
71
3
72
8
73
4
74
0
42
0.000000001
43
0.0000000001
44
0.0000000001
40
0
40
0
40
0
40
0
40
1
40
1
40
1
40
1
41
1
41
1
41
1
41
1
10
310.18205837068513
20
111.50995337740696
30
0
10
310.29964965712747
20
113.24932577434906
30
0
10
310.64752422996912
20
114.87845698274251
30
0
10
310.64752422996912
20
116.61782937968461
30
0
0
SPLINE
5
546
100
AcDbEntity
8
0
100
AcDbSpline
70
4
71
3
72
8
73
4
74
0
42
0.000000001
43
0.0000000001
44
0.0000000001
40
0
40
0
40
0
40
0
40
1
40
1
40
1
40
1
41
1
41
1
41
1
41
1
10
310.64752422996912
20
116.61782937968461
30
0
10
310.64752422996912
20
122.19117357757746
30
0
10
308.32509422003443
20
127.64937402957258
30
0
10
305.53719788354942
20
130.31967721055028
30
0
0
LINE
5
547
100
AcDbEntity
8
0
100
AcDbLine
10
305.53719788354942
20
130.31967721055025
30
0
11
293.69476361294409
21
123.28379156275538
31
0
0
LINE
5
548
100
AcDbEntity
8
0
100
AcDbLine
10
293.69476361294409
20
123.28379156275538
30
0
11
293.69476361294409
21
139.49180689837928
31
0
0
SPLINE
5
549
100
AcDbEntity
8
0
100
AcDbSpline
70
4
71
3
72
8
73
4
74
0
42
0.000000001
43
0.0000000001
44
0.0000000001
40
0
40
0
40
0
40
0
40
1
40
1
40
1
40
1
41
1
41
1
41
1
41
1
10
293.69476361294409
20
139.49180689837928
30
0
10
296.94567686636969
20
137.98271638603777
30
0
10
300.42932047947312
20
136.70390962736181
30
0
10
303.91296596164136
20
135.77542918746829
30
0
0
LINE
5
550
100
AcDbEntity
8
0
100
AcDbLine
10
303.91296596164136
20
135.77542918746829
30
0
11
312.96750402718044
21
146.45664564950889
31
0
0
SPLINE
5
551
100
AcDbEntity
8
0
100
AcDbSpline
70
4
71
3
72
8
73
4
74
0
42
0.000000001
43
0.0000000001
44
0.0000000001
40
0
40
0
40
0
40
0
40
1
40
1
40
1
40
1
41
1
41
1
41
1
41
1
10
312.96750402718044
20
146.45664564950889
30
0
10
306.23294656196651
20
147.73545240818487
30
0
10
299.03537371302934
20
150.17302709854977
30
0
10
293.92504549754466
20
153.30634252380574
30
0
0
LINE
5
552
100
AcDbEntity
8
0
100
AcDbLine
10
293.9250454975446
20
153.30634252380574
30
0
11
293.69231326880202
21
153.18874843376597
31
0
0
LINE
5
553
100
AcDbEntity
8
0
100
AcDbLine
10
293.69231326880202
20
153.18874843376597
30
0
11
293.69231326880202
21
162.93658750575884
31
0
0
LINE
5
554
100
AcDbEntity
8
0
100
AcDbLine
10
293.69231326880202
20
162.93658750575884
30
0
11
289.51291957548284
21
162.93658750575878
31
0
0
LINE
5
555
100
AcDbEntity
8
0
100
AcDbLine
10
289.51291957548284
20
162.93658750575878
30
0
11
289.51291957548284
21
149.35723258415209
31
0
0
SPLINE
5
556
100
AcDbEntity
8
0
100
AcDbSpline
70
4
71
3
72
8
73
4
74
0
42
0.000000001
43
0.0000000001
44
0.0000000001
40
0
40
0
40
0
40
0
40
1
40
1
40
1
40
1
41
1
41
1
41
1
41
1
10
289.51291957548284
20
149.35723258415211
30
0
10
284.28745135223033
20
144.71482290842474
30
0
10
277.43775260886855
20
138.79115426081438
30
0
10
272.90803633489679
20
135.54024474551863
30
0
0
SPLINE
5
557
100
AcDbEntity
8
0
100
AcDbSpline
70
4
71
3
72
8
73
4
74
0
42
0.000000001
43
0.0000000001
44
0.0000000001
40
0
40
0
40
0
40
0
40
1
40
1
40
1
40
1
41
1
41
1
41
1
41
1
10
272.90803633489679
20
135.54024474551863
30
0
10
272.67530410615416
20
134.1462961100099
30
0
10
272.56016222932141
20
132.40692558213277
30
0
10
272.56016222932141
20
131.01052473341701
30
0
0
SPLINE
5
558
100
AcDbEntity
8
0
100
AcDbSpline
70
4
71
3
72
8
73
4
74
0
42
0.000000001
43
0.0000000001
44
0.0000000001
40
0
40
0
40
0
40
0
40
1
40
1
40
1
40
1
41
1
41
1
41
1
41
1
10
272.56016222932141
20
131.01052473341701
30
0
10
272.56016222932141
20
121.60566281684535
30
0
10
276.27653994023234
20
115.91717861118468
30
0
10
280.34079175671877
20
112.08320867929886
30
0
0
SPLINE
5
559
100
AcDbEntity
8
0
100
AcDbSpline
70
4
71
3
72
8
73
4
74
0
42
0.000000001
43
0.0000000001
44
0.0000000001
40
0
40
0
40
0
40
0
40
1
40
1
40
1
40
1
41
1
41
1
41
1
41
1
10
295.31899600211835
20
121.14019835936003
30
0
10
298.5699083210115
20
116.96080466604086
30
0
10
298.80264148428665
20
111.73533644278837
30
0
10
298.80264148428665
20
106.39227786762601
30
0
0
LINE
5
560
100
AcDbEntity
8
0
100
AcDbLine
10
298.80264148428665
20
106.39227786762601
30
0
11
296.94322839129262
21
104.6529054706839
31
0
0
SPLINE
5
561
100
AcDbEntity
8
0
100
AcDbSpline
70
4
71
3
72
8
73
4
74
0
42
0.000000001
43
0.0000000001
44
0.0000000001
40
0
40
0
40
0
40
0
40
1
40
1
40
1
40
1
41
1
41
1
41
1
41
1
10
296.94322839129262
20
104.65290547068392
30
0
10
296.13233830330893
20
105.23351367406696
30
0
10
294.96867342146578
20
105.81412000838505
30
0
10
293.69231513786696
20
106.39227786762602
30
0
0
LINE
5
562
100
AcDbEntity
8
0
100
AcDbLine
10
293.69231513786696
20
106.39227786762604
30
0
11
293.69231513786696
21
120.16272225101488
31
0
0
LINE
5
563
100
AcDbEntity
8
0
100
AcDbLine
10
293.69231513786696
20
120.16272225101488
30
0
11
295.31899600211835
21
121.13774988428291
31
0
0
LINE
5
564
100
AcDbEntity
8
0
100
AcDbLine
10
295.31899600211835
20
121.13774988428291
30
0
11
295.31899600211835
21
121.14019835936003
31
0
0
LINE
5
565
100
AcDbEntity
8
0
100
AcDbLine
10
284.52018545003796
20
141.92447716233016
30
0
11
286.37959854303199
21
143.20083544592899
31
0
0
SPLINE
5
566
100
AcDbEntity
8
0
100
AcDbSpline
70
4
71
3
72
8
73
4
74
0
42
0.000000001
43
0.0000000001
44
0.0000000001
40
0
40
0
40
0
40
0
40
1
40
1
40
1
40
1
41
1
41
1
41
1
41
1
10
286.37959854303199
20
143.20083544592902
30
0
10
287.42567120390038
20
142.62022911161091
30
0
10
288.46929538969158
20
142.15476091599569
30
0
10
289.51291957548284
20
141.57660305675472
30
0
0
LINE
5
567
100
AcDbEntity
8
0
100
AcDbLine
10
289.51291957548284
20
141.57660305675472
30
0
11
289.51291957548284
21
121.8971920906079
31
0
0
SPLINE
5
568
100
AcDbEntity
8
0
100
AcDbSpline
70
4
71
3
72
8
73
4
74
0
42
0.000000001
43
0.0000000001
44
0.0000000001
40
0
40
0
40
0
40
0
40
1
40
1
40
1
40
1
41
1
41
1
41
1
41
1
10
289.51291957548284
20
121.8971920906079
30
0
10
285.81124019129436
20
127.43378860262956
30
0
10
284.31439953059822
20
133.3403029721805
30
0
10
284.52018545003796
20
141.92447716233016
30
0
0
ENDSEC
0
SECTION
2
OBJECTS
0
DICTIONARY
5
C
100
AcDbDictionary
3
ACAD_GROUP
350
D
3
ACAD_MLINESTYLE
350
17
0
DICTIONARY
5
D
100
AcDbDictionary
0
DICTIONARY
5
1A
330
C
100
AcDbDictionary
0
DICTIONARY
5
17
100
AcDbDictionary
0
ENDSEC
0
EOF
