%TF.GenerationSoftware,KiCad,Pcbnew,8.0.8*%
%TF.CreationDate,2025-05-05T15:36:01+02:00*%
%TF.ProjectId,PCB,5043422e-6b69-4636-9164-5f7063625858,rev?*%
%TF.SameCoordinates,Original*%
%TF.FileFunction,Paste,Bot*%
%TF.FilePolarity,Positive*%
%FSLAX46Y46*%
G04 Gerber Fmt 4.6, Leading zero omitted, Abs format (unit mm)*
G04 Created by KiCad (PCBNEW 8.0.8) date 2025-05-05 15:36:01*
%MOMM*%
%LPD*%
G01*
G04 APERTURE LIST*
G04 Aperture macros list*
%AMRoundRect*
0 Rectangle with rounded corners*
0 $1 Rounding radius*
0 $2 $3 $4 $5 $6 $7 $8 $9 X,Y pos of 4 corners*
0 Add a 4 corners polygon primitive as box body*
4,1,4,$2,$3,$4,$5,$6,$7,$8,$9,$2,$3,0*
0 Add four circle primitives for the rounded corners*
1,1,$1+$1,$2,$3*
1,1,$1+$1,$4,$5*
1,1,$1+$1,$6,$7*
1,1,$1+$1,$8,$9*
0 Add four rect primitives between the rounded corners*
20,1,$1+$1,$2,$3,$4,$5,0*
20,1,$1+$1,$4,$5,$6,$7,0*
20,1,$1+$1,$6,$7,$8,$9,0*
20,1,$1+$1,$8,$9,$2,$3,0*%
G04 Aperture macros list end*
%ADD10R,0.300000X1.450000*%
%ADD11R,0.600000X1.450000*%
%ADD12RoundRect,0.250000X0.262500X0.450000X-0.262500X0.450000X-0.262500X-0.450000X0.262500X-0.450000X0*%
%ADD13RoundRect,0.250000X-0.262500X-0.450000X0.262500X-0.450000X0.262500X0.450000X-0.262500X0.450000X0*%
%ADD14R,2.600000X2.600000*%
%ADD15RoundRect,0.126247X0.354753X-0.495253X0.354753X0.495253X-0.354753X0.495253X-0.354753X-0.495253X0*%
G04 APERTURE END LIST*
D10*
%TO.C,USB1*%
X218118924Y-53451922D03*
X218618924Y-53451922D03*
X219118924Y-53451922D03*
X217618924Y-53451922D03*
X219618924Y-53451922D03*
X217118924Y-53451922D03*
X220118924Y-53451922D03*
X216618924Y-53451922D03*
D11*
X215918924Y-53451922D03*
X220818924Y-53451922D03*
X215143924Y-53451922D03*
X221593924Y-53451922D03*
%TD*%
D12*
%TO.C,R5*%
X214449444Y-57225459D03*
X216274444Y-57225459D03*
%TD*%
D13*
%TO.C,R4*%
X224000000Y-60000000D03*
X222175000Y-60000000D03*
%TD*%
D14*
%TO.C,S7*%
X234142031Y-135211974D03*
X245692031Y-137411974D03*
%TD*%
%TO.C,S14*%
X319030741Y-105704575D03*
X330580741Y-107904575D03*
%TD*%
D15*
%TO.C,SW3*%
X139360209Y-64568833D03*
X139360209Y-73768833D03*
X143798209Y-64568833D03*
X143798209Y-73768833D03*
%TD*%
D14*
%TO.C,S8*%
X235297228Y-106751529D03*
X246847228Y-108951529D03*
%TD*%
%TO.C,S3*%
X149257237Y-104518381D03*
X160807237Y-106718381D03*
%TD*%
%TO.C,S11*%
X289112775Y-124170696D03*
X300662775Y-126370696D03*
%TD*%
D15*
%TO.C,SW2*%
X128760209Y-64568833D03*
X128760209Y-73768833D03*
X133198209Y-64568833D03*
X133198209Y-73768833D03*
%TD*%
D14*
%TO.C,S1*%
X92740482Y-115726692D03*
X104290482Y-117926692D03*
%TD*%
%TO.C,S4*%
X175658671Y-115726692D03*
X187208671Y-117926692D03*
%TD*%
%TO.C,S13*%
X318111677Y-134598474D03*
X329661677Y-136798474D03*
%TD*%
%TO.C,S6*%
X224144764Y-166560831D03*
X235694764Y-168760831D03*
%TD*%
%TO.C,S5*%
X194725741Y-166560831D03*
X206275741Y-168760831D03*
%TD*%
D15*
%TO.C,SW4*%
X149960209Y-64568833D03*
X149960209Y-73768833D03*
X154398209Y-64568833D03*
X154398209Y-73768833D03*
%TD*%
D14*
%TO.C,S9*%
X260492255Y-124170696D03*
X272042255Y-126370696D03*
%TD*%
D15*
%TO.C,SW1*%
X118160209Y-64568833D03*
X118160209Y-73768833D03*
X122598209Y-64568833D03*
X122598209Y-73768833D03*
%TD*%
D14*
%TO.C,S2*%
X120429952Y-104373287D03*
X131979952Y-106573287D03*
%TD*%
%TO.C,S10*%
X261664522Y-95276797D03*
X273214522Y-97476797D03*
%TD*%
%TO.C,S12*%
X290296422Y-95276797D03*
X301846422Y-97476797D03*
%TD*%
M02*
