M48
; DRILL file {KiCad 8.0.8} date 2025-05-05T15:35:53+0200
; FORMAT={-:-/ absolute / inch / decimal}
; #@! TF.CreationDate,2025-05-05T15:35:53+02:00
; #@! TF.GenerationSoftware,Kicad,Pcbnew,8.0.8
; #@! TF.FileFunction,Plated,1,2,PTH
FMAT,2
INCH
; #@! TA.AperFunction,Plated,PTH,ViaDrill
T1C0.0118
; #@! TA.AperFunction,Plated,PTH,ComponentDrill
T2C0.0236
; #@! TA.AperFunction,Plated,PTH,ComponentDrill
T3C0.0300
%
G90
G05
T1
X5.0028Y-4.7862
X5.0591Y-3.3268
X6.5748Y-7.2047
X6.6063Y-7.2047
X6.6422Y-7.2062
X6.8504Y-4.7835
X8.1102Y-6.8307
X8.5551Y-2.9528
X8.5828Y-2.4261
X8.63Y-2.4253
X8.6891Y-2.2935
X8.6891Y-2.4244
X9.9213Y-5.7087
X10.0394Y-4.311
X10.689Y-5.1575
X10.7677Y-4.0354
X11.8898Y-4.0748
T3
X4.6303Y-7.9067
X4.6815Y-6.8539
X4.6815Y-6.9327
X4.6815Y-7.0114
X4.6815Y-7.0902
X4.6886Y-7.2398
X4.6886Y-7.3185
X4.6886Y-7.3972
X4.6886Y-7.476
X4.6886Y-7.5547
X4.7091Y-7.9067
X4.7878Y-7.9067
X4.8453Y-6.5213
X4.8665Y-7.9067
X4.924Y-6.5213
X4.9453Y-7.9067
X5.0028Y-6.5213
X5.024Y-7.9067
X5.0815Y-6.5213
X5.1028Y-7.9067
X5.1602Y-6.5213
X5.1815Y-7.9067
X5.239Y-6.5213
X5.2815Y-7.9075
X5.3177Y-6.5213
X5.3602Y-7.9075
X5.3965Y-6.5213
X5.439Y-7.9075
X5.4752Y-6.5213
X5.5177Y-7.9075
X5.5965Y-7.9075
X5.6752Y-7.9075
X5.7539Y-7.9075
X5.8327Y-7.9075
X6.0039Y-6.4961
X6.0039Y-6.5748
X6.0039Y-6.6535
X6.0039Y-6.7323
X6.0039Y-6.811
X6.0039Y-6.8898
X6.0039Y-6.9685
X6.0039Y-7.661
X6.0039Y-7.7398
X6.0039Y-7.8185
X6.0039Y-7.8972
T2
G00X8.4271Y-1.892
M15
G01X8.4271Y-1.9156
M16
G05
G00X8.4271Y-2.0467
M15
G01X8.4271Y-2.09
M16
G05
G00X8.7673Y-1.892
M15
G01X8.7673Y-1.9156
M16
G05
G00X8.7673Y-2.0467
M15
G01X8.7673Y-2.09
M16
G05
M30
