M48
; DRILL file {KiCad 8.0.8} date 2025-05-05T15:35:53+0200
; FORMAT={-:-/ absolute / inch / decimal}
; #@! TF.CreationDate,2025-05-05T15:35:53+02:00
; #@! TF.GenerationSoftware,Kicad,Pcbnew,8.0.8
; #@! TF.FileFunction,NonPlated,1,2,NPTH
FMAT,2
INCH
; #@! TA.AperFunction,NonPlated,NPTH,ComponentDrill
T1C0.0256
; #@! TA.AperFunction,NonPlated,NPTH,ComponentDrill
T2C0.0390
; #@! TA.AperFunction,NonPlated,NPTH,ComponentDrill
T3C0.0670
; #@! TA.AperFunction,NonPlated,NPTH,ComponentDrill
T4C0.1181
; #@! TA.AperFunction,NonPlated,NPTH,ComponentDrill
T5C0.1350
; #@! TA.AperFunction,NonPlated,NPTH,ComponentDrill
T6C0.2756
%
G90
G05
T1
X8.4834Y-2.0475
X8.711Y-2.0475
T2
X4.1825Y-4.2432
X5.2726Y-3.7962
X6.4076Y-3.8019
X7.447Y-4.2432
X8.1977Y-6.2445
X9.3559Y-6.2445
X9.7495Y-5.0103
X9.795Y-3.8898
X10.7869Y-4.5756
X10.8331Y-3.4381
X11.9137Y-4.5756
X11.9603Y-3.4381
X13.0554Y-4.9862
X13.0916Y-3.8486
T3
X3.7605Y-4.4085
X4.1935Y-4.4085
X4.8506Y-3.9615
X5.2837Y-3.9615
X5.9855Y-3.9673
X6.4186Y-3.9673
X7.0249Y-4.4085
X7.458Y-4.4085
X7.7756Y-6.4099
X8.2087Y-6.4099
X8.9338Y-6.4099
X9.3274Y-5.1757
X9.3669Y-6.4099
X9.3729Y-4.0552
X9.7605Y-5.1757
X9.806Y-4.0552
X10.3649Y-4.741
X10.411Y-3.6034
X10.7979Y-4.741
X10.8441Y-3.6034
X11.4916Y-4.741
X11.5382Y-3.6034
X11.9247Y-4.741
X11.9713Y-3.6034
X12.6333Y-5.1515
X12.6695Y-4.014
X13.0664Y-5.1515
X13.1026Y-4.014
T4
X3.7801Y-4.5562
X3.977Y-4.6428
X4.8703Y-4.1092
X5.0671Y-4.1958
X6.0052Y-4.1149
X6.2021Y-4.2015
X7.0446Y-4.5562
X7.2415Y-4.6428
X7.7953Y-6.5575
X7.9922Y-6.6441
X8.9535Y-6.5575
X9.1504Y-6.6441
X9.3471Y-5.3233
X9.3926Y-4.2028
X9.544Y-5.4099
X9.5895Y-4.2894
X10.3845Y-4.8886
X10.4307Y-3.7511
X10.5814Y-4.9752
X10.6275Y-3.8377
X11.5113Y-4.8886
X11.5579Y-3.7511
X11.7082Y-4.9752
X11.7548Y-3.8377
X12.653Y-5.2992
X12.6892Y-4.1616
X12.8499Y-5.3858
X12.8861Y-4.2482
T5
X3.977Y-4.4085
X5.0671Y-3.9615
X6.2021Y-3.9673
X7.2415Y-4.4085
X7.9922Y-6.4099
X9.1504Y-6.4099
X9.544Y-5.1757
X9.5895Y-4.0552
X10.5814Y-4.741
X10.6275Y-3.6034
X11.7082Y-4.741
X11.7548Y-3.6034
X12.8499Y-5.1515
X12.8861Y-4.014
T6
X4.7393Y-2.7232
X5.1567Y-2.7232
X5.574Y-2.7232
X5.9913Y-2.7232
M30
